<?xml version="1.0" encoding="UTF-8"?>
<svg id="Livello_1" data-name="Livello 1" xmlns="http://www.w3.org/2000/svg" viewBox="0 0 1080 1080">
  <defs>
    <style>
      .cls-1 {
        fill-rule: evenodd;
        opacity: .83;
      }

      .cls-1, .cls-2, .cls-3, .cls-4 {
        stroke-width: 0px;
      }

      .cls-1, .cls-3 {
        fill: #1d1d1b;
      }

      .cls-2 {
        fill: #fff;
      }

      .cls-5 {
        opacity: .26;
      }

      .cls-4 {
        fill: #628b9d;
      }
    </style>
  </defs>
  <path class="cls-4" d="m752.83,1017.86l-428.95-1.23c-37.73-.11-72.54-20.34-91.31-53.07L19.15,591.47c-18.77-32.73-18.66-72.99.3-105.61L234.99,114.99c18.96-32.62,53.88-52.65,91.61-52.54l428.95,1.23c37.73.11,72.54,20.34,91.31,53.07l213.41,372.09c18.77,32.73,18.66,72.99-.3,105.61l-215.54,370.87c-18.96,32.62-53.88,52.65-91.61,52.54Z"/>
  <g class="cls-5">
    <g>
      <path class="cls-3" d="m344.69,666.34c.55-.31,1.11-.58,1.68-.81,1.17-.47,1.91-1.61,1.87-2.87,0-.15,0-.3,0-.45l.18-66.16c.01-4.75,2.56-9.13,6.68-11.49l57.39-32.92c4.12-2.36,9.18-2.35,13.29.04l57.2,33.24c4.1,2.39,6.62,6.78,6.61,11.53l-.18,66.16c-.01,4.75-2.56,9.13-6.68,11.49l-57.39,32.92c-.55.31-1.11.58-1.68.81-1.17.47-1.91,1.61-1.87,2.87,0,.15,0,.3,0,.45l-.14,51.26c0,2.05,2.05,3.47,3.96,2.74,1.09-.42,2.15-.92,3.18-1.51l98.32-56.4c7.05-4.05,11.41-11.55,11.44-19.68l.31-113.34c.02-8.13-4.3-15.66-11.33-19.74l-98-56.94c-7.03-4.09-15.71-4.11-22.76-.06l-98.32,56.4c-7.05,4.05-11.41,11.55-11.44,19.68l-.31,113.34c0,.73.03,1.46.1,2.19.2,2.11,2.52,3.3,4.36,2.24l43.53-24.97Z"/>
      <path class="cls-3" d="m658.1,364.08l.8,101.81c.08,10.67-5.53,20.57-14.73,25.98l-87.77,51.59c-9.2,5.41-20.58,5.5-29.86.23l-88.56-50.21c-9.28-5.26-15.05-15.08-15.13-25.75l-.8-101.81c-.08-10.67,5.53-20.57,14.73-25.98l87.77-51.59c9.2-5.41,20.58-5.5,29.86-.23l88.56,50.21c9.28,5.26,15.05,15.08,15.13,25.75Z"/>
      <path class="cls-3" d="m783.44,573.04l.8,101.81c.08,10.67-5.53,20.57-14.73,25.98l-87.77,51.59c-9.2,5.41-20.58,5.5-29.86.23l-88.56-50.21c-9.28-5.26-15.05-15.08-15.13-25.75l-.8-101.81c-.08-10.67,5.53-20.57,14.73-25.98l87.77-51.59c9.2-5.41,20.58-5.5,29.86-.23l88.56,50.21c9.28,5.26,15.05,15.08,15.13,25.75Z"/>
    </g>
  </g>
  <path class="cls-1" d="m555.42,207.42h222.91c40.81,0,74,34.99,74,78.51v265.94h-296.91V207.42Zm0,719.4h222.91c40.81,0,74-34.97,74-78.49v-265.52h-296.91v344.01Zm34.99-139.02h0c4.93,0,8.97-4.5,8.97-9.43v-47.1c0-4.94-4.04-9.41-8.97-9.41h0c-4.93,0-8.97,4.47-8.97,9.41v47.1c0,4.93,4.03,9.43,8.97,9.43h0Zm-105.85,0h0c4.93,0,8.97-4.5,8.97-9.43v-47.1c0-4.94-4.03-9.41-8.97-9.41h0c-4.93,0-8.97,4.47-8.97,9.41v47.1c0,4.93,4.03,9.43,8.97,9.43h0Zm37.68,139.02h-216.62c-39.47,0-71.76-34.09-71.76-76.25v-267.76h288.38v344.01Zm68.17-580.36h0c4.93,0,8.97,4.49,8.97,9.43v47.1c0,4.91-4.04,9.41-8.97,9.41h0c-4.93,0-8.97-4.5-8.97-9.41v-47.1c0-4.94,4.03-9.43,8.97-9.43h0Zm-105.85,0h0c4.93,0,8.97,4.49,8.97,9.43v47.1c0,4.91-4.03,9.41-8.97,9.41h0c-4.93,0-8.97-4.5-8.97-9.41v-47.1c0-4.94,4.03-9.43,8.97-9.43h0Zm37.68-139.04h-216.62c-39.47,0-71.76,34.11-71.76,76.25v268.2h288.38V207.42Z"/>
  <g>
    <path class="cls-2" d="m97.47,524.15c4.06-7.35,9.72-13.08,16.98-17.18,7.26-4.1,15.49-6.16,24.69-6.16,11.27,0,20.93,2.98,28.95,8.93,8.03,5.95,13.39,14.07,16.1,24.35h-25.44c-1.89-3.97-4.58-6.99-8.05-9.06-3.47-2.07-7.42-3.11-11.84-3.11-7.13,0-12.9,2.48-17.32,7.44-4.42,4.96-6.63,11.59-6.63,19.89s2.21,14.93,6.63,19.89c4.42,4.96,10.19,7.44,17.32,7.44,4.42,0,8.37-1.04,11.84-3.11,3.47-2.07,6.16-5.1,8.05-9.07h25.44c-2.71,10.28-8.07,18.38-16.1,24.29-8.03,5.91-17.68,8.86-28.95,8.86-9.2,0-17.43-2.05-24.69-6.16-7.26-4.1-12.92-9.81-16.98-17.12-4.06-7.31-6.09-15.65-6.09-25.03s2.03-17.75,6.09-25.1Z"/>
    <path class="cls-2" d="m218.77,591.6c-7.44-4.15-13.35-9.94-17.72-17.39-4.38-7.44-6.56-15.81-6.56-25.1s2.19-17.63,6.56-25.03c4.37-7.4,10.28-13.17,17.72-17.32,7.44-4.15,15.63-6.22,24.56-6.22s17.12,2.08,24.56,6.22c7.44,4.15,13.3,9.92,17.59,17.32,4.28,7.4,6.43,15.74,6.43,25.03s-2.17,17.66-6.49,25.1-10.19,13.24-17.59,17.39c-7.4,4.15-15.56,6.22-24.49,6.22s-17.12-2.07-24.56-6.22Zm42.76-22.46c4.55-5.05,6.83-11.73,6.83-20.02s-2.28-15.09-6.83-20.09c-4.56-5.01-10.62-7.51-18.2-7.51s-13.78,2.48-18.33,7.44c-4.56,4.96-6.83,11.68-6.83,20.16s2.28,15.09,6.83,20.09c4.55,5.01,10.67,7.51,18.33,7.51s13.64-2.52,18.2-7.58Z"/>
    <path class="cls-2" d="m389.72,596.88h-23.14l-38.7-58.59v58.59h-23.14v-94.98h23.14l38.7,58.86v-58.86h23.14v94.98Z"/>
    <path class="cls-2" d="m474.83,501.89v18.54h-25.17v76.45h-23.14v-76.45h-25.17v-18.54h73.47Z"/>
    <path class="cls-2" d="m509.6,520.43v19.21h30.98v17.86h-30.98v20.84h35.04v18.54h-58.18v-94.98h58.18v18.54h-35.04Z"/>
    <path class="cls-2" d="m644.63,596.88h-23.14l-38.7-58.59v58.59h-23.14v-94.98h23.14l38.7,58.86v-58.86h23.14v94.98Z"/>
    <path class="cls-2" d="m684.54,501.89v94.98h-23.14v-94.98h23.14Z"/>
    <path class="cls-2" d="m769.65,501.89v18.54h-25.17v76.45h-23.14v-76.45h-25.17v-18.54h73.47Z"/>
    <path class="cls-2" d="m801.64,591.6c-7.44-4.15-13.35-9.94-17.72-17.39-4.38-7.44-6.56-15.81-6.56-25.1s2.19-17.63,6.56-25.03c4.37-7.4,10.28-13.17,17.72-17.32,7.44-4.15,15.63-6.22,24.56-6.22s17.12,2.08,24.56,6.22c7.44,4.15,13.3,9.92,17.59,17.32,4.28,7.4,6.43,15.74,6.43,25.03s-2.17,17.66-6.49,25.1-10.19,13.24-17.59,17.39c-7.4,4.15-15.56,6.22-24.49,6.22s-17.12-2.07-24.56-6.22Zm42.76-22.46c4.55-5.05,6.83-11.73,6.83-20.02s-2.28-15.09-6.83-20.09c-4.56-5.01-10.62-7.51-18.2-7.51s-13.78,2.48-18.33,7.44c-4.56,4.96-6.83,11.68-6.83,20.16s2.28,15.09,6.83,20.09c4.55,5.01,10.67,7.51,18.33,7.51s13.64-2.52,18.2-7.58Z"/>
    <path class="cls-2" d="m936.07,596.88l-19.75-35.85h-5.55v35.85h-23.14v-94.98h38.83c7.49,0,13.87,1.31,19.15,3.92,5.28,2.62,9.22,6.2,11.84,10.76,2.62,4.56,3.92,9.63,3.92,15.22,0,6.31-1.78,11.95-5.34,16.91-3.56,4.96-8.82,8.48-15.76,10.55l21.92,37.61h-26.11Zm-25.3-52.23h14.34c4.24,0,7.42-1.04,9.54-3.11,2.12-2.07,3.18-5.01,3.18-8.79s-1.06-6.45-3.18-8.52c-2.12-2.07-5.3-3.11-9.54-3.11h-14.34v23.54Z"/>
    <path class="cls-2" d="m998.98,501.89v94.98h-23.14v-94.98h23.14Z"/>
  </g>
</svg>