<?xml version="1.0" encoding="UTF-8"?>
<svg id="Livello_1" data-name="Livello 1" xmlns="http://www.w3.org/2000/svg" viewBox="0 0 1080 1080">
  <defs>
    <style>
      .cls-1 {
        opacity: .08;
      }

      .cls-2 {
        opacity: .54;
      }

      .cls-3 {
        fill: #fff;
      }

      .cls-3, .cls-4, .cls-5 {
        stroke-width: 0px;
      }

      .cls-4 {
        fill: #004351;
      }

      .cls-6 {
        opacity: .87;
      }

      .cls-5 {
        fill: #1d1d1b;
      }
    </style>
  </defs>
  <path class="cls-4" d="m752.83,1017.86l-428.95-1.23c-37.73-.11-72.54-20.34-91.31-53.07L19.15,591.47c-18.77-32.73-18.66-72.99.3-105.61L234.99,114.99c18.96-32.62,53.88-52.65,91.61-52.54l428.95,1.23c37.73.11,72.54,20.34,91.31,53.07l213.41,372.09c18.77,32.73,18.66,72.99-.3,105.61l-215.54,370.87c-18.96,32.62-53.88,52.65-91.61,52.54Z"/>
  <g class="cls-1">
    <path class="cls-3" d="m344.69,666.34c.55-.31,1.11-.58,1.68-.81,1.17-.47,1.91-1.61,1.87-2.87,0-.15,0-.3,0-.45l.18-66.16c.01-4.75,2.56-9.13,6.68-11.49l57.39-32.92c4.12-2.36,9.18-2.35,13.29.04l57.2,33.24c4.1,2.39,6.62,6.78,6.61,11.53l-.18,66.16c-.01,4.75-2.56,9.13-6.68,11.49l-57.39,32.92c-.55.31-1.11.58-1.68.81-1.17.47-1.91,1.61-1.87,2.87,0,.15,0,.3,0,.45l-.14,51.26c0,2.05,2.05,3.47,3.96,2.74,1.09-.42,2.15-.92,3.18-1.51l98.32-56.4c7.05-4.05,11.41-11.55,11.44-19.68l.31-113.34c.02-8.13-4.3-15.66-11.33-19.74l-98-56.94c-7.03-4.09-15.71-4.11-22.76-.06l-98.32,56.4c-7.05,4.05-11.41,11.55-11.44,19.68l-.31,113.34c0,.73.03,1.46.1,2.19.2,2.11,2.52,3.3,4.36,2.24l43.53-24.97Z"/>
    <path class="cls-3" d="m658.1,364.08l.8,101.81c.08,10.67-5.53,20.57-14.73,25.98l-87.77,51.59c-9.2,5.41-20.58,5.5-29.86.23l-88.56-50.21c-9.28-5.26-15.05-15.08-15.13-25.75l-.8-101.81c-.08-10.67,5.53-20.57,14.73-25.98l87.77-51.59c9.2-5.41,20.58-5.5,29.86-.23l88.56,50.21c9.28,5.26,15.05,15.08,15.13,25.75Z"/>
    <path class="cls-3" d="m783.44,573.04l.8,101.81c.08,10.67-5.53,20.57-14.73,25.98l-87.77,51.59c-9.2,5.41-20.58,5.5-29.86.23l-88.56-50.21c-9.28-5.26-15.05-15.08-15.13-25.75l-.8-101.81c-.08-10.67,5.53-20.57,14.73-25.98l87.77-51.59c9.2-5.41,20.58-5.5,29.86-.23l88.56,50.21c9.28,5.26,15.05,15.08,15.13,25.75Z"/>
  </g>
  <g>
    <path class="cls-3" d="m184.73,418.4v86.22h-19.48v-86.22h19.48Z"/>
    <path class="cls-3" d="m212.08,502.41c-4.63-2.05-8.34-5.08-11.11-9.09-2.77-4.01-4.24-8.84-4.39-14.49h20.74c.3,3.19,1.33,5.63,3.08,7.31,1.75,1.68,4.03,2.52,6.84,2.52s5.17-.72,6.84-2.15c1.67-1.43,2.51-3.42,2.51-5.96,0-2.13-.67-3.89-1.99-5.28-1.33-1.39-2.96-2.54-4.9-3.44-1.94-.9-4.69-1.92-8.26-3.07-5.17-1.72-9.38-3.44-12.65-5.16-3.27-1.72-6.08-4.26-8.43-7.62-2.36-3.36-3.53-7.74-3.53-13.14,0-8.02,2.7-14.31,8.09-18.85,5.39-4.54,12.42-6.82,21.08-6.82s15.91,2.27,21.31,6.82c5.39,4.54,8.28,10.87,8.66,18.98h-21.08c-.15-2.78-1.1-4.97-2.85-6.57-1.75-1.6-3.99-2.4-6.72-2.4-2.36,0-4.25.68-5.7,2.03-1.44,1.35-2.17,3.3-2.17,5.83,0,2.78,1.21,4.96,3.65,6.51,2.43,1.56,6.23,3.24,11.39,5.04,5.16,1.88,9.36,3.68,12.59,5.4,3.23,1.72,6.02,4.22,8.38,7.49,2.35,3.28,3.53,7.49,3.53,12.65s-1.16,9.38-3.48,13.39c-2.32,4.01-5.68,7.21-10.08,9.58-4.41,2.38-9.61,3.56-15.61,3.56s-11.09-1.02-15.72-3.07Z"/>
    <path class="cls-3" d="m286.09,499.83c-6.27-3.77-11.24-9.03-14.93-15.78-3.69-6.76-5.53-14.35-5.53-22.78s1.84-16.01,5.53-22.72c3.68-6.71,8.66-11.95,14.93-15.72,6.27-3.77,13.16-5.65,20.68-5.65s14.41,1.88,20.68,5.65c6.27,3.77,11.2,9.01,14.81,15.72,3.61,6.71,5.41,14.29,5.41,22.72s-1.82,16.03-5.47,22.78c-3.65,6.76-8.58,12.02-14.81,15.78-6.23,3.77-13.1,5.65-20.62,5.65s-14.41-1.88-20.68-5.65Zm36.01-20.39c3.83-4.58,5.75-10.64,5.75-18.18s-1.92-13.69-5.75-18.24c-3.84-4.54-8.94-6.82-15.33-6.82s-11.6,2.25-15.44,6.76c-3.84,4.5-5.75,10.6-5.75,18.3s1.92,13.69,5.75,18.24c3.83,4.54,8.98,6.82,15.44,6.82s11.49-2.29,15.33-6.88Z"/>
    <path class="cls-3" d="m377.98,488.41h25.52v16.21h-45.01v-86.22h19.48v70.01Z"/>
    <path class="cls-3" d="m462.64,489.4h-29.85l-4.79,15.23h-20.4l28.94-86.22h22.56l28.94,86.22h-20.62l-4.79-15.23Zm-5.01-16.21l-9.91-31.57-9.8,31.57h19.71Z"/>
    <path class="cls-3" d="m587.41,418.4v86.22h-19.48v-51.71l-17.89,51.71h-15.72l-18-51.83v51.83h-19.48v-86.22h23.02l22.45,59.69,22.22-59.69h22.9Z"/>
    <path class="cls-3" d="m620.91,435.23v17.44h26.09v16.21h-26.09v18.92h29.51v16.83h-49v-86.22h49v16.83h-29.51Z"/>
    <path class="cls-3" d="m734.62,504.62h-19.48l-32.59-53.18v53.18h-19.48v-86.22h19.48l32.59,53.43v-53.43h19.48v86.22Z"/>
    <path class="cls-3" d="m806.29,418.4v16.83h-21.19v69.4h-19.48v-69.4h-21.19v-16.83h61.87Z"/>
    <path class="cls-3" d="m833.24,499.83c-6.27-3.77-11.24-9.03-14.93-15.78-3.69-6.76-5.53-14.35-5.53-22.78s1.84-16.01,5.53-22.72c3.68-6.71,8.66-11.95,14.93-15.72,6.27-3.77,13.16-5.65,20.68-5.65s14.41,1.88,20.68,5.65c6.27,3.77,11.2,9.01,14.81,15.72,3.61,6.71,5.41,14.29,5.41,22.72s-1.82,16.03-5.47,22.78c-3.65,6.76-8.58,12.02-14.81,15.78-6.23,3.77-13.1,5.65-20.62,5.65s-14.41-1.88-20.68-5.65Zm36.01-20.39c3.83-4.58,5.75-10.64,5.75-18.18s-1.92-13.69-5.75-18.24c-3.84-4.54-8.94-6.82-15.33-6.82s-11.6,2.25-15.44,6.76c-3.84,4.5-5.75,10.6-5.75,18.3s1.92,13.69,5.75,18.24c3.83,4.54,8.98,6.82,15.44,6.82s11.49-2.29,15.33-6.88Z"/>
    <path class="cls-3" d="m298.05,636.78h-29.85l-4.79,15.23h-20.4l28.94-86.22h22.56l28.94,86.22h-20.62l-4.79-15.23Zm-5.01-16.21l-9.91-31.57-9.8,31.57h19.71Z"/>
    <path class="cls-3" d="m334.06,586c3.42-6.67,8.18-11.87,14.3-15.6,6.11-3.72,13.05-5.59,20.79-5.59,9.49,0,17.62,2.7,24.38,8.11,6.76,5.4,11.28,12.77,13.56,22.11h-21.42c-1.6-3.6-3.86-6.34-6.78-8.23-2.93-1.88-6.25-2.82-9.97-2.82-6,0-10.86,2.25-14.58,6.76-3.72,4.5-5.58,10.52-5.58,18.05s1.86,13.55,5.58,18.06c3.72,4.5,8.58,6.76,14.58,6.76,3.72,0,7.04-.94,9.97-2.83,2.92-1.88,5.18-4.62,6.78-8.23h21.42c-2.28,9.33-6.8,16.68-13.56,22.05-6.76,5.36-14.89,8.04-24.38,8.04-7.75,0-14.68-1.86-20.79-5.59-6.12-3.73-10.88-8.9-14.3-15.54-3.42-6.63-5.13-14.21-5.13-22.72s1.71-16.11,5.13-22.78Z"/>
    <path class="cls-3" d="m438.2,565.79v51.59c0,5.16,1.18,9.13,3.53,11.91,2.35,2.78,5.81,4.18,10.37,4.18s8.05-1.39,10.48-4.18c2.43-2.78,3.65-6.76,3.65-11.91v-51.59h19.48v51.46c0,7.7-1.52,14.21-4.56,19.53-3.04,5.32-7.12,9.33-12.25,12.04s-10.84,4.05-17.15,4.05-11.95-1.33-16.92-3.99c-4.98-2.66-8.91-6.67-11.79-12.04-2.89-5.36-4.33-11.89-4.33-19.59v-51.46h19.48Z"/>
    <path class="cls-3" d="m512.6,649.8c-4.63-2.05-8.34-5.08-11.11-9.09-2.77-4.01-4.24-8.84-4.39-14.49h20.74c.3,3.19,1.33,5.63,3.08,7.31,1.75,1.68,4.03,2.52,6.84,2.52s5.17-.72,6.84-2.15c1.67-1.43,2.51-3.42,2.51-5.96,0-2.13-.67-3.89-1.99-5.28-1.33-1.39-2.96-2.54-4.9-3.44-1.94-.9-4.69-1.92-8.26-3.07-5.17-1.72-9.38-3.44-12.65-5.16-3.27-1.72-6.08-4.26-8.43-7.62-2.36-3.36-3.53-7.74-3.53-13.14,0-8.02,2.7-14.31,8.09-18.85,5.39-4.54,12.42-6.82,21.08-6.82s15.91,2.27,21.31,6.82c5.39,4.54,8.28,10.87,8.66,18.98h-21.08c-.15-2.78-1.1-4.97-2.85-6.57-1.75-1.6-3.99-2.4-6.72-2.4-2.36,0-4.25.68-5.7,2.03-1.44,1.35-2.17,3.3-2.17,5.83,0,2.78,1.21,4.96,3.65,6.51,2.43,1.56,6.23,3.24,11.39,5.04,5.16,1.88,9.36,3.68,12.59,5.4,3.23,1.72,6.02,4.22,8.38,7.49,2.35,3.28,3.53,7.49,3.53,12.65s-1.16,9.38-3.48,13.39c-2.32,4.01-5.68,7.21-10.08,9.58-4.41,2.38-9.61,3.56-15.61,3.56s-11.09-1.02-15.72-3.07Z"/>
    <path class="cls-3" d="m627,565.79v16.83h-21.19v69.4h-19.48v-69.4h-21.19v-16.83h61.87Z"/>
    <path class="cls-3" d="m656.29,565.79v86.22h-19.48v-86.22h19.48Z"/>
    <path class="cls-3" d="m672.24,586c3.42-6.67,8.18-11.87,14.3-15.6,6.11-3.72,13.05-5.59,20.79-5.59,9.49,0,17.62,2.7,24.38,8.11,6.76,5.4,11.28,12.77,13.56,22.11h-21.42c-1.6-3.6-3.86-6.34-6.78-8.23-2.93-1.88-6.25-2.82-9.97-2.82-6,0-10.86,2.25-14.58,6.76-3.72,4.5-5.58,10.52-5.58,18.05s1.86,13.55,5.58,18.06c3.72,4.5,8.58,6.76,14.58,6.76,3.72,0,7.04-.94,9.97-2.83,2.92-1.88,5.18-4.62,6.78-8.23h21.42c-2.28,9.33-6.8,16.68-13.56,22.05-6.76,5.36-14.89,8.04-24.38,8.04-7.75,0-14.68-1.86-20.79-5.59-6.12-3.73-10.88-8.9-14.3-15.54-3.42-6.63-5.13-14.21-5.13-22.72s1.71-16.11,5.13-22.78Z"/>
    <path class="cls-3" d="m774.39,647.22c-6.27-3.77-11.24-9.03-14.93-15.78-3.69-6.76-5.53-14.35-5.53-22.78s1.84-16.01,5.53-22.72c3.68-6.71,8.66-11.95,14.93-15.72,6.27-3.77,13.16-5.65,20.68-5.65s14.41,1.88,20.68,5.65c6.27,3.77,11.2,9.01,14.81,15.72,3.61,6.71,5.41,14.29,5.41,22.72s-1.82,16.03-5.47,22.78c-3.65,6.76-8.58,12.02-14.81,15.78-6.23,3.77-13.1,5.65-20.62,5.65s-14.41-1.88-20.68-5.65Zm36.01-20.39c3.83-4.58,5.75-10.64,5.75-18.18s-1.92-13.69-5.75-18.24c-3.84-4.54-8.94-6.82-15.33-6.82s-11.6,2.25-15.44,6.76c-3.84,4.5-5.75,10.6-5.75,18.3s1.92,13.69,5.75,18.24c3.83,4.54,8.98,6.82,15.44,6.82s11.49-2.29,15.33-6.88Z"/>
  </g>
  <g class="cls-6">
    <path class="cls-5" d="m786.83,370.02l-49.04-84.93c-1.54-2.66.38-5.99,3.46-5.99h98.07c3.07,0,4.99,3.33,3.46,5.99l-49.04,84.93c-1.54,2.66-5.38,2.66-6.91,0Z"/>
    <path class="cls-5" d="m662.79,370.02l-49.04-84.93c-1.54-2.66.38-5.99,3.46-5.99h98.07c3.07,0,4.99,3.33,3.46,5.99l-49.04,84.93c-1.54,2.66-5.38,2.66-6.91,0Z"/>
    <path class="cls-5" d="m536.89,370.02l-49.04-84.93c-1.54-2.66.38-5.99,3.46-5.99h98.07c3.07,0,4.99,3.33,3.46,5.99l-49.04,84.93c-1.54,2.66-5.38,2.66-6.91,0Z"/>
    <path class="cls-5" d="m407.27,370.02l-49.04-84.93c-1.54-2.66.38-5.99,3.46-5.99h98.07c3.07,0,4.99,3.33,3.46,5.99l-49.04,84.93c-1.54,2.66-5.38,2.66-6.91,0Z"/>
    <path class="cls-5" d="m288.81,370.02l-49.04-84.93c-1.54-2.66.38-5.99,3.46-5.99h98.07c3.07,0,4.99,3.33,3.46,5.99l-49.04,84.93c-1.54,2.66-5.38,2.66-6.91,0Z"/>
    <path class="cls-5" d="m847.25,209.79H230.46v64.19h616.79v-64.19Zm-64.48,55.35c-10.23,0-18.53-8.3-18.53-18.53s8.3-18.53,18.53-18.53,18.53,8.3,18.53,18.53-8.3,18.53-18.53,18.53Zm-157.1-21.12c1.34,6.02-2.45,11.99-8.47,13.33-6.02,1.34-11.99-2.45-13.33-8.47-1.34-6.02,2.45-11.99,8.47-13.33,6.02-1.34,11.99,2.45,13.33,8.47Zm88.26-23.46c10.23,0,18.53,8.3,18.53,18.53s-8.3,18.53-18.53,18.53-18.53-8.3-18.53-18.53,8.3-18.53,18.53-18.53Zm122.63,7.52c0,6.08-4.93,11.01-11.01,11.01s-11.01-4.93-11.01-11.01,4.93-11.01,11.01-11.01,11.01,4.93,11.01,11.01Zm-154.72-9.99c.76,3.43-1.4,6.83-4.82,7.59-3.43.76-6.83-1.4-7.59-4.82-.76-3.43,1.4-6.83,4.82-7.59,3.43-.76,6.83,1.4,7.59,4.82Zm-105.4,19.87c0,13.21-10.71,23.92-23.92,23.92s-23.92-10.71-23.92-23.92,10.71-23.92,23.92-23.92,23.92,10.71,23.92,23.92Zm-103.2,11.17c0-6.17,5-11.17,11.17-11.17s11.17,5,11.17,11.17-5,11.17-11.17,11.17-11.17-5-11.17-11.17Zm-73.67,8.49c-6.17,0-11.17-5-11.17-11.17s5-11.17,11.17-11.17,11.17,5,11.17,11.17-5,11.17-11.17,11.17Zm78.29-29.54c0,6.17-5,11.17-11.17,11.17s-11.17-5-11.17-11.17,5-11.17,11.17-11.17,11.17,5,11.17,11.17Zm-141-8.54c9.9,0,17.93,8.03,17.93,17.93s-8.03,17.93-17.93,17.93-17.93-8.03-17.93-17.93,8.03-17.93,17.93-17.93Zm-63.9,16.13c-.76-3.43,1.4-6.83,4.82-7.59,3.43-.76,6.83,1.4,7.59,4.82.76,3.43-1.4,6.83-4.82,7.59-3.43.76-6.83-1.4-7.59-4.82Zm-31.14,20.08c0-6.17,5-11.17,11.17-11.17s11.17,5,11.17,11.17-5,11.17-11.17,11.17-11.17-5-11.17-11.17Zm115.72,1.86c0-6.17,5-11.17,11.17-11.17s11.17,5,11.17,11.17-5,11.17-11.17,11.17-11.17-5-11.17-11.17Z"/>
  </g>
  <g class="cls-2">
    <path class="cls-5" d="m929.66,677.31c-1.67-4.54.47-9.62,4.9-11.56,52.03-22.8,84.61-74.96,81.81-132.4-2.55-52.39-34.43-98.27-82.02-119.11-4.41-1.93-6.5-7.02-4.84-11.54h0c1.83-4.99,7.48-7.41,12.33-5.28,53.91,23.65,90.01,75.65,92.9,135.03,1.65,33.81-7.45,66.47-26.3,94.47-16.39,24.33-39.72,43.82-66.42,55.63-4.87,2.15-10.54-.25-12.38-5.24h0Z"/>
  </g>
  <g class="cls-2">
    <path class="cls-5" d="m923.96,624.66c-1.02-2.79.29-5.9,3.01-7.09,31.91-13.98,51.89-45.98,50.18-81.21-1.57-32.14-21.12-60.28-50.3-73.06-2.7-1.18-3.98-4.3-2.97-7.08h0c1.12-3.06,4.59-4.54,7.57-3.24,33.06,14.51,55.21,46.4,56.98,82.82,1.01,20.74-4.57,40.77-16.13,57.94-10.05,14.92-24.36,26.87-40.74,34.12-2.98,1.32-6.47-.15-7.59-3.22h0Z"/>
  </g>
  <g class="cls-2">
    <path class="cls-5" d="m908.22,589.92c-.59-1.61.17-3.4,1.73-4.09,18.42-8.07,29.95-26.53,28.96-46.86-.9-18.55-12.19-34.79-29.03-42.16-1.56-.68-2.3-2.48-1.71-4.08h0c.65-1.77,2.65-2.62,4.37-1.87,19.08,8.37,31.86,26.78,32.89,47.8.58,11.97-2.64,23.53-9.31,33.44-5.8,8.61-14.06,15.51-23.51,19.69-1.72.76-3.73-.09-4.38-1.86h0Z"/>
  </g>
  <g class="cls-2">
    <path class="cls-5" d="m143.56,396.75c1.67,4.54-.47,9.62-4.9,11.56-52.03,22.8-84.61,74.96-81.81,132.4,2.55,52.39,34.43,98.27,82.02,119.11,4.41,1.93,6.5,7.02,4.84,11.54h0c-1.83,4.99-7.48,7.41-12.33,5.28-53.91-23.65-90.01-75.65-92.9-135.03-1.65-33.81,7.45-66.47,26.3-94.47,16.39-24.33,39.72-43.82,66.42-55.63,4.87-2.15,10.54.25,12.38,5.24h0Z"/>
  </g>
  <g class="cls-2">
    <path class="cls-5" d="m149.26,449.4c1.02,2.79-.29,5.9-3.01,7.09-31.91,13.98-51.89,45.98-50.18,81.21,1.57,32.14,21.12,60.28,50.3,73.06,2.7,1.18,3.98,4.3,2.97,7.08h0c-1.12,3.06-4.59,4.54-7.57,3.24-33.06-14.51-55.21-46.4-56.98-82.82-1.01-20.74,4.57-40.77,16.13-57.94,10.05-14.92,24.36-26.87,40.74-34.12,2.98-1.32,6.47.15,7.59,3.22h0Z"/>
  </g>
  <g class="cls-2">
    <path class="cls-5" d="m165,484.14c.59,1.61-.17,3.4-1.73,4.09-18.42,8.07-29.95,26.53-28.96,46.86.9,18.55,12.19,34.79,29.03,42.16,1.56.68,2.3,2.48,1.71,4.08h0c-.65,1.77-2.65,2.62-4.37,1.87-19.08-8.37-31.86-26.78-32.89-47.8-.58-11.97,2.64-23.53,9.31-33.44,5.8-8.61,14.06-15.51,23.51-19.69,1.72-.76,3.73.09,4.38,1.86h0Z"/>
  </g>
  <g class="cls-6">
    <path class="cls-5" d="m303.54,709.67l49.7,84.55c1.56,2.65-.34,5.99-3.41,6.01l-98.07.77c-3.07.02-5.02-3.29-3.5-5.96l48.37-85.31c1.52-2.67,5.36-2.7,6.91-.05Z"/>
    <path class="cls-5" d="m427.58,708.7l49.7,84.55c1.56,2.65-.34,5.99-3.41,6.01l-98.07.77c-3.07.02-5.02-3.29-3.5-5.96l48.37-85.31c1.52-2.67,5.36-2.7,6.91-.05Z"/>
    <path class="cls-5" d="m553.48,707.71l49.7,84.55c1.56,2.65-.34,5.99-3.41,6.01l-98.07.77c-3.07.02-5.02-3.29-3.5-5.96l48.37-85.31c1.52-2.67,5.36-2.7,6.91-.05Z"/>
    <path class="cls-5" d="m683.09,706.7l49.7,84.55c1.56,2.65-.34,5.99-3.41,6.01l-98.07.77c-3.07.02-5.02-3.29-3.5-5.96l48.37-85.31c1.52-2.67,5.36-2.7,6.91-.05Z"/>
    <path class="cls-5" d="m801.55,705.77l49.7,84.55c1.56,2.65-.34,5.99-3.41,6.01l-98.07.77c-3.07.02-5.02-3.29-3.5-5.96l48.37-85.31c1.52-2.67,5.36-2.7,6.91-.05Z"/>
    <path class="cls-5" d="m244.38,870.36l616.77-4.83-.5-64.19-616.77,4.83.5,64.19Zm64.05-55.86c10.23-.08,18.59,8.15,18.67,18.38s-8.15,18.59-18.38,18.67c-10.23.08-18.59-8.15-18.67-18.38-.08-10.23,8.15-18.59,18.38-18.67Zm157.26,19.89c-1.39-6.01,2.36-12.01,8.37-13.4,6.01-1.39,12.01,2.36,13.4,8.37s-2.36,12.01-8.37,13.4c-6.01,1.39-12.01-2.36-13.4-8.37Zm-88.07,24.15c-10.23.08-18.59-8.15-18.67-18.38s8.15-18.59,18.38-18.67,18.59,8.15,18.67,18.38-8.15,18.59-18.38,18.67Zm-122.68-6.56c-.05-6.08,4.84-11.05,10.92-11.09s11.05,4.84,11.09,10.92-4.84,11.05-10.92,11.09-11.05-4.84-11.09-10.92Zm154.79,8.78c-.79-3.42,1.34-6.84,4.76-7.63,3.42-.79,6.84,1.34,7.63,4.76.79,3.42-1.34,6.84-4.76,7.63-3.42.79-6.84-1.34-7.63-4.76Zm105.24-20.7c-.1-13.21,10.52-24,23.73-24.11s24,10.52,24.11,23.73c.1,13.21-10.52,24-23.73,24.11s-24-10.52-24.11-23.73Zm103.11-11.98c.05,6.17-4.91,11.21-11.08,11.26s-11.21-4.91-11.26-11.08,4.91-11.21,11.08-11.26,11.21,4.91,11.26,11.08Zm73.6-9.06c6.17-.05,11.21,4.91,11.26,11.08s-4.91,11.21-11.08,11.26-11.21-4.91-11.26-11.08,4.91-11.21,11.08-11.26Zm-78.05,30.15c-.05-6.17,4.91-11.21,11.08-11.26s11.21,4.91,11.26,11.08-4.91,11.21-11.08,11.26-11.21-4.91-11.26-11.08Zm141.06,7.43c-9.9.08-18-7.89-18.07-17.79s7.89-18,17.79-18.07,18,7.89,18.07,17.79-7.89,18-17.79,18.07Zm63.77-16.63c.79,3.42-1.34,6.84-4.76,7.63-3.42.79-6.84-1.34-7.63-4.76-.79-3.42,1.34-6.84,4.76-7.63,3.42-.79,6.84,1.34,7.63,4.76Zm30.98-20.33c.05,6.17-4.91,11.21-11.08,11.26s-11.21-4.91-11.26-11.08,4.91-11.21,11.08-11.26,11.21,4.91,11.26,11.08Zm-115.73-.95c.05,6.17-4.91,11.21-11.08,11.26s-11.21-4.91-11.26-11.08,4.91-11.21,11.08-11.26,11.21,4.91,11.26,11.08Z"/>
  </g>
</svg>