<?xml version="1.0" encoding="UTF-8"?>
<svg id="Livello_1" data-name="Livello 1" xmlns="http://www.w3.org/2000/svg" viewBox="0 0 1080 1080">
  <defs>
    <style>
      .cls-1 {
        opacity: .83;
      }

      .cls-2 {
        fill: #209ebc;
      }

      .cls-2, .cls-3, .cls-4, .cls-5 {
        stroke-width: 0px;
      }

      .cls-6 {
        opacity: .05;
      }

      .cls-3 {
        fill: #ffed00;
      }

      .cls-4 {
        fill: #fff;
      }

      .cls-5 {
        fill: #1d1d1b;
      }
    </style>
  </defs>
  <path class="cls-2" d="m752.83,1017.86l-428.95-1.23c-37.73-.11-72.54-20.34-91.31-53.07L19.15,591.47c-18.77-32.73-18.66-72.99.3-105.61L234.99,114.99c18.96-32.62,53.88-52.65,91.61-52.54l428.95,1.23c37.73.11,72.54,20.34,91.31,53.07l213.41,372.09c18.77,32.73,18.66,72.99-.3,105.61l-215.54,370.87c-18.96,32.62-53.88,52.65-91.61,52.54Z"/>
  <g class="cls-6">
    <path class="cls-4" d="m344.69,666.34c.55-.31,1.11-.58,1.68-.81,1.17-.47,1.91-1.61,1.87-2.87,0-.15,0-.3,0-.45l.18-66.16c.01-4.75,2.56-9.13,6.68-11.49l57.39-32.92c4.12-2.36,9.18-2.35,13.29.04l57.2,33.24c4.1,2.39,6.62,6.78,6.61,11.53l-.18,66.16c-.01,4.75-2.56,9.13-6.68,11.49l-57.39,32.92c-.55.31-1.11.58-1.68.81-1.17.47-1.91,1.61-1.87,2.87,0,.15,0,.3,0,.45l-.14,51.26c0,2.05,2.05,3.47,3.96,2.74,1.09-.42,2.15-.92,3.18-1.51l98.32-56.4c7.05-4.05,11.41-11.55,11.44-19.68l.31-113.34c.02-8.13-4.3-15.66-11.33-19.74l-98-56.94c-7.03-4.09-15.71-4.11-22.76-.06l-98.32,56.4c-7.05,4.05-11.41,11.55-11.44,19.68l-.31,113.34c0,.73.03,1.46.1,2.19.2,2.11,2.52,3.3,4.36,2.24l43.53-24.97Z"/>
    <path class="cls-4" d="m658.1,364.08l.8,101.81c.08,10.67-5.53,20.57-14.73,25.98l-87.77,51.59c-9.2,5.41-20.58,5.5-29.86.23l-88.56-50.21c-9.28-5.26-15.05-15.08-15.13-25.75l-.8-101.81c-.08-10.67,5.53-20.57,14.73-25.98l87.77-51.59c9.2-5.41,20.58-5.5,29.86-.23l88.56,50.21c9.28,5.26,15.05,15.08,15.13,25.75Z"/>
    <path class="cls-4" d="m783.44,573.04l.8,101.81c.08,10.67-5.53,20.57-14.73,25.98l-87.77,51.59c-9.2,5.41-20.58,5.5-29.86.23l-88.56-50.21c-9.28-5.26-15.05-15.08-15.13-25.75l-.8-101.81c-.08-10.67,5.53-20.57,14.73-25.98l87.77-51.59c9.2-5.41,20.58-5.5,29.86-.23l88.56,50.21c9.28,5.26,15.05,15.08,15.13,25.75Z"/>
  </g>
  <g class="cls-1">
    <path class="cls-5" d="m388.03,960.89c.08-15.2,8.99-26.11,23.79-27.84,4.83-.57,5.4-2.36,5.19-6.33-.25-4.7-.2-9.45.16-14.15,1.16-14.94,12.18-25.14,27.23-25.18,25.11-.07,50.22-.14,75.32.09,4.64.04,6.48-.82,6.12-5.88-.49-6.83-.14-13.73-.1-20.59.09-16.08,10.22-27.36,26.26-26.84,9.81.32,14.55-3.59,19.54-11.32,62.04-95.98,124.43-191.73,186.85-287.47,2.54-3.89,3.27-6.2-1.53-8.68-4.15-2.14-7.9-5.1-11.75-7.8-4.31-3.01-7.27-7.13-6.5-12.45.55-3.76-.74-5.13-3.78-6.7-47.87-24.74-95.67-49.61-143.48-74.45-31.11-16.17-62.23-32.33-93.32-48.55-3.09-1.61-5.56-2.77-9.22-.48-4.53,2.84-8.65.44-11.83-3.32-12.06-14.23-24.13-28.46-36.07-42.79-1.84-2.21-3.82-3.91-6.49-5-18.57-7.65-37.17-15.24-55.63-23.16-3.84-1.65-5.89-1.4-6.89,2.77-.05.2-.19.38-.3.57-8.1,13.89-10.35,28.68-9.92,44.82,1.28,48.47,1.31,96.98,1.82,145.47.01,1.23,0,2.46,0,4.36-21.27-9.7-42.04-19.13-62.77-28.63-57.91-26.54-115.8-53.12-173.71-79.65-.5-.23-1.16-.09-1.75-.13,0-.43,0-.86,0-1.29.55-.07,1.28.06,1.64-.25,42.54-35.98,85.05-72,127.58-107.99,2.21-1.87,3.46-4.26,4.62-6.8,11.16-24.49,22.35-48.97,33.51-73.47,10.95-24.02,30.71-31.62,54.74-20.4,5.67,2.65,7.53,1.63,10.04-3.81,3.74-8.1,5.85-17.41,13.89-23h6.44c9.3,6.19,10.17,9.6,5.09,20.1-2.05,4.23-3.84,8.62-6.28,12.62-2.66,4.37-2.35,6.34,2.87,8.65,20.21,8.96,28.07,30.16,19.18,50.4-4.22,9.59-8.36,19.24-13.18,28.54-2.41,4.65-.92,5.94,3.2,7.61,17.25,6.96,34.39,14.17,51.51,21.44,3.14,1.34,6,1.52,9.3.68,18.04-4.58,36.11-9.05,54.21-13.41,8.35-2.01,15.41,2.26,13.72,8.95-1.58,6.21,1.7,7.2,5.63,9.11,96.69,47.07,193.39,94.13,289.96,141.45,5.19,2.54,8.86,2.08,13.45-.66,11.48-6.85,17.51-5.21,24.02,5.92v23.18c-2.49,1.37-1.39,3.84-1.51,5.75-1.61,25.47-3.02,50.96-4.58,76.43-.48,7.82-5.79,13.05-13,13.21-4.62.1-8.27-2.23-11.5-5.05-4.09-3.58-6.24-3.36-9.43,1.67-54.33,85.63-108.92,171.1-163.4,256.64-1.08,1.7-2.96,3.16-2.59,6,2.13,0,4.26-.09,6.38.01,16.18.77,25.95,11.02,26.01,27.28.02,6.65.3,13.32-.11,19.95-.3,4.92.98,6.5,6.24,6.43,24.67-.32,49.35-.19,74.03-.11,14.42.05,24.97,8.97,26.99,23.28.83,5.9.41,11.97.59,17.97.06,1.79-.65,3.8,2.42,4.23,16.14,2.3,23.41,12.59,24.82,28.01h-423.75Zm412.43-496.4c-28.96-14.13-56.8-27.75-84.66-41.31-66.87-32.56-133.76-65.08-200.6-97.71-3.42-1.67-5.25-2.47-6.58,2.35-2.21,8.01-5.16,15.83-8.04,23.64-1.19,3.23-.52,4.89,2.64,6.39,7.34,3.49,14.5,7.36,21.71,11.1,75.9,39.42,151.8,78.85,227.71,118.27,1.77.92,3.21,2.42,5.73.97,13.69-7.87,27.51-15.52,42.09-23.7Zm-213.97,369.3c8.92,0,16.63-.26,24.31.1,4.39.2,6.8-1.31,9.18-5.06,55.62-87.56,111.4-175.03,167.14-262.51,2.64-4.14,7.5-8.52,7.18-12.46-.37-4.64-7.62-5.89-11.3-9.32-4.42-4.13-6.73-2.76-9.8,1.99-43,66.45-86.2,132.77-129.36,199.12-18.87,29.02-37.76,58.03-57.36,88.15ZM319.68,284.06c2.73-.1,4.11-1.81,5.14-4.12,9-20.27,18.01-40.54,27.1-60.77,1.55-3.45,1.59-6.35-2.31-7.88-3.67-1.44-5.44.93-6.77,3.96-4.28,9.77-8.61,19.52-12.95,29.27-4.68,10.52-9.46,21-14.05,31.55-1.86,4.27,0,7.83,3.85,8Zm11.41-80.13c-2.21.45-3.65,1.62-4.49,3.51-9.27,20.86-18.51,41.74-27.84,62.58-1.48,3.31-.33,5.49,2.55,6.78,2.8,1.26,5.1.05,6.32-2.67,9.4-21.02,18.8-42.05,28.04-63.14,1.56-3.56-1.23-7.31-4.57-7.06Zm6.31,86.95c2.91-.55,4.1-2.79,5.16-5.19,3.95-8.96,7.9-17.92,11.88-26.87,4.5-10.12,9.07-20.21,13.52-30.35,1.57-3.59,4.68-7.95-.94-10.34-5.11-2.17-6.32,2.61-7.86,6.1-.52,1.16-1.13,2.28-1.65,3.45-8.03,18.11-16.08,36.21-24.05,54.34-2.2,5.01-.26,9.18,3.95,8.87Zm489.67,172.88c-3.92.45-7.09,3.01-7.45,8.28-.32,4.73,3.94,9.17,8.57,9.2,4.64.03,9.08-4.52,8.9-9.12-.17-4.36-4.38-8.34-10.03-8.36Zm-59.81,49.54c4.76-.17,8.86-4.6,8.36-9.37-.55-5.19-3.54-8.02-8.87-7.99-4.51.03-8.59,4.12-8.62,8.51-.04,4.63,4.49,9.01,9.14,8.85Zm61.68,29.51c.05-4.67-3.75-8.6-8.45-8.75-4.58-.14-8.67,3.7-8.87,8.31-.22,5.08,3.64,9.06,8.71,9,4.72-.05,8.56-3.88,8.61-8.57Zm-340.49-187.4c-.79-3.82-2.81-6.43-6.9-6.18-4.02.25-6.2,2.76-5.91,6.85.27,3.75,2.49,5.84,6.3,5.8,4.17-.05,6-2.63,6.51-6.48Zm-34.65-42.36c-4.04.42-6.58,2.38-6.64,6.48-.06,3.72,1.99,6.07,5.77,6.38,4.16.34,6.65-2.12,6.95-5.91.32-3.97-2.48-6.04-6.09-6.94Zm44.25-.01c2.97-.77,5.6-2.89,5.24-6.86-.32-3.46-2.59-5.97-6.39-5.92-4.07.06-6.45,2.68-6.37,6.52.09,3.87,2.62,6.12,7.51,6.25Z"/>
    <path class="cls-5" d="m827.06,463.76c5.65.02,9.86,4,10.03,8.36.18,4.59-4.27,9.15-8.9,9.12-4.63-.03-8.89-4.47-8.57-9.2.35-5.27,3.52-7.83,7.45-8.28Z"/>
    <path class="cls-5" d="m767.26,513.3c-4.65.17-9.18-4.22-9.14-8.85.04-4.39,4.11-8.49,8.62-8.51,5.33-.03,8.32,2.8,8.87,7.99.5,4.77-3.6,9.2-8.36,9.37Z"/>
    <path class="cls-5" d="m828.93,542.81c-.05,4.69-3.9,8.52-8.61,8.57-5.07.06-8.93-3.93-8.71-9,.2-4.61,4.29-8.45,8.87-8.31,4.71.14,8.51,4.07,8.45,8.75Z"/>
    <path class="cls-5" d="m488.44,355.41c-.51,3.85-2.34,6.43-6.51,6.48-3.81.04-6.03-2.05-6.3-5.8-.29-4.09,1.89-6.6,5.91-6.85,4.09-.26,6.11,2.36,6.9,6.18Z"/>
    <path class="cls-5" d="m453.79,313.05c3.6.9,6.41,2.98,6.09,6.94-.31,3.79-2.8,6.25-6.95,5.91-3.78-.31-5.83-2.66-5.77-6.38.06-4.09,2.6-6.06,6.64-6.48Z"/>
    <path class="cls-5" d="m498.04,313.04c-4.9-.13-7.43-2.38-7.51-6.25-.09-3.85,2.3-6.46,6.37-6.52,3.79-.06,6.07,2.46,6.39,5.92.37,3.97-2.27,6.09-5.24,6.86Z"/>
  </g>
  <rect class="cls-4" x="69.72" y="512.11" width="22.25" height="91.35"/>
  <polygon class="cls-3" points="130.36 586.28 159.51 586.28 159.51 603.45 108.11 603.45 108.11 512.11 130.36 512.11 130.36 586.28"/>
  <polygon class="cls-3" points="192.43 586.28 221.57 586.28 221.57 603.45 170.18 603.45 170.18 512.11 192.43 512.11 192.43 586.28"/>
  <path class="cls-3" d="m254.1,512.11v54.65c0,5.47,1.34,9.67,4.03,12.62,2.69,2.95,6.64,4.42,11.84,4.42s9.19-1.47,11.97-4.42c2.78-2.95,4.16-7.16,4.16-12.62v-54.65h22.25v54.52c0,8.16-1.74,15.05-5.21,20.69-3.47,5.64-8.13,9.89-13.99,12.75-5.86,2.86-12.38,4.29-19.58,4.29s-13.64-1.41-19.32-4.23c-5.68-2.82-10.17-7.07-13.47-12.75-3.3-5.68-4.94-12.6-4.94-20.75v-54.52h22.25Z"/>
  <polygon class="cls-4" points="427.43 512.11 427.43 603.45 405.18 603.45 405.18 548.67 384.75 603.45 366.79 603.45 346.23 548.54 346.23 603.45 323.98 603.45 323.98 512.11 350.26 512.11 375.9 575.35 401.27 512.11 427.43 512.11"/>
  <rect class="cls-4" x="443.43" y="512.11" width="22.25" height="91.35"/>
  <polygon class="cls-4" points="563.54 603.45 541.28 603.45 504.07 547.11 504.07 603.45 481.82 603.45 481.82 512.11 504.07 512.11 541.28 568.71 541.28 512.11 563.54 512.11 563.54 603.45"/>
  <path class="cls-4" d="m632.5,512.11h-25.76l-33.05,91.35h23.29l5.47-16.14h34.09l5.47,16.14h23.55l-33.05-91.35Zm-24.2,58.04l11.19-33.44,11.32,33.44h-22.51Z"/>
  <polygon class="cls-4" points="699.26 585.24 738.55 585.24 738.55 603.45 674.01 603.45 674.01 586.54 713.05 530.33 674.01 530.33 674.01 512.11 738.55 512.11 738.55 529.02 699.26 585.24"/>
  <rect class="cls-4" x="753.13" y="512.11" width="22.25" height="91.35"/>
  <path class="cls-4" d="m875.25,533.45c-4.12-7.11-9.76-12.66-16.92-16.66-7.16-3.99-15.03-5.99-23.62-5.99s-16.46,2-23.62,5.99c-7.16,3.99-12.84,9.54-17.05,16.66-4.21,7.11-6.31,15.14-6.31,24.07s2.1,16.98,6.31,24.14c4.21,7.16,9.89,12.73,17.05,16.72,7.16,3.99,15.03,5.99,23.62,5.99s16.44-1.99,23.55-5.99c7.11-3.99,12.75-9.56,16.92-16.72s6.25-15.2,6.25-24.14-2.06-16.96-6.18-24.07Zm-23.03,43.33c-4.38,4.86-10.21,7.29-17.5,7.29s-13.25-2.41-17.63-7.22c-4.38-4.81-6.57-11.26-6.57-19.32s2.19-14.62,6.57-19.39c4.38-4.77,10.26-7.16,17.63-7.16s13.12,2.41,17.5,7.22c4.38,4.81,6.57,11.26,6.57,19.32s-2.19,14.4-6.57,19.26Z"/>
  <polygon class="cls-4" points="975.51 603.45 953.25 603.45 916.04 547.11 916.04 603.45 893.79 603.45 893.79 512.11 916.04 512.11 953.25 568.71 953.25 512.11 975.51 512.11 975.51 603.45"/>
  <polygon class="cls-4" points="1013.89 529.93 1013.89 548.41 1043.69 548.41 1043.69 565.59 1013.89 565.59 1013.89 585.63 1047.59 585.63 1047.59 603.45 991.64 603.45 991.64 512.11 1047.59 512.11 1047.59 529.93 1013.89 529.93"/>
</svg>