<?xml version="1.0" encoding="UTF-8"?>
<svg id="Livello_1" data-name="Livello 1" xmlns="http://www.w3.org/2000/svg" xmlns:xlink="http://www.w3.org/1999/xlink" viewBox="0 0 1080 1080">
  <defs>
    <style>
      .cls-1 {
        fill: #1d1d1b;
        opacity: .87;
      }

      .cls-1, .cls-2, .cls-3, .cls-4, .cls-5, .cls-6 {
        stroke-width: 0px;
      }

      .cls-7 {
        opacity: .05;
      }

      .cls-2 {
        fill: #575756;
        fill-rule: evenodd;
      }

      .cls-3 {
        fill: none;
      }

      .cls-4 {
        fill: #cb473f;
      }

      .cls-5 {
        fill: #fff;
      }

      .cls-8 {
        clip-path: url(#clippath);
      }

      .cls-6 {
        fill: #fab615;
        opacity: .72;
      }
    </style>
    <clipPath id="clippath">
      <path class="cls-3" d="m1833.11,1027.63l-428.95-1.23c-37.73-.11-72.54-20.34-91.31-53.07l-213.41-372.09c-18.77-32.73-18.66-72.99.3-105.61l215.54-370.87c18.96-32.62,53.88-52.65,91.61-52.54l428.95,1.23c37.73.11,72.54,20.34,91.31,53.07l213.41,372.09c18.77,32.73,18.66,72.99-.3,105.61l-215.54,370.87c-18.96,32.62-53.88,52.65-91.61,52.54Z"/>
    </clipPath>
  </defs>
  <path class="cls-4" d="m753.11,1027.63l-428.95-1.23c-37.73-.11-72.54-20.34-91.31-53.07L19.44,601.25c-18.77-32.73-18.66-72.99.3-105.61L235.28,124.77c18.96-32.62,53.88-52.65,91.61-52.54l428.95,1.23c37.73.11,72.54,20.34,91.31,53.07l213.41,372.09c18.77,32.73,18.66,72.99-.3,105.61l-215.54,370.87c-18.96,32.62-53.88,52.65-91.61,52.54Z"/>
  <g class="cls-7">
    <path class="cls-5" d="m344.22,666.34c.55-.31,1.11-.58,1.68-.81,1.17-.47,1.91-1.61,1.87-2.87,0-.15,0-.3,0-.45l.18-66.16c.01-4.75,2.56-9.13,6.68-11.49l57.39-32.92c4.12-2.36,9.18-2.35,13.29.04l57.2,33.24c4.1,2.39,6.62,6.78,6.61,11.53l-.18,66.16c-.01,4.75-2.56,9.13-6.68,11.49l-57.39,32.92c-.55.31-1.11.58-1.68.81-1.17.47-1.91,1.61-1.87,2.87,0,.15,0,.3,0,.45l-.14,51.26c0,2.05,2.05,3.47,3.96,2.74,1.09-.42,2.15-.92,3.18-1.51l98.32-56.4c7.05-4.05,11.41-11.55,11.44-19.68l.31-113.34c.02-8.13-4.3-15.66-11.33-19.74l-98-56.94c-7.03-4.09-15.71-4.11-22.76-.06l-98.32,56.4c-7.05,4.05-11.41,11.55-11.44,19.68l-.31,113.34c0,.73.03,1.46.1,2.19.2,2.11,2.52,3.3,4.36,2.24l43.53-24.97Z"/>
    <path class="cls-5" d="m657.63,364.08l.8,101.81c.08,10.67-5.53,20.57-14.73,25.98l-87.77,51.59c-9.2,5.41-20.58,5.5-29.86.23l-88.56-50.21c-9.28-5.26-15.05-15.08-15.13-25.75l-.8-101.81c-.08-10.67,5.53-20.57,14.73-25.98l87.77-51.59c9.2-5.41,20.58-5.5,29.86-.23l88.56,50.21c9.28,5.26,15.05,15.08,15.13,25.75Z"/>
    <path class="cls-5" d="m782.97,573.04l.8,101.81c.08,10.67-5.53,20.57-14.73,25.98l-87.77,51.59c-9.2,5.41-20.58,5.5-29.86.23l-88.56-50.21c-9.28-5.26-15.05-15.08-15.13-25.75l-.8-101.81c-.08-10.67,5.53-20.57,14.73-25.98l87.77-51.59c9.2-5.41,20.58-5.5,29.86-.23l88.56,50.21c9.28,5.26,15.05,15.08,15.13,25.75Z"/>
  </g>
  <g>
    <path class="cls-5" d="m327.42,490.23v22.73h-30.86v93.75h-28.37v-93.75h-30.86v-22.73h90.1Z"/>
    <path class="cls-5" d="m414.2,586.14h-43.47l-6.97,20.58h-29.7l42.15-116.48h32.85l42.15,116.48h-30.03l-6.97-20.58Zm-7.3-21.9l-14.44-42.64-14.27,42.64h28.71Z"/>
    <path class="cls-5" d="m573.33,490.23l-41.32,116.48h-35.51l-41.32-116.48h30.2l28.87,87.94,29.04-87.94h30.03Z"/>
    <path class="cls-5" d="m610.08,600.24c-9.13-5.09-16.37-12.2-21.74-21.32-5.37-9.13-8.05-19.39-8.05-30.78s2.68-21.62,8.05-30.7c5.36-9.07,12.61-16.15,21.74-21.24,9.13-5.09,19.16-7.63,30.12-7.63s20.99,2.55,30.12,7.63c9.13,5.09,16.32,12.17,21.57,21.24,5.25,9.07,7.88,19.3,7.88,30.7s-2.65,21.65-7.96,30.78c-5.31,9.13-12.5,16.23-21.57,21.32-9.07,5.09-19.08,7.63-30.03,7.63s-20.99-2.54-30.12-7.63Zm52.43-27.54c5.58-6.19,8.38-14.38,8.38-24.56s-2.79-18.5-8.38-24.64c-5.59-6.14-13.03-9.21-22.32-9.21s-16.9,3.04-22.48,9.13c-5.59,6.08-8.38,14.33-8.38,24.72s2.79,18.5,8.38,24.64c5.58,6.14,13.08,9.21,22.48,9.21s16.73-3.1,22.32-9.29Z"/>
    <path class="cls-5" d="m743.9,584.81h37.17v21.9h-65.54v-116.48h28.37v94.58Z"/>
    <path class="cls-5" d="m823.04,490.23v116.48h-28.37v-116.48h28.37Z"/>
  </g>
  <path class="cls-1" d="m838.99,620H237.79c-2.45,0-4.44,2.19-4.44,4.9v1.98c0,2.49,1.7,4.59,3.94,4.87l132.12,16.59c.18.02.37.03.55.03h.95s-103.58,291.03-103.58,291.03l4.35,1.61,135-293.07,131.72-1.52,131.72,1.52,135,293.07,4.35-1.61-103.58-291.04h.95c.18.01.37,0,.55-.02l132.12-16.59c2.24-.28,3.94-2.38,3.94-4.87v-1.98c0-2.71-1.99-4.9-4.44-4.9Zm-494.6,138.85c-.85,1.58,1.54-16.46,2.19-18.2l34.66-92.42,18.04-.21-54.89,110.82Zm385.79-18.2c.65,1.74,3.04,19.78,2.19,18.2l-54.89-110.82,18.04.21,34.66,92.42Z"/>
  <g class="cls-8">
    <path class="cls-2" d="m1001.18,1047.6c.19-65.64.38-131.3.56-196.94,3.09-6.16,11.12-13.31,15.18-19.76,10.86-17.28,17.52-37.53,21.78-61.51,4.8-27.02,3-70.36-12-83.21-4.97-4.25-6.93-10.01-16.9-7.61-9.19,12.3-5.17,40.87-2.68,57.6,1.53,10.28-.49,22.41-2.25,30.6-.97,4.56-1.95,9.12-2.92,13.67.16-56.88.33-113.78.49-170.66,6.95,1.52,13.21,6.48,18.33,10.13,26.11,18.64,40.02,44.08,46.93,82.23,4.69,25.89-1.76,56.51,10.95,73.48,14.08,18.8,57.55,12.33,82.07,6.72,7.95-1.82,19.94-5.54,29.9-3.88,35.93,6.01,58.35,20.05,83.07,36.6,13.13,8.79,41.52,26.52,66.18,22.51,8.61-1.4,16.67-1.71,24.14-4.25,23.14-7.87,41.53-20.64,63.81-29.34,16.37-6.39,33.8-6.93,54.4-10.29,11.81-1.92,26.91.12,37.08,1.91,27.59,4.84,52.64,7.16,78.82,12.11,24.38,4.61,51.06.98,65.56-9.53,44.25-32.11,10.79-106.8-.66-148.34-2.62-9.53-6.34-23.3-4.22-35.66,5.33-30.96,21.7-42.56,36.9-62.54,9.16-12.81,18.32-25.63,27.47-38.45,21.48-30.75,63.43-43.32,100.98-58.04,30.16-12.39,60.32-24.79,90.48-37.19,15.1-6.14,48.84-22.25,70.98-18.52,17.31,2.92,31.26,5.52,45.33,11.29,19.89,9.42,39.79,18.84,59.69,28.25,11.58,4.58,23.92,4.97,37.42,8.03,15.73,3.57,27.68,9.08,38.84,16.67,2.44,1.66,9.57,5.6,11.14,7.59-.15,53.52-.31,107.06-.46,160.58l-1.08,1.44c-1.43-4.32-2.86-8.65-4.28-12.97-2.25-8.89-4.51-17.78-6.76-26.66-9.5-38.38-10.38-79.76-37.16-100.56-26.76-20.79-68.07-25.12-108.28-32.71-42.01-7.94-135.35-10.28-146.97,23.34-5.32,15.4,17.89,23.09,32.35,19.17,17.22-4.66,33.07-12.24,51.53-16.42,36.96-8.35,82.54-3.35,108.7,12.19,36.86,21.9,51.86,57.44,65.6,102.44,5.3,17.37,9,34.5,15.7,50.45,5.33,12.69,11.83,25.01,19.7,35.34,2.91,3.82,8.24,6.95,10.77,10.83-.07,25.8-.15,51.61-.22,77.41-6.3-1.6-13.48-10.47-17.24-15.17-6-7.5-12.97-14.41-18.66-22.38-6.87-9.63-11.26-21.43-16.11-32.81-14.5-34.01-27.3-71.78-41.83-105.25-16.34-37.65-23.42-63.06-65.67-75.8-45.28-13.65-90.76,7.9-127.14,15.48-23.41,4.88-47.49-1.26-66.59-5.59-10.6-2.4-55.98-7.04-51.51,9.57,3.92,14.6,46.22,13.98,64.04,17.11,60.17,10.54,123.38-21.59,169.91,11.65,7.23,5.16,13.65,11.52,16.14,21.29,7.66,30.01-25.37,21.5-39.29,15.73-16.33-6.76-30.1-15.33-49.99-18.87-16.56-2.94-37.08,5.57-52.59,8.13-11.94,1.97-25.25-1.16-34.92-2.98-14.16-1.84-28.31-3.68-42.47-5.52-28.43-5.11-66.07-3.5-83.92,8.4-24.63,16.42-14.63,46.54-5.96,71.27,18.08,51.64,28.82,123.72-16.65,155.13-30.18,20.85-84.53,26.28-133.63,17.26-15.48-1.72-30.96-3.45-46.43-5.17-7.44-.5-14.88-1-22.32-1.5-7.32.58-14.65,1.16-21.97,1.74-19.53,4.05-35.49,11.37-49.39,21.1-14.69,10.29-38.09,32.67-65.97,27.9-27.23-4.66-46.55-12.94-65.82-25.03-13.09-8.21-25.44-18.12-40.62-24.24-12.94-5.22-27.73-5.31-43.9-8.05-5.28-.14-10.56-.27-15.84-.41-11.2-1.83-24.18.8-36.36-1.18-20.71-3.38-57.03,1.26-72.75,5.91-21.75,6.44-36.76,20.27-42.25,43.09-2.16,8.97-1.5,20.33-1.53,30.96l-.15,51.49-.06,21.6c-3.43,19.05-10.89,34.53-19.94,47.83-4.19,6.16-9.8,16.54-16.62,19.76Zm2.35-823.42l.1-35.28c34.62-1.77,62.57-35.1,54.59-77.61-3.51-18.7-10.94-32.43-16.06-48.65-3.24-10.28-4.72-21.16-6.75-32.78-3.68-21.11,4.51-43.27.9-64.09-3.39-19.58-15.53-32.97-31.93-39.34.06-20.16.12-40.33.17-60.49,2.87,3.37,5.74,6.74,8.61,10.11,5.66,7.08,13.52,14.09,20.83,19.5,21.31,15.77,48.55,23.66,79.85,29.75,27.55,5.37,66.84,1.14,74.46,26.14,2.37,7.78.62,18.18-1.87,24.12-5.48,13.09-15.6,20.57-31.39,23.31-6.23,1.08-13.99.53-19.8-.42-25.8-4.22-47.43-.06-54.42,18.21-3.76,9.83-1.16,24.33,1.35,33.13,5.91,20.74,15.79,37.22,19.99,59.47,6.9,36.51-20.12,60.11-11.08,97.18,4.23,17.33,14.23,29.32,23.64,41.47,17.32,22.37,34.84,42.3,63.58,53.47,16.94,6.58,36.71,8.15,55.77,12.4,28.03,6.25,54.77,13,76.26,25.78,26.83,15.96,47.07,37.16,58.13,68.94,2.61,7.51,7.65,33.31,19,28.86,6.12-2.92,8.09-19.04,6.56-29.15-4.13-27.31-11.39-43.29-24.67-60.56-11.48-14.92-27.51-27.05-42.74-38.29-19.58-14.44-38.36-29.38-62.9-39.06-16.18-6.38-34.85-8.48-52.53-13.47-33.36-9.43-55.32-28.46-65.35-61.03-7.08-22.99-6.77-48.67-10.95-75.64-2.24-14.45-3.89-34.23-.94-49.33,2.63-13.42,8.08-25.6,17.02-32.72,10.81-8.61,24.39-12.79,40.73-16.09,9.89-2,19.81-1.91,28.1-5.32,18.37-7.57,28.83-35.77,24.31-64.38-1.42-8.99-3.21-17.25-7.13-23.78-9.82-16.33-29.2-19.65-50.34-24.99-27.49-6.95-55.54-12.48-80.23-22.55-16.35-6.67-32.36-14.43-45.3-24.61-23.39-18.41-38.66-48.85-56.32-72.89.07-24.6.14-49.21.21-73.81,11.06,2.1,20.45,12.62,27.31,19.52,9.98,10.04,19.05,22.26,25.1,36.08,11.38,26,20.26,54.96,41.2,71.41,20.84,16.37,47.02,25.34,76.96,32.98,48.04,12.27,96.51,7.73,105.32,60.07,2.43,14.44-4.73,32.7-8.04,43.18-11.37,35.97-19.91,76.62-46.36,97.44-24.7,19.44-47.27,20.98-55.26,58.89-1.62,7.71-2.53,19.82-.8,28.44,1.21,6.07,2.8,12.6,5.35,17.66,19.82,39.33,62.04,31.5,102.11,48.9,29.93,13,49.63,35.27,73.3,54.22,33.42,26.76,66.75,49.97,78.21,98.88,11.96,51.07-12.24,92.13-29.87,121.97-8.21,13.91-14.39,28.27-22.8,41.34-8.52,13.24-20.56,22.21-31.42,33.03-2.86,2.85-8.45,8.88-5.44,14.03,9.94,2.78,19.5-3.34,25.58-7.13,20.75-12.91,30.67-32.82,42.28-54.97,22.88-43.62,82.21-75.06,66.31-148.15-2.61-9.85-5.22-19.7-7.84-29.55-12.8-33.27-29.65-57.59-57.75-75.42-21.79-13.82-48.47-22.61-68.66-38-23.69-18.06-34.93-47.93-61.39-63.54-10.54-6.22-24.2-7.93-38.5-10.55-10.52-1.93-19.82-1.32-27.35-5.84-15.37-9.23-10.77-30.39,1.19-39.6,10.9-8.39,32.12-16.95,49.71-9.58,10.88,4.56,18.86,14.13,29.11,20.25,13.92,8.31,26.91,17.19,36.64,29.63,10.67,13.63,22.32,32.97,35.52,43.67,8.99,7.28,17,15.6,26.58,22.4,13.66,8.92,27.31,17.84,40.97,26.76,17.24,12.85,30.27,31.2,48.85,42.27,6.28,3.74,18.53,8.33,24.12.79,4.53-6.11,3.3-20.92.8-28.08-7.28-20.85-23.62-32.94-42-42.61-48.95-25.73-85.56-56.21-104.45-111.91-6.9-20.36-12.43-52.03-6.62-78.15,5.9-26.54,20.75-47.03,43.73-56.4,51.1-20.84,125.57,7.74,155.09,31.05,14.73,11.63,21.48,32.18,35.52,43.31,6.68,5.3,16.37,6.51,18.37-4.27,3.19-17.16-12.6-40.18-18.94-49.74-25.55-38.53-49.19-44.2-101.74-55.02-11.4-1.23-22.8-2.47-34.19-3.7-28.95-4.97-65.75-2.46-85,9.12-25.66,15.44-41.01,43.88-50.62,75.47l-8.75,38.86c-3,7.18-11.94,14.53-20.91,7.86-9.09-6.75-10.85-24.92-7.81-40.35,5.89-29.8,12.01-55.5,25.42-77.34,10.79-17.56,25.72-33.15,45.49-41.64,20.97-9,46.94-9.88,63.79-22.5,15.49-11.6,14.2-33.58,19.24-56.11,4.24-15.59,8.49-31.18,12.74-46.77,5.64-17.82,14.58-41.37,9.91-66.22-9.34-49.71-49.94-61.98-74.98-95.27-25.7-34.16-40.72-79.16-67.37-112.53-12.96-16.23-38.81-21.32-54.99-34.36-9.47-7.64-15.91-19.15-22.96-29.23-9.56-12.99-19.13-25.98-28.69-38.97-8.26-10.58-19-21.19-29.44-29.61-5.75-5.18-11.49-10.35-17.24-15.53-5.37-6.71-10.79-13.9-13.62-23.08-2.68-8.73-3.69-21.16-1.71-31.33,5.83-29.92,15.02-40.53,40.11-50.65,8.53-2.26,17.06-4.51,25.58-6.77,72.85-15.23,111.67,34.19,162.24,48.71,29.64,8.51,56.08-8.38,86.78-2.63,28.32,5.3,48.72,16.11,71.21,26.13,41.37,18.43,78.37,44.42,103.11,79.51,8.35,11.84,13.89,23.93,16.8,41.45,2.05,12.33-2.89,30.08-4.8,41.03-4.45,25.47,5.96,45.21,16.04,58.01,22.19,28.19,71.17,43.35,106.41,58.99,19.28,8.56,41.63,18.26,49.94,37.59,5.73,13.32,4.74,32.85-.85,45.72-11.12,25.62-29.08,40.33-36.93,71.54-1.66,6.6-4.18,16.88-2.23,25.56,2.57,11.44,9.95,19.48,15.4,28.13,17.99,28.51,38.94,51.82,76.52,60.71,31.16,7.37,60.17-1.71,82.41,15.72,13.13,10.3,19.54,29.03,22.9,49.03,1.45,8.63.04,21.92-5.11,25.19-6.18,3.92-19-.67-24.12-2.23-14.79-4.51-40.36-14.78-59.38-10.25-11.15,2.66-18.93,10.49-27.77,15.76-13.31,7.93-28.74,14.39-45.06,18.95-82.24,23.03-152.65-20.32-174.41-76.11-13.66-35.01,3.83-77.03,10.75-108.34,2.66-12.01,4.28-38.5-4.56-43.58-12.95-7.44-35.25,17.64-39.68,24.73-13.11,21-10.96,58.72-25.79,77.7-8.24,10.55-20.2,12.01-36.77,14.66-7.59,1.21-16.97.67-23.04-1.87-27.41-11.44-15.07-43.18-2.35-60.13,22.07-29.41,55.88-46.71,75.12-79.36,7.29-12.36,13.35-34.16,7.71-52.91-19.6-65.17-111.1-87.16-159.86-126.47-17.55-14.15-41.11-47.6-30.37-82.18,7.24-23.3,31.62-43.35,62.38-31.15,30.17,11.98,48.88,34.63,82.69,44.16,22.17,6.25,58.98,9.28,68.8-9.88,1.3-2.54,3.33-7.11,2.19-11.88-4.66-19.49-56.95-21.9-77.33-28.3-32.74-10.3-54.5-30.69-84.85-42.73-17.65-7-40.79-4.87-54.74,3.8-9.6,5.97-19.8,15.28-26.71,24.05-8.84,11.21-16.33,23.79-20.99,39.19-8.71,28.72.38,59.53,9.49,80.32,15.94,36.37,40.62,61.02,73.58,80.5,28.51,16.85,71.1,31.32,89.49,57.5,15.4,21.93,8.44,47.62-3.43,67.32-20.05,33.26-75.96,71.27-50.77,128.75,7.21,16.44,20.98,26.41,40.96,30.36,19.77,3.91,44.22-1.59,58.31,7.01,23.46,14.31,29.51,49.63,45.16,71.78,24.43,34.57,64.27,51.67,114.68,60.82,41.74,7.58,87.27-2.33,118.85-12.26,10.27-3.23,33.44-18.45,46.12-11.75,16.2,8.56,21.39,28.24,28.31,46.17,10.79,27.97,22.66,54.46,28.56,86.13,3.31,17.76-5.47,43.95-.17,57.97,3.7,9.78,12.53,14.52,22.63,18.07,4.97,1.75,12.44,4.16,19.44,2.58,12.17-2.76,21.02-16.91,16.66-32.72-4.14-14.99-10.05-29.19-13.91-45.41-3.88-16.32-1.3-33.6-4.17-51.86-2.35-14.91-1.57-44.33.89-59.05,4.04-24.19,5.88-45.22,9.92-69.1.14-7.08.28-14.16.42-21.24,2.5-15.11,1.5-29.94,6.24-42.11,14.06-36.11,39.83-43.95,71.11-62.09,26.8-15.54,48.15-33.48,90.83-33.23-.07,24.6-.14,49.21-.21,73.81-11.01-.19-23.3-1.95-34.2-.1-34.29,5.82-61.67,19.14-77.18,43.71-27.46,43.51-29.25,149.9-11.75,206.27,4.87,15.67,12.38,29.54,21.49,41.11,14.04,17.85,35.11,26.79,58.23,35.81,12.92,5.04,25.24,9.61,37.04,14.87,1.8.61,3.6,1.21,5.4,1.82-.04,12.6-.07,25.2-.11,37.8h-1.08c-18.13-7.36-44.13-17.81-70.89-12.81-29.07,5.43-48.8,18.18-75.68,24.99-24.02,6.08-61.27-2.73-79.9-9.95-13.98-5.42-31.23-13.23-37.01-26.75-5.06-11.82-2.86-29.01-5.28-43.22-5.62-33.04-9.39-59.58-31.11-76.06-31.56-23.95-91.48-45.24-147.89-31.39-24.54,6.03-45.25,13.37-71.34,18.88-9.71,2.05-23.63,3.85-34.93,1.7-29.31-5.58-50.14-20.39-65.42-39.79-5.61-7.13-12.26-14.63-19.38-20.22-16.77-13.15-36.07-21.4-57.88-30.05-38.11-15.11-75.42-5.23-88.65,26.75-10.58,25.57,1.69,55.29,12.76,70.61,18.66,25.82,44.73,46.27,72.55,62.86,18.39,10.96,41.85,15.03,54.64,31.48,27.08,34.83,13.16,74.68,2.91,114.86-1.47,10.2-2.94,20.4-4.41,30.59-.14,6.36-.28,12.72-.41,19.08-.02,8.64-.05,17.28-.07,25.92-.13,4.68-.27,9.36-.4,14.04-.01,5.16-.03,10.32-.04,15.48-1.72,10.32-1.82,20.61-4.41,29.87-6.12,21.93-18.75,57.91-35.84,68.31-8.43,5.13-20.97,5.34-31.35,8.55-11.16,3.46-20.69,9.18-29.21,15.4-30.75,22.45-52.29,56.38-93.09,68.5-31.2,9.27-78.63-5.31-108.39,6.17-20.47,7.9-29.45,21.29-37.56,41.66-2.74,6.89-6.1,19.17-.8,26.28,8.24,11.06,32.97,11.35,46.4,17.05,20.78,8.82,39.33,19.37,64.02,24.67,42.88,9.19,90.39-7.26,122.83-17.29,12.13-2.73,24.26-5.45,36.39-8.18,30.86-6.69,69.05-2.72,96.17-13.77,37.21-15.15,14.54-59.93,9.26-92.15-3.02-18.44,7.22-40.15,13.82-50.01,14.79-22.06,41.04-31.2,62.06-46.99,14.01-10.52,23.98-25.75,37.55-36.62,14.05-11.25,27.75-21.4,44.01-30.84,13.82-6.32,27.64-12.64,41.46-18.96,21.64-9.95,42.33-25.26,54.5-44.85,8.45-13.61,11.84-30.74,16.7-48.2,2.67-9.59,10.62-32.95,8.77-44.62-1.4-8.84-1.21-17.57-3.53-25.21-11.95-39.33-34.92-74.51-78.61-82.68-12.38-2.31-29.11-.55-39.97,1.33-9,1.05-18.01,2.11-27.01,3.16-24.62,4.78-60.47,8.93-87.14,2.63-30.57-7.22-52.65-21.46-73.7-38.02-9.22-8.79-18.43-17.58-27.65-26.36-8.76-6.97-18.49-14.27-30.91-17.37-21.45-5.36-32.49,7.23-40.64-15.6-1.36-3.82-3.09-9.65-1.76-15.13,6.95-28.45,43.46-11.36,60.5-3.43,30.23,14.07,48.29,39.1,74.73,56.38,15.01,9.81,32.72,14.61,53.59,18.88,29.8,6.09,72.61,1.36,99.74-4.04,12.74-2.53,29.67-7.31,45.74-4.55,31.35,5.38,47,12.31,66.89,28.27,3.35,2.89,6.7,5.78,10.06,8.67,12.69,16,22.13,33.02,27.92,56.25,7.06,28.31-1.22,69.78-6.75,95.75-4.51,21.19-5.24,42.05-14.57,57.93-24.75,42.11-73.99,58.02-115.09,83.56-25.28,15.71-44.15,38.32-62.46,61.03-12.45,15.44-32.06,24.24-44.4,39.84-20.94,26.47-3.84,70.58,4.4,97.23,2.13,9.97,4.26,19.94,6.4,29.9,5.08,27.02-1.14,61.2-15.69,72.68-11.27,8.9-32.37,9.03-50.06,5.26-29.42-6.27-69.99-16.49-106.54-10.39-11.89,1.77-23.77,3.53-35.66,5.3-15.61,4.76-31.23,9.51-46.85,14.27-13.43,4.17-41.58,13.75-60.16,10.63-10.86-1.82-21.31-1.9-30.95-4.77-28.54-8.5-53.91-19.71-82.37-28.32-11.63-2.43-23.27-4.87-34.9-7.3-15.58-3-34.17.06-44.62-7.69-26.63-19.73-5.09-87.52-22.71-116.36-9.5-15.54-28.06-19.11-45.65-26.77-14.63-6.37-26.89-17.09-39.53-25.68-6.83-4.58-13.66-9.16-20.48-13.74.18-21.24.36-42.49.54-63.73,1.68,1.68,3.35,3.37,5.03,5.06,3.83,3.49,7.66,6.98,11.49,10.47,9.89,7.81,20.39,14.87,35.23,17.74,27.86,5.39,48.41-15.33,71.31-6.28,20.27,8.02,35.43,22.63,49.58,36.87,9.73,9.79,19.11,20.46,32.69,26.38,13.92,6.06,37.88,5.18,53.64,1.23,31.76-7.95,67.75-37.19,79.04-65.66,8.73-22.03,1.73-53.32-5.56-71.31-19.63-48.48-56.55-83.38-109.17-99.33-34.63-10.5-76.11-8.23-101.82-26.57-45.02-32.12-39.19-101.38-121.05-101.52Zm-.66,232.23c.18-21.72.36-43.45.55-65.17l1.44,1.44c4.94,2.37,8.82,8.15,12.57,11.92,13.11,13.18,26.13,30.81,44.18,38.65,18.55,8.06,40.45,2.01,62.27,6.3,23.36,4.6,40.6,13.78,59.7,22.13,12.15,5.31,54.56,26.53,63.71,5.22,7.3-17-7.2-33.57-16.45-39.65-17.48-11.49-43.05-7.75-69.09-12.08-30.63-5.1-61.73-6.38-83.47-20.04-25.38-15.95-33.23-44.24-49.13-69.63-4.27-6.81-10.23-14.26-16.51-19.13-3.11-2.05-6.23-4.1-9.34-6.15.04-14.52.08-29.05.12-43.57,31.35,9.59,45.01,22.31,61.08,46.62,12.38,18.73,19.63,40.01,37.29,53.39,14.23,10.78,32.87,14.12,53.23,19.23,48.88,12.28,98.96,14.93,125.16,49.32,9.63,12.64,25.43,34.23,16.4,56.93-3.74,9.4-9.99,18.8-16.64,25.52-12.68,12.83-41.79,21.5-65.56,12.05-29.69-11.8-49.7-34.4-81.96-44.16-21.83-6.6-51.9,2.22-75.6-3.1-14.91-3.34-27.36-9.98-38.84-17.03-5.03-3.01-10.06-6.03-15.1-9.04Zm.87-305.32c.09-32.4.19-64.81.28-97.21l.72.36c1.9,5.77,3.81,11.53,5.71,17.3,7.64,19.65,14.38,42.84,4.14,64.46-2.55,5.38-5.84,12.21-10.84,15.09Zm2.75-962.4c.04-15,.09-30.01.13-45.01,10.79,2.07,21.59,4.14,32.39,6.21,27.27,6.2,53.05,12.04,78.44,18.59,12.56,3.24,34.8,5.81,38.9-6.37,4.22-12.54-14.63-23.22-21.89-26.71-23.33-11.2-54.72-13-79.15-22.55-10.67-4.59-21.34-9.18-32-13.77-5.51-2.9-11.03-5.79-16.54-8.69.2-28.68.4-57.37.61-86.05l.36.72c3.58,6.97,7.16,13.94,10.74,20.91,11.16,19.22,23.09,36.14,44.16,45.49,21.23,9.42,47.04,12.15,71.96,18.57,43.59,11.22,97.49,34.42,112.49,73.05,16.88,43.47-57.59,42.98-85.48,51.24-44.49,13.18-87.95,62.32-74.17,126.17,8.1,37.53,25.31,53.88,45.14,78.62,5.5,5.66,11.01,11.31,16.51,16.97,17.09,21.3,38.35,43.29,62.12,57.79,25.77,15.72,57.11,24.31,80.17,42.35,26.78,20.96,38.96,56.08,57,85.85,7.93,13.08,16.64,25.59,25.82,37.52,9.67,12.58,20.98,24.03,27.25,40.04,15.54,39.65-5.96,77.64-17.59,106.52-5.52,13.71-9.18,28.16-16.32,40.28-13.26,22.53-38.27,45.46-76.79,36.15-17.86-6.29-35.73-12.58-53.59-18.88-18.11-3.41-36.23-6.82-54.34-10.24-32.51-9.97-62.86-32.28-73.99-62.86-4.92-13.51-6.13-36.45,4.45-44.63,14.67-11.35,37.87-6.31,42.21-28.68,1.02-5.26.42-12.38-1.03-16.57-2.15-3.97-4.3-7.93-6.45-11.9-7.78-10.39-42.71-29.56-59.36-16.73-8.84,6.81-13.26,33-29.96,27.64-13.92-4.47-24.59-17.3-36.65-24.59-1.69-1.02-16.77-7.45-16.9-7.61.07-25.44.15-50.89.22-76.33,11.19,2.7,22.87.95,33.11,3.34,75.51,17.56,156.75,36.23,170.69,114.98,6.72,37.96-51.03,60.46-24.77,98.94,12.54,18.38,69.77,33.08,102.91,24.06,20.79-5.66,36.58-17.86,46.54-34.43,11.77-19.57,18.79-52.57,11.4-82.06-4.03-16.05-10.43-31.24-16.07-45.77-16.25-41.83-30.36-80.89-66.32-102.8-18.44-11.24-42.08-17.04-62.57-26.1-18.41-8.14-34.87-23.38-46.7-38.3-24.04-30.31-45.48-70.96-76.42-93.83-12.19-9.01-31.14-17.64-51.1-9.15-8.65,3.68-13.62,10.22-20.21,15.78.03-10.56.06-21.12.09-31.68,11.1-3.35,25.4-14.75,29.24-25.48,2.23-6.24-.82-15.81-2.1-21.61-3.85-17.45-12.1-43.3-26.86-48.68.06-20.4.12-40.81.17-61.21,19.92,4.39,47.16,54.13,67.27,22.16,27.95-44.46-25.8-60.82-67.16-60.68Zm-1.01,353.2c.04-13.2.08-26.4.11-39.61.01-3.61-1.12-11.91.76-14.04,15.44-19.69,63.98-13.36,81.37-.49,24.12,17.84,39.53,45.81,63.18,64.27,10.75,8.39,22.85,16.96,35.94,22.79,18.1,8.06,37.37,15.12,53.57,25.36,25.82,16.31,43.47,40.68,55.61,70.73,10.24,25.36,13.52,66.5-3.13,87.84-6.5,8.33-27.28,17.35-32.77,1.71-4.12-11.76,7.27-27.64,4.81-43.55-3.72-23.94-8.14-41.11-19.28-56.94-21.58-30.65-68.51-48.88-100.61-70.14-14.61-10.12-29.23-20.25-43.84-30.37-10.6-7.86-21.73-16.92-35.22-21.7-19.12-6.78-44.16-1.56-60.5,4.15Zm17.14-203.74l.72-.36-.72.36Zm3.23,3.61v-.72c0,.24,0,.48,0,.72Zm14.03-373.69v-1.44c18.6.05,37.21.11,55.81.16,1.41,7.79,6.47,14.59,10.38,20.19,19.6,28.02,45.11,35.57,86.29,42.37,10.15,1.68,23.46.45,32.41-.99,14.33-2.3,30.64.86,41.03,4.08,50.85,15.74,94.58,61.06,119.24,103.67,11.17,19.3,37.25,79.82,16.62,106.26-18.42,23.62-62.47,5.19-74.86-11.02-16.46-21.54-21.03-51.84-32.18-79.3-11.13-27.4-27.85-51.53-49.85-68.19-36.97-28-102.09-26.39-147.49-46.51-22.26-9.86-36.46-31.8-48.46-51.99-2.98-5.77-5.97-11.54-8.95-17.31Zm-1.92,2058.75c.28-32.94,60.99-26.59,69.28-53.81,2.85-9.35-8.13-17.43-14.35-19.12-7.47-2.03-11.66-.59-16.55-4.37-12.89-9.97-9.89-44.09-3.43-59.78,12.78-31.03,71.36-48.83,120.73-41.06,12.21,1.92,23.32,1.21,34.55,3.7,17.08,3.78,34.44,13.26,43.13,25.69,16.01,22.88-4.68,55.47-17.12,69.08-36,39.39-88.01,60.28-145.68,78.07-14.21,4.38-28.91,7.61-44.32,11.39-4.27,1.05-12.41,4.21-16.57,3.19-5.25-2.52-6.78-8.02-9.68-12.99Zm25.1,36.8c5.7-5.27,24.83-9.22,33.16-12.15,14.18-4.98,29.86-9.01,45.4-12.83,6.96-1.18,13.93-2.36,20.89-3.54,15.42-4.26,29.78-10.38,43.61-16.44,25.11-10.99,56.32-33.44,72.52-53.44,9.3-11.48,18.13-25.61,31.06-33.4,19.82-11.93,59.61-6.88,84.29-13.08,49.14-12.35,85.98-35.14,136.23-46.06,59.95-13.02,136.08,15.92,189.05-7.02,29.04-12.58,40.24-40.18,46.3-76.2.14-7.08.28-14.16.42-21.24-.08-15.6-.15-31.21-.23-46.81.03-18.33-3.84-41.49,1.96-56.52,19.48-50.44,90.24-24.27,146.26-26.59,26.99-1.12,58.03-7.08,85.34-1.56,49,9.91,79.18,36.71,95.55,79.12,9.06,23.48,9.39,53.69,18.5,77.1,8.38,21.55,22.92,36.32,40.91,48.36,6.47,4.33,14.33,11.16,22.65,13.03-.05,17.76-.1,35.53-.15,53.29-7.43-1.57-15.08-8.54-21.21-12.3-12.41-7.63-26.78-14.58-41.71-19.2-15.67-4.86-30.58-3.78-36.67-18.11-8.91-20.95.78-55.64-3.37-81.74-2.62-16.51-3.53-31.2-8.87-44.31-13.02-31.92-42.93-55.29-80.47-62.88-15.48-3.13-42.51-2.71-58.69-.17-16.08-.41-32.16-.81-48.24-1.22-23.64,3.69-34.85,4.88-49.73,16.78-14.31,11.44-24.92,43.88-20.37,72.67-.01,4.32-.02,8.64-.04,12.96,1.65,10.75,1.29,26.32-.46,36.72-6.72,39.89-19.93,68.12-48.49,85.55-14.96,9.13-32.86,14.19-53.34,17.85-10.44.69-20.89,1.38-31.33,2.07-10.52,1.64-25.95,2.03-37.09.25-8.88-.51-17.76-1.01-26.64-1.52-14.94-2.37-41.55-3.05-56.89-.52-26,4.29-46.53,9.92-67.02,18.89-21.52,9.42-40.03,23.05-64.53,29.7-25.61,6.95-62.36-.01-87.51,6.23-23.88,5.93-48.41,18.65-65.62,31.86-14.32,10.99-26.42,25.01-40.43,36.25-6.63,5.31-27.3,23.44-30.33,30.52-44.88-.13-89.78-.26-134.66-.38Zm418.24-2095.73c-.16,12.04-4.05,23.94-8.02,33.1-15.13,34.94-67.13,95.63-118.28,65.19-18.85-11.22-40.2-36.37-53.85-53.44-7.18-8.97-16.79-19.11-28.02-23.84-20.86-8.8-43.97-.37-64.1,3.06-15.89,2.71-29.86-5.49-37.77-11.63-4.45-3.45-9.93-7.51-11.84-13.36,52.56.15,105.14.3,157.7.45,3.17,8.17,22.41,16.8,30.18,21.69,12.86,8.09,24.68,17.87,40.98,22.44,32.99,9.25,54.03-19.53,59.17-43.76,11.28.03,22.56.06,33.84.1Zm-237.66,386.37c6.15,14.99,9.16,25.82,22.23,33.55,16.79,9.93,40.17.17,54.74-4.88,22.8-7.91,47.8-9.79,73.49-15.63,15.4-3.5,30.94-13.44,51.88-9.93,27.52,4.61,46.04,19.77,66.52,31.87,17.72,10.47,37.14,19.75,58.97,25.73,7.73,2.12,21.27,4.33,24.85-2.81,4.07-7.45-4.66-15.16-7.87-18.38-13.56-13.63-30.53-22.06-47.79-32.18-21.67-12.7-47.09-21.45-74.45-28.3-7.68-.98-15.36-1.96-23.03-2.95-28.84-4.86-50.79,9.8-78.14,4.82-13.73-2.5-26.15-5.32-37.42-10.19-14.16-6.12-27.03-14.3-44.24-17.41-26.37-4.76-39.9,22.8-39.74,46.69Zm510.34,1711.33c-23.4-.07-46.81-.13-70.21-.2-.26-10-3.65-20.09-6.76-27.74-14.22-35.01-47.12-57.33-99.96-45.65-19.61,4.33-36.65,12.34-53.7,19.29-22.59,9.21-44.41,15.97-71.71,20.68-26.6,4.59-55.71-4.93-73.06-12.09-11.78-4.86-28.89-13.15-45.7-8.05-18.27,5.54-38.3,24.12-49.07,37.66-3.49,4.91-6.99,9.82-10.48,14.73-8.76-.15-17.52-.29-26.28-.44l1.08-1.08c6.98-7.78,13.97-15.56,20.95-23.34,15.22-19.12,31.76-42.29,55.96-52.05,7.63-3.08,15.74-3.79,25.22-5.33,9.26-1.51,20.12,1.58,27.35,3.32,20.8,5.01,46.58,12.06,71.27,6.32,19.96-4.63,35.47-12.75,52.26-20.01,20.36-8.81,41.21-16.14,65.23-21.42,27.21-5.98,64.12-4.48,89.65,2.06,58.84,15.06,96.26,41.7,97.97,113.34Zm-445.74-1.27c4.57-14.35,20.62-34.62,42.93-30.84,18.61,3.15,33.24,10.9,49.28,16.7,14.01,5.06,27.81,7.35,44.62,10.21,8.79,1.5,21.89,2.29,31.68.81,21.99-3.33,41.42-7.09,59.09-14.59,14.33-6.08,26.13-15.91,43.26-18.6,24.11-3.78,59.37,21.98,63.62,37.27-111.48-.32-223-.64-334.48-.96Zm105.25-419.16c.39-13.07,8.86-18.73,16.63-24.44,15.78-11.59,33.11-23.07,54.09-29.37,18.04-5.41,39.38,1.22,43.88,14.89,5.02,15.25-20.08,23.03-29.24,26.92-18.57,7.89-33.68,20.59-52.29,27.57-10.2,3.83-23.68.71-28.79-5.84-2.23-2.86-2.53-6.15-4.29-9.73Zm10.42-1505.69c-.48-37.43,19.25-50.71,35.13-71.19,6.87-9.1,13.73-18.2,20.6-27.3,8.32-13.12,14.8-26.93,22.8-40.62,5.43-10.78,10.86-21.57,16.29-32.36,14.4.04,28.81.08,43.21.12-1.39,10.67-14.31,30.87-19.56,39.55-22.27,36.88-70.55,101.23-45.11,160.81,11.29,26.45,36.22,43.8,58.52,59.58,29.42,20.81,62.49,37.57,93.45,57.15,15.44,9.77,29.24,21.3,43.11,32.53,18.26,14.78,32.86,36.82,37.98,64.56,2.68,14.52,0,31.8-2.29,45.36-3.29,19.43,7.15,49.6,13.51,60.53,18.88,32.46,48.65,49.78,80.81,69,21.74,12.99,45.72,24.15,61.08,43.38,10.18,12.74,19.73,26.08,24.36,44.36,5.34,21.1-3.17,54-6.69,74.51-4.55,26.46,7.5,41.42-12.76,56.13-9.54,6.93-22.12,9.9-33.89,14.67-7.14,2.89-13.49,7.04-21.99,8.58-13.77,2.49-31.82-8.16-35.24-15.94-5.76-13.1,17.33-30.23,23.15-37.74,17.7-22.85,43.24-60.51,32.34-104.32-10.79-43.4-48.03-53.62-82.24-73.68-26.05-15.28-49.56-29.54-65.01-55.27-7.06-11.76-13.62-31.99-10.29-51.88,2-11.96,4.57-27.86,2.28-41.76-4.51-27.35-12.82-45.46-26.46-63.08-14.27-18.43-37.06-31.05-57.48-43.37-38.84-23.43-82.15-43.45-118.62-69.47-24.25-17.3-49.91-40.97-62.45-69.67-2.82-6.46-5.05-13.51-6.78-20.9-.59-4.08-1.18-8.16-1.77-12.25Zm89.3,375.43c2.91,6.29,3.84,12.2,7.15,17.66,12.78,21.06,31.42,40.41,50.25,55.59,18.94,15.28,36.32,32.11,57.48,45.53,24.85,15.77,65.15,31.11,80.13,55.68,10.42,17.09,7.77,46.82,1.61,66.61-3.51,11.63-7.03,23.26-10.54,34.89-10.42,29.41-23.52,68.49-8.58,102.95,5.99,13.81,16.99,24.24,28.71,32.49,10.57,7.44,45.97,28.7,64.04,16.75,8.38-5.54,3.76-18.24.43-25.92-6.17-14.24-14.93-25.83-22.57-38.59-2.74-4.57-7.4-11.77-5.7-20.18,1.8-8.89,10.54-14.57,8.36-26.62-2.89-15.96-13.76-31.22-10.29-51.52,1.1-7.32,2.2-14.64,3.3-21.95,9.82-38.49,28.72-96.17-9.38-119.2-8.32-5.03-18.02-7.92-27.33-11.96-20.01-8.69-41.55-17.05-58.61-28.97-12.43-8.69-26.17-18.97-35.56-30.71-6.94-7.34-13.88-14.68-20.82-22.02-12.23-9.9-24.04-20.32-37-29.63-8.87-6.37-55.65-36.41-55.08-.88Zm7.2-377.31c-.74-54.13,45.8-96.79,69.5-129.78,7.63-10.61,21.99-25.35,24.96-39.53l32.4.09c-1.88,8.7-13.03,21.53-18.08,28.39-19.63,26.62-70.34,76.97-50.05,127.31,13.33,33.07,50.68,45.34,83,59.65,35.33,15.64,68.9,36.39,98.13,58.61,22.43,17.06,40.23,39.04,51.66,67.12,6.61,16.24,8.97,34.58,13.53,52.97,6.09,24.53,12.09,49.18,21.4,70.63,12.15,27.99,34.39,49.08,56.7,67.13,7.39,5.98,14.15,14.2,20.1,21.66,10.57,13.27,22.88,25.9,34.82,37.9,21.74,21.85,47.66,39.46,83.76,47.05,12.32,2.59,32.89,5.73,42.49-1.32,9.96-7.32,13.54-25.53,1.9-33.84-15.54-11.1-48.11-6.7-68.01-12.8-30.7-9.4-59.41-31.9-77.26-54.23-24.36-30.48-51.87-59.9-62.71-103.51-6.86-27.62.52-70.19-9.45-95.8-11.27-28.96-33.69-48.67-51.64-71.08-9.63-12.03-21.7-24.35-33.75-33.94-24.8-19.74-50.08-36.75-81.95-49.92-25.07-10.36-55.95-15.35-69.02-37.64-6.15-10.48-4.04-30.71-.6-42.49,9.11-31.15,27.4-57.24,45.59-79.8,4.08-5.06,21.26-17.47,22.75-21.9,53.16.15,106.34.3,159.5.46,10.09,8.23,65.23,24.01,89.24,19.7,25.9-4.65,41.93-7.85,60.18-19.27,26.64.08,53.29.15,79.93.23-2.86,9.06-24.48,23.25-32.85,28.35-13.92,8.49-29.27,14.51-47.58,18.95-47.54,11.53-102.64-4.66-141.46-14.45-12.12-3.06-24.67-3.78-37.79-5.87-7.08.1-14.16.2-21.24.3-6.12.58-12.25,1.17-18.37,1.75-22.87,4.89-41.81,13.19-57.32,25.4-7.59,5.97-17.17,16.62-13.77,32,4.86,21.98,37.29,48.65,56,57.77,5.93,2.89,15.57,6.86,24.83,5.47,24.82-3.72,58.03-15.47,86.44-10.55,28.93,5,49.51,16.1,74.46,23.98,15.55,4.91,32.06,5.13,50.74,8.07,12.75,2,32.03-.58,43.21-2.4,30.47-4.96,58.73-7.27,86.81-13.43,10.77-2.37,21.42-3.99,31.34-6.75,3-.71,6.01-1.42,9.01-2.13-.04,13.2-.08,26.4-.11,39.61-7.45,1.78-14.89,3.56-22.34,5.34-9,1.17-18.01,2.35-27.01,3.52-18.97,3.91-37.95,7.81-56.92,11.72-16.01,4-31.81,5.94-50.43,8.86-6.12.22-12.24.45-18.36.67-12.12-2.01-23.31-2.69-34.19-5.5-23.83-6.16-46.16-14.7-69.07-21.8-17.41-5.4-57.6-9.98-56.21,15.32,1.34,24.47,42.5,23.63,65.81,27.91,12.72,1.84,25.43,3.67,38.15,5.51,46.49,10.28,97.55,16.51,146.89,4.38,17.92-4.41,41.97,2.25,37.74,23.51-6.22,31.26-68.81,23.29-101.98,29.23-13.05,2.34-26.52,3.69-38.19,7.45-27.17,8.75-46.71,28.69-62.79,48.79-11.08,13.85-26.53,31.85-21.78,60.79,7.04,42.84,30.99,66.15,58.44,88.38,6.7,6.26,13.41,12.52,20.11,18.78,17.11,13.52,36.21,26.25,60.4,32.58,35.55,9.3,85.55-.49,110.12,19.04,28.48,22.63,2.93,73.59-15.01,87.81-23.52,18.65-52.78,29.69-83.29,41.53-11.49,4.46-27.38,11.37-43.23,9.96-20.46-1.83-33.86-7.35-46.04-17.05-21.83-17.39-28.93-47.19-43.36-72.13-7.07-12.22-14.81-22.93-23.31-33.55-12.71-15.88-32.66-24.34-50.67-35.07-20.99-12.51-38.92-28.88-48.82-52.35-6.15-14.59-8.15-31.56-12.1-48.64-11.63-50.26-16.85-99.02-50.77-126.52-29.24-23.71-58.47-41.08-95.97-57.16-41.83-17.94-91.06-33.73-115.74-68.74-3.54-5.02-7.02-11.32-8.95-17.67-.83-4.32-1.66-8.65-2.48-12.97Zm47.41,1299.91c1.76-30.16,16.18-30.41,43.31-34.8l21.96.06c14.93-2.39,31.15-1.87,34.61-15.38,6.21-24.26-20.76-30.67-35.18-36.47-20.5-8.24-59.55-36.66-53.09-69.64,4.57-23.29,23.3-32.86,42.6-41.28,34.67-15.13,82.65-40.83,128.6-20.52,9.67,4.27,19.36,9.95,25.51,17.72,7.09,8.95,22.52,36.5,19.65,54.06-2.9,17.77-9.85,29.6-15.97,43.88-11.35,26.48-20.27,53.81-42.68,69.01-18.2,12.34-42.12,18.75-65.6,25.74-11.44,3.41-22.34,5.41-32.79,9.63-11.66,5.85-23.32,11.7-34.97,17.54-6.8,2.9-18.24,4.88-25.21.65-7.94-4.82-7.08-10.71-10.74-20.19Zm84.56-108.49c9.81,13.24,35.76,16.13,53.27,7.35,4.38-2.19,12.01-5.97,10.48-13.65-5.29-26.63-62.71-17.4-63.75,6.3Zm133.63,736.68c4.27-31.91,7.03-69.12,20.79-92.47,18.42-31.28,48.79-47.1,80.12-65.3,40.49-23.53,93.6-31.16,108.96-79.98,4.71-14.96,6.29-38.72.15-53.65-8.27-20.14-30.97-32.9-53.9-38.68-19.54-4.92-37.67,3.03-42.89,16.08-4.42,11.05,4.86,17.76,10.38,21.63,13.59,9.54,49.06,30.39,29.37,53.73-7.03,8.33-28.26,2.16-36-1.18-22.33-9.64-53.59-35.95-59.23-61.74-4-18.27,4.93-31.69,12.36-41.01,24.08-30.23,93.59-37.7,132.18-14.74,21.24,12.63,38.89,31.05,46.28,57.38,9.98,35.55-10.55,102.42-24.47,123.07-11.34,16.82-29.96,18.58-50.48,26.5-11.05,4.29-22.11,8.58-33.16,12.87-22.58,8.74-48.12,15.68-68.49,27.53-37.78,21.98-55.88,56.15-61.52,110-3.48,0-6.96-.02-10.44-.03Zm14.02-2009.39c-.12-32.56,54.11-28.14,81.8-22.45,19.94,4.1,39.57,8.37,57.93,14.21,19.88,6.32,38.3,14.23,60.43,18.9,32.15,6.78,78.6,1.59,107.31-5.45,18.9-4.63,37.2-10.53,52.26-19.29,7.45-4.9,14.91-9.8,22.36-14.7-.04,13.68-.08,27.36-.12,41.05-4.37.8-8.04,4.42-11.54,6.45-8.65,3.94-17.31,7.87-25.96,11.81-27.72,11.24-60.8,13.19-94.75,19.17-11.23,1.98-29.31,6.54-42.14,4.56-9.75-1.51-18.81-1.85-27.35-4.4-28.35-8.44-51.07-21.33-81.29-28.32-11.57-2.68-28.19-5.05-42.48-3-15.42,2.21-39.36,2.03-48.59-4.82-4.64-3.44-5.36-7.93-7.88-13.7Zm16.19,1893.54l1.08-.36v1.08c-.36-.24-.72-.48-1.08-.72Zm3.25-1.79v-.72c0,.24,0,.48,0,.72Zm3.25-4.31c.7-1.09.08-.58,1.44-1.08l.72.72-.36.72-1.8-.37Zm7.93,122.08c2.52-12.86,10.38-24.86,16.66-34.52,37.61-57.85,115.09-66.19,194.3-81.54,38.73-7.5,85.06-1.78,113.75,10.05,7.07,2.9,14.15,5.8,21.22,8.7-.05,16.68-.1,33.37-.14,50.05l-.72.36c-20.27-15.1-39.44-27.33-68.31-34.76-29.62-7.62-67.74-1.81-92.19,5.5-31.53,9.43-60.84,18.82-89.02,30.71-16.4,6.92-32.28,12.28-45.79,21.83-9.9,7-14.27,16.02-22.39,23.7-9.12-.03-18.24-.05-27.36-.08Zm69.17-895.24l.37-1.8,1.44-.36.36.36v1.8c-.37.24-.73.48-1.09.72l-1.08-.72Zm5,895.45c3.69-3.16,9.88-3.84,14.78-5.72,9.72-3.73,19.56-7.77,28.12-12.88,22.02-13.14,42.19-29.36,69.24-37.25,52.24-15.24,90.09,12.95,117.64,34.9,7.86,6.27,16.25,13.23,22.26,21.31v.36c-21-.06-42.01-.12-63.01-.18-2.32-1.26-4.75-4.28-7.18-5.78-10.18-6.28-21.04-10.27-35.25-12.7-24.17-4.14-42.44,10.94-55.86,18.2-30.24-.09-60.49-.17-90.73-.26Zm20.46-734.8c.69-35.73,68.22-13.21,59,17.09-4.05,13.3-25.31,23.72-41.45,13.92-6.82-4.14-13.86-13.58-16.14-22.01-.47-3-.94-6-1.41-9.01Zm254.77-580.75c-18.69-.81-39.33-8.34-60.48-3.77-23.2,5.01-44.04,12.34-61.99,22.87-15.43,9.05-30.57,20.28-49.04,25.78-28.47,8.49-58.61-14.3-62.19-36.18-.9-5.49,1.59-10.47,3.28-13.67,11-20.83,35.6-6.38,60.16-10.27,11.53-1.82,21.67-2.4,30.98-6.03,10.48-4.09,20.46-10.37,28.85-16.84,18.05-13.92,38.07-40.67,73.54-31.47,6.28,1.63,12.38,4.55,17.62,7.25,3.32,1.71,17.72,8.79,19.41,10.86-.05,17.16-.1,34.33-.15,51.49Zm1.17-409.37c-8.52.82-17.05,1.63-25.57,2.45-28.1,5.57-76.86,10.27-81.84,37.57-1.95,10.69,5.13,17.66,10.38,21.63,17.28,13.08,43.68,15.93,67.99,22.16,9.59,2.19,19.19,4.38,28.79,6.56-.17,17.04-.34,34.09-.51,51.13h-1.08c-17.4-16.82-66.38-18.58-96.42-24.4-43.03-8.34-92.42-27.11-106.75-62.95-8.21-20.52,2.51-39.83,11.67-51.45,27.71-35.19,87.15-31.32,139.82-42.09,12-2.45,24.04-4.5,34.59-8.54,6.37-2.5,12.74-5,19.1-7.51-.05,18.48-.11,36.97-.16,55.45Zm-2.76,965.64c-.06,20.52-.12,41.05-.18,61.57-16.49-4.13-34.33-22.8-57.19-18.53-18.35,3.43-18.83,23.16-32.13,31.23-4.89,2.97-14.31,3.43-21.25,2.1-22.45-4.31-38.94-10.94-43.47-32.89-1.54-7.47-.76-17.86,2.23-23.04,10.68-18.52,50.79-31.27,75.36-36.87,7.42-1.69,18.04-2.99,26.65-1.36,12.55,2.37,23.73,6,34.17,10.54,4.98,2.16,9.8,6.51,15.82,7.25Zm1.08-378.05c-.05,17.04-.1,34.09-.15,51.13-21.98-.17-41.56,10.11-46.88,27.23-7.46,23.96-.36,69.59,16.7,76.74,26.25,11,17.27-49.53,30.04-54.64-.27,51.48-.53,102.98-.8,154.46-9.76-1.38-20.07-9.2-27.68-13.76-30.31-18.15-49.87-37.88-59.55-76.86-3.96-15.97-6.13-40.22-3.07-58.7,2.71-16.38,1.54-31.63,5.17-45.71,8.17-31.71,25.84-53.95,59.22-60.32,8.89-1.7,18.16.24,27,.44Zm-73.33-924.45c-.14-14.09,5.16-21.09,11.96-28.05,2.17-2.22,5.19-3.33,6.5-6.46,17.76.05,35.53.1,53.29.15-3.37,4.19-6.75,8.38-10.12,12.57-8.12,11.41-11.97,25.1-25.29,31.25-17.52,8.09-28.94,6.37-36.34-9.47Zm74.94,360.98l-.1,34.2c-13.03-.19-48.34-7.53-45.3-21.73,2.91-13.6,29.44-12.82,45.4-12.47Zm-13.63-144.06c-.14-9.6,6.19-18.61,14.1-19.76-.04,12.36-.07,24.72-.11,37.08-8.68-2.04-10.86-9.42-13.99-17.32Z"/>
    <rect class="cls-6" x="1021.95" y="-1039.52" width="1138.59" height="2103.53"/>
  </g>
</svg>