<?xml version="1.0" encoding="UTF-8"?>
<svg id="Livello_1" data-name="Livello 1" xmlns="http://www.w3.org/2000/svg" viewBox="0 0 1080 1080">
  <defs>
    <style>
      .cls-1 {
        fill: #009640;
      }

      .cls-1, .cls-2, .cls-3, .cls-4, .cls-5 {
        stroke-width: 0px;
      }

      .cls-2 {
        fill: #48ac33;
      }

      .cls-3 {
        fill: #95c11f;
      }

      .cls-6 {
        opacity: .11;
      }

      .cls-4 {
        fill: #fff;
      }

      .cls-5 {
        fill: #2e7221;
      }
    </style>
  </defs>
  <path class="cls-3" d="m752.83,1017.86l-428.95-1.23c-37.73-.11-72.54-20.34-91.31-53.07L19.15,591.47c-18.77-32.73-18.66-72.99.3-105.61L234.99,114.99c18.96-32.62,53.88-52.65,91.61-52.54l428.95,1.23c37.73.11,72.54,20.34,91.31,53.07l213.41,372.09c18.77,32.73,18.66,72.99-.3,105.61l-215.54,370.87c-18.96,32.62-53.88,52.65-91.61,52.54Z"/>
  <g class="cls-6">
    <path class="cls-4" d="m341.47,674.3c.55-.31,1.11-.58,1.68-.81,1.17-.47,1.91-1.61,1.87-2.87,0-.15,0-.3,0-.45l.18-66.16c.01-4.75,2.56-9.13,6.68-11.49l57.39-32.92c4.12-2.36,9.18-2.35,13.29.04l57.2,33.24c4.1,2.39,6.62,6.78,6.61,11.53l-.18,66.16c-.01,4.75-2.56,9.13-6.68,11.49l-57.39,32.92c-.55.31-1.11.58-1.68.81-1.17.47-1.91,1.61-1.87,2.87,0,.15,0,.3,0,.45l-.14,51.26c0,2.05,2.05,3.47,3.96,2.74,1.09-.42,2.15-.92,3.18-1.51l98.32-56.4c7.05-4.05,11.41-11.55,11.44-19.68l.31-113.34c.02-8.13-4.3-15.66-11.33-19.74l-98-56.94c-7.03-4.09-15.71-4.11-22.76-.06l-98.32,56.4c-7.05,4.05-11.41,11.55-11.44,19.68l-.31,113.34c0,.73.03,1.46.1,2.19.2,2.11,2.52,3.3,4.36,2.24l43.53-24.97Z"/>
    <path class="cls-4" d="m654.87,372.04l.8,101.81c.08,10.67-5.53,20.57-14.73,25.98l-87.77,51.59c-9.2,5.41-20.58,5.5-29.86.23l-88.56-50.21c-9.28-5.26-15.05-15.08-15.13-25.75l-.8-101.81c-.08-10.67,5.53-20.57,14.73-25.98l87.77-51.59c9.2-5.41,20.58-5.5,29.86-.23l88.56,50.21c9.28,5.26,15.05,15.08,15.13,25.75Z"/>
    <path class="cls-4" d="m780.21,581l.8,101.81c.08,10.67-5.53,20.57-14.73,25.98l-87.77,51.59c-9.2,5.41-20.58,5.5-29.86.23l-88.56-50.21c-9.28-5.26-15.05-15.08-15.13-25.75l-.8-101.81c-.08-10.67,5.53-20.57,14.73-25.98l87.77-51.59c9.2-5.41,20.58-5.5,29.86-.23l88.56,50.21c9.28,5.26,15.05,15.08,15.13,25.75Z"/>
  </g>
  <circle class="cls-2" cx="333.43" cy="186.5" r="92.59"/>
  <circle class="cls-2" cx="743.49" cy="302.38" r="92.59"/>
  <circle class="cls-2" cx="934.71" cy="540" r="92.59"/>
  <circle class="cls-2" cx="726.22" cy="601.48" r="30.2"/>
  <circle class="cls-2" cx="628.23" cy="913.16" r="92.59"/>
  <circle class="cls-2" cx="192.27" cy="469.45" r="92.59"/>
  <circle class="cls-5" cx="414.56" cy="222.12" r="51.86"/>
  <circle class="cls-5" cx="363.94" cy="778.99" r="30.45"/>
  <circle class="cls-5" cx="702.75" cy="900.95" r="51.86"/>
  <circle class="cls-5" cx="446.25" cy="796.9" r="51.86"/>
  <circle class="cls-5" cx="212.06" cy="330.96" r="51.86"/>
  <circle class="cls-5" cx="377.63" cy="453.62" r="51.86"/>
  <circle class="cls-5" cx="736.97" cy="200.74" r="51.86"/>
  <circle class="cls-5" cx="720.77" cy="142.76" r="8.63"/>
  <circle class="cls-5" cx="655.9" cy="142.76" r="8.63"/>
  <circle class="cls-5" cx="688.08" cy="142.76" r="22.56"/>
  <circle class="cls-5" cx="643.71" cy="99.88" r="15.38"/>
  <circle class="cls-5" cx="661.06" cy="124.23" r="9.66"/>
  <circle class="cls-5" cx="643.71" cy="130.18" r="7.64"/>
  <circle class="cls-5" cx="434.22" cy="899.7" r="32.2"/>
  <circle class="cls-1" cx="335.9" cy="835.85" r="32.2"/>
  <circle class="cls-1" cx="493.69" cy="867.5" r="32.2"/>
  <circle class="cls-1" cx="743.49" cy="870.36" r="32.2"/>
  <circle class="cls-1" cx="802.18" cy="804.2" r="24.14"/>
  <circle class="cls-1" cx="789.58" cy="852.27" r="8.92"/>
  <circle class="cls-1" cx="749.26" cy="803.15" r="11.78"/>
  <circle class="cls-1" cx="724.67" cy="798.09" r="11.78"/>
  <circle class="cls-1" cx="739.72" cy="787.67" r="5.89"/>
  <circle class="cls-1" cx="747.35" cy="789.63" r="1.74"/>
  <circle class="cls-1" cx="761.03" cy="832.87" r="8.92"/>
  <circle class="cls-1" cx="758.49" cy="818.47" r="5.39"/>
  <circle class="cls-1" cx="708.92" cy="828.34" r="20.37"/>
  <circle class="cls-1" cx="743.49" cy="825.12" r="10.18"/>
  <circle class="cls-5" cx="650.89" cy="184.01" r="32.39"/>
  <circle class="cls-5" cx="199.77" cy="564.25" r="32.39"/>
  <circle class="cls-5" cx="293.48" cy="645.13" r="32.39"/>
  <circle class="cls-1" cx="388.53" cy="848.77" r="20.42"/>
  <circle class="cls-1" cx="363.94" cy="873.31" r="13.69"/>
  <circle class="cls-1" cx="376.75" cy="820.57" r="8.34"/>
  <circle class="cls-3" cx="650.89" cy="267.51" r="51.86"/>
  <circle class="cls-3" cx="641.89" cy="842.74" r="51.86"/>
  <circle class="cls-3" cx="882.85" cy="469.45" r="51.86"/>
  <circle class="cls-3" cx="273.18" cy="412.05" r="51.86"/>
  <g>
    <path class="cls-4" d="m390.39,383.37l-37.92,106.92h-32.59l-37.92-106.92h27.72l26.5,80.72,26.65-80.72h27.57Z"/>
    <path class="cls-4" d="m427.25,404.24v21.63h34.88v20.1h-34.88v23.45h39.45v20.87h-65.49v-106.92h65.49v20.87h-39.45Z"/>
    <path class="cls-4" d="m538.12,490.29l-22.24-40.36h-6.24v40.36h-26.04v-106.92h43.71c8.43,0,15.61,1.47,21.55,4.42,5.94,2.95,10.38,6.98,13.33,12.11,2.94,5.13,4.42,10.84,4.42,17.13,0,7.11-2.01,13.46-6.02,19.04-4.01,5.59-9.93,9.54-17.74,11.88l24.67,42.34h-29.39Zm-28.48-58.79h16.14c4.77,0,8.35-1.17,10.74-3.5,2.38-2.33,3.58-5.64,3.58-9.9s-1.19-7.26-3.58-9.6c-2.39-2.33-5.97-3.5-10.74-3.5h-16.14v26.5Z"/>
    <path class="cls-4" d="m652.5,390.07c8.43,4.47,14.95,10.74,19.57,18.81,4.62,8.07,6.93,17.39,6.93,27.95s-2.31,19.75-6.93,27.87c-4.62,8.12-11.17,14.42-19.65,18.89-8.48,4.47-18.3,6.7-29.47,6.7h-40.05v-106.92h40.05c11.27,0,21.12,2.23,29.55,6.7Zm-8.22,69.6c5.48-5.38,8.22-13,8.22-22.85s-2.74-17.51-8.22-23-13.15-8.22-23-8.22h-12.34v62.14h12.34c9.85,0,17.51-2.69,23-8.07Z"/>
    <path class="cls-4" d="m719.66,404.24v21.63h34.88v20.1h-34.88v23.45h39.45v20.87h-65.49v-106.92h65.49v20.87h-39.45Z"/>
    <path class="cls-4" d="m274.95,566.13v63.97c0,6.4,1.57,11.32,4.72,14.77,3.15,3.45,7.77,5.18,13.86,5.18s10.76-1.73,14.01-5.18c3.25-3.45,4.87-8.38,4.87-14.77v-63.97h26.04v63.81c0,9.54-2.03,17.62-6.09,24.22-4.06,6.6-9.52,11.57-16.37,14.93s-14.49,5.03-22.92,5.03-15.97-1.65-22.62-4.95c-6.65-3.3-11.91-8.27-15.76-14.93-3.86-6.65-5.79-14.75-5.79-24.29v-63.81h26.04Z"/>
    <path class="cls-4" d="m426.33,566.13v20.87h-43.56v22.54h32.59v20.26h-32.59v43.25h-26.04v-106.92h69.6Z"/>
    <path class="cls-4" d="m509.64,566.13v20.87h-43.56v22.54h32.59v20.26h-32.59v43.25h-26.04v-106.92h69.6Z"/>
    <path class="cls-4" d="m549.39,566.13v106.92h-26.04v-106.92h26.04Z"/>
    <path class="cls-4" d="m570.71,591.18c4.57-8.27,10.94-14.72,19.11-19.34,8.17-4.62,17.44-6.93,27.79-6.93,12.69,0,23.55,3.35,32.59,10.05,9.04,6.7,15.08,15.84,18.12,27.41h-28.63c-2.13-4.47-5.15-7.87-9.06-10.2-3.91-2.33-8.35-3.5-13.33-3.5-8.02,0-14.52,2.79-19.49,8.38-4.98,5.58-7.46,13.05-7.46,22.39s2.49,16.81,7.46,22.39c4.97,5.58,11.47,8.38,19.49,8.38,4.97,0,9.42-1.17,13.33-3.5,3.91-2.33,6.93-5.73,9.06-10.2h28.63c-3.05,11.57-9.09,20.69-18.12,27.34-9.04,6.65-19.9,9.98-32.59,9.98-10.36,0-19.62-2.31-27.79-6.93-8.17-4.62-14.54-11.04-19.11-19.27-4.57-8.22-6.85-17.61-6.85-28.18s2.28-19.98,6.85-28.25Z"/>
    <path class="cls-4" d="m710.37,566.13v106.92h-26.04v-106.92h26.04Z"/>
    <path class="cls-4" d="m752.18,667.11c-8.38-4.67-15.03-11.19-19.95-19.57-4.93-8.38-7.39-17.79-7.39-28.25s2.46-19.85,7.39-28.18c4.92-8.32,11.57-14.82,19.95-19.49,8.38-4.67,17.59-7.01,27.64-7.01s19.27,2.34,27.64,7.01c8.38,4.67,14.98,11.17,19.8,19.49,4.82,8.33,7.23,17.72,7.23,28.18s-2.44,19.88-7.31,28.25-11.48,14.9-19.8,19.57c-8.33,4.67-17.51,7.01-27.57,7.01s-19.27-2.33-27.64-7.01Zm48.13-25.28c5.13-5.69,7.69-13.2,7.69-22.54s-2.57-16.98-7.69-22.62c-5.13-5.64-11.96-8.45-20.48-8.45s-15.51,2.79-20.64,8.38c-5.13,5.59-7.69,13.15-7.69,22.69s2.56,16.98,7.69,22.62c5.13,5.64,12.01,8.45,20.64,8.45s15.36-2.84,20.48-8.53Z"/>
  </g>
  <circle class="cls-2" cx="720.82" cy="544.66" r="30.2"/>
  <circle class="cls-2" cx="666.28" cy="549.93" r="12.31"/>
  <circle class="cls-2" cx="602.34" cy="601.48" r="12.31"/>
  <circle class="cls-2" cx="653.97" cy="665.21" r="12.31"/>
  <circle class="cls-2" cx="628.23" cy="539.47" r="19.64"/>
  <circle class="cls-2" cx="608.59" cy="689.84" r="19.64"/>
  <circle class="cls-2" cx="342.45" cy="559.11" r="19.64"/>
</svg>