<?xml version="1.0" encoding="UTF-8"?>
<svg id="Livello_1" data-name="Livello 1" xmlns="http://www.w3.org/2000/svg" viewBox="0 0 1080 1080">
  <defs>
    <style>
      .cls-1 {
        fill: #f0c807;
      }

      .cls-1, .cls-2, .cls-3, .cls-4 {
        stroke-width: 0px;
      }

      .cls-5, .cls-3 {
        opacity: .06;
      }

      .cls-6 {
        opacity: .48;
      }

      .cls-2 {
        fill: #fff1d0;
      }

      .cls-3, .cls-4 {
        fill: #083147;
      }
    </style>
  </defs>
  <path class="cls-1" d="m753.11,1017.71l-428.95-1.23c-37.73-.11-72.54-20.34-91.31-53.07L19.44,591.32c-18.77-32.73-18.66-72.99.3-105.61L235.28,114.84c18.96-32.62,53.88-52.65,91.61-52.54l428.95,1.23c37.73.11,72.54,20.34,91.31,53.07l213.41,372.09c18.77,32.73,18.66,72.99-.3,105.61l-215.54,370.87c-18.96,32.62-53.88,52.65-91.61,52.54Z"/>
  <g class="cls-6">
    <g class="cls-5">
      <path class="cls-4" d="m624.19,554.18c-.75-1.29-1.39-2.63-1.94-3.99-1.12-2.78-3.82-4.53-6.82-4.43-.36.01-.72.02-1.07.02h-157c-11.26,0-21.67-6.01-27.31-15.77l-78.5-135.97c-5.63-9.76-5.63-21.78,0-31.53l78.5-135.97c5.63-9.76,16.04-15.77,27.31-15.77h157c11.27,0,21.67,6.01,27.31,15.77l78.5,135.97c.75,1.29,1.39,2.63,1.94,3.99,1.12,2.78,3.82,4.53,6.82,4.43.36-.01.71-.02,1.07-.02h121.65c4.86,0,8.22-4.88,6.47-9.42-1-2.58-2.2-5.1-3.6-7.54l-134.48-232.93c-9.65-16.71-27.48-27.01-46.78-27.01h-268.97c-19.3,0-37.13,10.3-46.78,27.01l-134.48,232.93c-9.65,16.71-9.65,37.3,0,54.02l134.49,232.93c9.65,16.71,27.48,27.01,46.78,27.01h268.97c1.74,0,3.48-.08,5.19-.25,5-.48,7.81-6.01,5.29-10.36l-59.54-103.13Z"/>
      <path class="cls-4" d="m441.92,525.82c.75,1.29,1.39,2.63,1.94,3.99,1.12,2.78,3.82,4.53,6.82,4.43.36-.01.72-.02,1.07-.02h157c11.26,0,21.67,6.01,27.31,15.77l78.5,135.97c5.63,9.76,5.63,21.78,0,31.53l-78.5,135.97c-5.63,9.76-16.04,15.77-27.31,15.77h-157c-11.27,0-21.67-6.01-27.31-15.77l-78.5-135.97c-.75-1.29-1.39-2.63-1.94-3.99-1.12-2.78-3.82-4.53-6.82-4.43-.36.01-.71.02-1.07.02h-121.65c-4.86,0-8.22,4.88-6.47,9.42,1,2.58,2.2,5.1,3.6,7.54l134.48,232.93c9.65,16.71,27.48,27.01,46.78,27.01h268.97c19.3,0,37.13-10.3,46.78-27.01l134.48-232.93c9.65-16.71,9.65-37.3,0-54.02l-134.49-232.93c-9.65-16.71-27.48-27.01-46.78-27.01h-268.97c-1.74,0-3.48.08-5.19.25-5,.48-7.81,6.01-5.29,10.36l59.54,103.13Z"/>
    </g>
    <path class="cls-3" d="m1033.42,540.37l-29.64,51.33c-4.05,7.02-11.55,11.35-19.65,11.35h-59.27c-8.11,0-15.6-4.33-19.65-11.35l-29.64-51.33c-4.05-7.02-4.05-15.67,0-22.7l29.64-51.33c4.05-7.02,11.55-11.35,19.65-11.35h59.27c8.11,0,15.6,4.33,19.65,11.35l29.64,51.33c4.05,7.02,4.05,15.67,0,22.7Z"/>
  </g>
  <g>
    <path class="cls-2" d="m449.7,544.1c-9.79,6.89-46.38-29.1-49.43-32.13-32.4-32.17-46.21-62.61-51.9-77.23-7.75-19.93-8.95-32.41-7.41-43.87.76-5.64,5.85-12.32,8.03-24.71.34-1.91.79-4.9,1.65-4.94,1.9-.1,4.09,14.51,4.53,17.3,4.51,28.44,23.82,62.93,28.83,71.88,12.48,22.28,41.6,66.82,59.21,76.1,1.73.91,9.04,4.48,9.58,10.19.28,2.95-1.29,6.15-3.09,7.41Z"/>
    <path class="cls-2" d="m838.44,666.13c-14.59-45.09-43.39-80.23-44.43-81.49.04.06.08.12.11.18,1.75,2.97,2.98,5.07,2.27,5.97-1.79,2.25-13.16-6.18-26.57-10.5-13.93-4.49-25.42-3.05-34.8-2.16-56.19,5.32-112.86,1.56-169.29,2.78-49.09,1.06-79.77.74-102.56-21.01-3.17-3.03-5.73-6.04-7.79-8.76-75.37-25.65-109.28-104.16-118.21-136.26-2.31-8.29-3.59-15.79-3.3-24.3.38-11.13,3.38-21.8,24.3-56.84,20.74-34.73,31.11-52.1,35.42-56.43,2.61-2.62,8.49-8.24,10.71-17.3,2.54-10.38-1.16-19.47-3.3-24.71-24.99-61.49-27.23-70.78-43.25-95.15-.91-1.39-2.63-6.02-7-10.3,0,0-3.61-3.53-8.65-5.97-7.88-3.82-42.46-3.48-89.17,2.88l1.85,5.15c7.53,45.05,34.26,203.31,54.37,289.15,1.82,7.77,5.18,21.77,11.12,39.54,13.35,39.96,26.41,59.2,56.84,112.45,0,0,77.56,135.74,102.56,169.29,1.46,1.96,3.69,4.2,7.41,9.47,1.67,2.36,2.58,3.83,4.53,5.35,2.45,1.91,5.16,2.81,7.83,3.3,11.37,2.07,21.42-1.24,21.42-1.24,29.41-9.68,296.19-82.42,312.21-80.73.57.06,3.58.5,5.35-1.24,2.62-2.57.91-8.31,0-11.12Z"/>
    <path class="cls-2" d="m456.24,539.25c-1.28-1.33.2,1.64,1.11-2.78,0,0,.51.03,4.29-2.52,14.06-9.48,81.8,6.64,81.8,6.64,36,10.32,65.11,12.32,78.82,13.18,31.1,1.96,90.2,1.48,120.85,1.24,1.06,0,3.74-.03,7.28.41,15.78,1.97,26.33,10.41,30.72,14,1.93,1.59,6.21,5.28,9.7,11.33,1.71,2.97,2.93,5.07,2.22,5.97-1.76,2.25-12.92-6.18-26.07-10.5-13.67-4.49-24.94-3.05-34.15-2.16-55.13,5.32-110.75,1.56-166.12,2.78-48.17,1.06-78.28.74-100.64-21.01-5.57-5.41-7.29-10.6-9.55-14.31"/>
    <g>
      <path class="cls-2" d="m604.68,839.68c1.09,11.71,9.48,10.8,17.78,10.49,10.11-.37,22.12,3.05,23.51-12.97,4.02,10.95,14.94,5.59,22.02,9.29-1.7,1.72-5.03-.39-6.67,3.43,20.78,7.25,40.06,17.83,61.43,23.08,17.6,11.77,37.86,17.56,57.25,25.29,14.84,6.51,29.78,12.82,44.45,19.7,3.21,1.5,11.06,2.56,4.24,9.32-1.52-2.98-4.53-3.7-7.3-4.76-56.96-21.74-114.06-43.1-170.77-65.46-14.5-5.72-28.45-6.93-42.14-.83-45.1,20.09-90.04,40.56-134.61,61.77-9.45,4.5-20.84,4.23-28.7,12.18-12.55-10.3,1.99-8.25,5.19-11.37,17.37-8.4,34.94-16.42,52.03-25.34,12.63-6.59,26.43-11.01,37.75-20.06,6.95-3.04,14.26-5.47,20.78-9.26,10.37-6.02,23.18-8.03,30.96-18.39,4.24-2.09,9.46-2.13,12.79-6.11Z"/>
      <path class="cls-2" d="m591.88,845.79c-7.78,10.36-20.58,12.37-30.96,18.39-6.52,3.79-13.83,6.22-20.78,9.25-16.45.38-32.98,1.97-49.31.75-13.33-.99-24.98,6.05-37.93,5.12-7.45-1.52-15.62-2.27-14.11-13.29,46.48-7.37,92.97-14.66,139.88-18.82,2,.51,3.94.65,5.56-.99,2.55-.14,5.1-.28,7.65-.41Z"/>
      <path class="cls-2" d="m722.75,873c-21.37-5.25-40.65-15.83-61.43-23.08,1.64-3.82,4.97-1.71,6.67-3.43,39.4,3.63,78.39,10.26,117.45,16.32,1.94.3,3.72,1.68,5.58,2.55-2.62,7.99-8.89,11.22-16.54,12.66-16.74-6.87-34.3-5.29-51.73-5.03Z"/>
      <path class="cls-2" d="m782.32,921.89c-21.22-8.51-43.45-13.81-65.28-20.37-22.57-6.78-45.26-13.15-67.86-19.81-13.34-3.93-26.62-5.42-40.13-.67-41.65,14.64-83.32,29.2-125,43.74-2.47.86-4.9,1.57-5.89,4.35-15.4,9.65-25.66,9.99-33,1.07,7.86-7.95,19.25-7.68,28.7-12.18,44.58-21.21,89.51-41.69,134.61-61.77,13.7-6.1,27.64-4.89,42.14.83,56.71,22.36,113.81,43.72,170.77,65.46,2.77,1.06,5.78,1.78,7.3,4.76-8.4,8.33-18.66,9-30.45,1.94-5.05-3.02-9.43-7.47-15.92-7.35Z"/>
      <path class="cls-2" d="m651.18,726.89l-53.39,15.31,2.09,7.37c4.24,29.89,6.06,59.91,4.8,90.1,1.09,11.71,9.48,10.8,17.78,10.49,10.11-.37,22.12,3.05,23.51-12.97-1.45-31.02,2.23-61.75,5.21-92.52v-17.79Z"/>
    </g>
  </g>
</svg>