<?xml version="1.0" encoding="UTF-8"?>
<svg id="Livello_1" data-name="Livello 1" xmlns="http://www.w3.org/2000/svg" viewBox="0 0 1080 1080">
  <defs>
    <style>
      .cls-1 {
        fill: #f0c807;
      }

      .cls-1, .cls-2, .cls-3, .cls-4 {
        stroke-width: 0px;
      }

      .cls-5, .cls-2 {
        opacity: .06;
      }

      .cls-2, .cls-4 {
        fill: #fff1d0;
      }

      .cls-3 {
        fill: #09afd6;
      }

      .cls-6 {
        opacity: .77;
      }
    </style>
  </defs>
  <path class="cls-3" d="m753.11,1017.71l-428.95-1.23c-37.73-.11-72.54-20.34-91.31-53.07L19.44,591.32c-18.77-32.73-18.66-72.99.3-105.61L235.28,114.84c18.96-32.62,53.88-52.65,91.61-52.54l428.95,1.23c37.73.11,72.54,20.34,91.31,53.07l213.41,372.09c18.77,32.73,18.66,72.99-.3,105.61l-215.54,370.87c-18.96,32.62-53.88,52.65-91.61,52.54Z"/>
  <g class="cls-6">
    <g class="cls-5">
      <path class="cls-4" d="m640.16,548.18c-.75-1.29-1.39-2.63-1.94-3.99-1.12-2.78-3.82-4.53-6.82-4.43-.36.01-.72.02-1.07.02h-157c-11.26,0-21.67-6.01-27.31-15.77l-78.5-135.97c-5.63-9.76-5.63-21.78,0-31.53l78.5-135.97c5.63-9.76,16.04-15.77,27.31-15.77h157c11.27,0,21.67,6.01,27.31,15.77l78.5,135.97c.75,1.29,1.39,2.63,1.94,3.99,1.12,2.78,3.82,4.53,6.82,4.43.36-.01.71-.02,1.07-.02h121.65c4.86,0,8.22-4.88,6.47-9.42-1-2.58-2.2-5.1-3.6-7.54l-134.48-232.93c-9.65-16.71-27.48-27.01-46.78-27.01h-268.97c-19.3,0-37.13,10.3-46.78,27.01l-134.48,232.93c-9.65,16.71-9.65,37.3,0,54.02l134.49,232.93c9.65,16.71,27.48,27.01,46.78,27.01h268.97c1.74,0,3.48-.08,5.19-.25,5-.48,7.81-6.01,5.29-10.36l-59.54-103.13Z"/>
      <path class="cls-4" d="m457.89,519.82c.75,1.29,1.39,2.63,1.94,3.99,1.12,2.78,3.82,4.53,6.82,4.43.36-.01.72-.02,1.07-.02h157c11.26,0,21.67,6.01,27.31,15.77l78.5,135.97c5.63,9.76,5.63,21.78,0,31.53l-78.5,135.97c-5.63,9.76-16.04,15.77-27.31,15.77h-157c-11.27,0-21.67-6.01-27.31-15.77l-78.5-135.97c-.75-1.29-1.39-2.63-1.94-3.99-1.12-2.78-3.82-4.53-6.82-4.43-.36.01-.71.02-1.07.02h-121.65c-4.86,0-8.22,4.88-6.47,9.42,1,2.58,2.2,5.1,3.6,7.54l134.48,232.93c9.65,16.71,27.48,27.01,46.78,27.01h268.97c19.3,0,37.13-10.3,46.78-27.01l134.48-232.93c9.65-16.71,9.65-37.3,0-54.02l-134.49-232.93c-9.65-16.71-27.48-27.01-46.78-27.01h-268.97c-1.74,0-3.48.08-5.19.25-5,.48-7.81,6.01-5.29,10.36l59.54,103.13Z"/>
    </g>
    <path class="cls-2" d="m1049.39,534.37l-29.64,51.33c-4.05,7.02-11.55,11.35-19.65,11.35h-59.27c-8.11,0-15.6-4.33-19.65-11.35l-29.64-51.33c-4.05-7.02-4.05-15.67,0-22.7l29.64-51.33c4.05-7.02,11.55-11.35,19.65-11.35h59.27c8.11,0,15.6,4.33,19.65,11.35l29.64,51.33c4.05,7.02,4.05,15.67,0,22.7Z"/>
  </g>
  <path class="cls-1" d="m925.22,465.13c0,7.55-1.95,15.1-5.86,21.86l-73.65,127.57c-7.81,13.53-22.24,21.86-37.86,21.86h-147.3c-15.62,0-30.05-8.33-37.86-21.86l-73.65-127.57c-3.9-6.76-5.86-14.31-5.86-21.86"/>
  <path class="cls-4" d="m965.22,432.05l-88.62-153.5c-11.78-20.41-33.74-33.08-57.3-33.08h-136.02c-4.99,0-9.04,4.05-9.04,9.04v9.05c0,4.99,4.05,9.04,9.04,9.04h136.02c13.9,0,26.86,7.48,33.81,19.52l88.62,153.5c6.95,12.04,6.95,27,0,39.04l-88.62,153.5c-6.95,12.04-19.91,19.52-33.81,19.52h-177.24c-13.9,0-26.86-7.48-33.81-19.52l-26.48-45.86-60.21-104.29c-11.78-20.41-33.74-33.08-57.3-33.08h-177.24c-23.56,0-45.52,12.68-57.3,33.08l-88.62,153.5c-11.78,20.41-11.78,45.76,0,66.17l88.62,153.5c11.78,20.41,33.74,33.08,57.3,33.08h134.02c6.1,0,11.05-4.95,11.05-11.05v-5.03c0-6.1-4.95-11.05-11.05-11.05h-134.02c-13.9,0-26.86-7.48-33.81-19.52l-88.62-153.5c-6.95-12.04-6.95-27,0-39.04l88.62-153.5c6.95-12.04,19.91-19.52,33.81-19.52h177.24c13.9,0,26.86,7.48,33.81,19.52l2.58,4.47s0,0,0,0l84.1,145.67c11.78,20.41,33.74,33.08,57.3,33.08h177.24c23.56,0,45.52-12.68,57.3-33.08l88.62-153.5c11.78-20.41,11.78-45.76,0-66.17Z"/>
  <path class="cls-1" d="m188.2,682.53c0-7.55,1.95-15.1,5.86-21.86l73.65-127.57c7.81-13.53,22.24-21.86,37.86-21.86h147.3c15.62,0,30.05,8.33,37.86,21.86l73.65,127.57c3.9,6.76,5.86,14.31,5.86,21.86H188.2Z"/>
  <circle class="cls-4" cx="734.2" cy="389.94" r="51.58"/>
  <circle class="cls-4" cx="372.11" cy="752.87" r="51.58"/>
</svg>