<?xml version="1.0" encoding="UTF-8"?>
<svg id="Livello_1" data-name="Livello 1" xmlns="http://www.w3.org/2000/svg" viewBox="0 0 1080 1080">
  <defs>
    <style>
      .cls-1, .cls-2 {
        opacity: .06;
      }

      .cls-3, .cls-2 {
        fill: #09afd6;
      }

      .cls-3, .cls-2, .cls-4 {
        stroke-width: 0px;
      }

      .cls-4 {
        fill: #fff1d0;
      }
    </style>
  </defs>
  <path class="cls-4" d="m753.11,1017.71l-428.95-1.23c-37.73-.11-72.54-20.34-91.31-53.07L19.44,591.32c-18.77-32.73-18.66-72.99.3-105.61L235.28,114.84c18.96-32.62,53.88-52.65,91.61-52.54l428.95,1.23c37.73.11,72.54,20.34,91.31,53.07l213.41,372.09c18.77,32.73,18.66,72.99-.3,105.61l-215.54,370.87c-18.96,32.62-53.88,52.65-91.61,52.54Z"/>
  <g>
    <g class="cls-1">
      <path class="cls-3" d="m636.25,554.18c-.75-1.29-1.39-2.63-1.94-3.99-1.12-2.78-3.82-4.53-6.82-4.43-.36.01-.72.02-1.07.02h-157c-11.26,0-21.67-6.01-27.31-15.77l-78.5-135.97c-5.63-9.76-5.63-21.78,0-31.53l78.5-135.97c5.63-9.76,16.04-15.77,27.31-15.77h157c11.27,0,21.67,6.01,27.31,15.77l78.5,135.97c.75,1.29,1.39,2.63,1.94,3.99,1.12,2.78,3.82,4.53,6.82,4.43.36-.01.71-.02,1.07-.02h121.65c4.86,0,8.22-4.88,6.47-9.42-1-2.58-2.2-5.1-3.6-7.54l-134.48-232.93c-9.65-16.71-27.48-27.01-46.78-27.01h-268.97c-19.3,0-37.13,10.3-46.78,27.01l-134.48,232.93c-9.65,16.71-9.65,37.3,0,54.02l134.49,232.93c9.65,16.71,27.48,27.01,46.78,27.01h268.97c1.74,0,3.48-.08,5.19-.25,5-.48,7.81-6.01,5.29-10.36l-59.54-103.13Z"/>
      <path class="cls-3" d="m453.98,525.82c.75,1.29,1.39,2.63,1.94,3.99,1.12,2.78,3.82,4.53,6.82,4.43.36-.01.72-.02,1.07-.02h157c11.26,0,21.67,6.01,27.31,15.77l78.5,135.97c5.63,9.76,5.63,21.78,0,31.53l-78.5,135.97c-5.63,9.76-16.04,15.77-27.31,15.77h-157c-11.27,0-21.67-6.01-27.31-15.77l-78.5-135.97c-.75-1.29-1.39-2.63-1.94-3.99-1.12-2.78-3.82-4.53-6.82-4.43-.36.01-.71.02-1.07.02h-121.65c-4.86,0-8.22,4.88-6.47,9.42,1,2.58,2.2,5.1,3.6,7.54l134.48,232.93c9.65,16.71,27.48,27.01,46.78,27.01h268.97c19.3,0,37.13-10.3,46.78-27.01l134.48-232.93c9.65-16.71,9.65-37.3,0-54.02l-134.49-232.93c-9.65-16.71-27.48-27.01-46.78-27.01h-268.97c-1.74,0-3.48.08-5.19.25-5,.48-7.81,6.01-5.29,10.36l59.54,103.13Z"/>
    </g>
    <path class="cls-2" d="m1045.49,540.37l-29.64,51.33c-4.05,7.02-11.55,11.35-19.65,11.35h-59.27c-8.11,0-15.6-4.33-19.65-11.35l-29.64-51.33c-4.05-7.02-4.05-15.67,0-22.7l29.64-51.33c4.05-7.02,11.55-11.35,19.65-11.35h59.27c8.11,0,15.6,4.33,19.65,11.35l29.64,51.33c4.05,7.02,4.05,15.67,0,22.7Z"/>
  </g>
  <path class="cls-3" d="m964.12,352.4H115.88c-3.46,0-6.27,3.09-6.27,6.91v2.79c0,3.51,2.39,6.47,5.56,6.87l186.41,23.41c.26.03.52.05.77.04l1.34-.02-146.15,410.64,6.14,2.27,190.47-413.49,185.84-2.14,185.84,2.14,190.47,413.49,6.14-2.27-146.15-410.64,1.34.02c.26,0,.52-.01.77-.04l186.41-23.41c3.17-.4,5.56-3.35,5.56-6.87v-2.79c0-3.82-2.81-6.91-6.27-6.91Zm-697.83,195.9c-1.2,2.23,2.17-23.22,3.09-25.68l48.9-130.39,25.45-.29-77.45,156.36Zm544.32-25.68c.92,2.46,4.29,27.91,3.09,25.68l-77.45-156.36,25.45.29,48.9,130.39Z"/>
</svg>