<?xml version="1.0" encoding="UTF-8"?>
<svg id="Livello_1" data-name="Livello 1" xmlns="http://www.w3.org/2000/svg" viewBox="0 0 3196.25 1025.94">
  <defs>
    <style>
      .cls-1 {
        fill: #fff;
        stroke-width: 0px;
      }
    </style>
  </defs>
  <g>
    <path class="cls-1" d="m2266.48,805.62c1.13-.65,2.3-1.21,3.49-1.69,2.43-.97,3.97-3.33,3.89-5.94,0-.31-.01-.62-.01-.94l.38-137.14c.03-9.84,5.3-18.92,13.84-23.81l118.96-68.24c8.54-4.9,19.03-4.87,27.54.08l118.58,68.9c8.51,4.94,13.73,14.05,13.71,23.89l-.38,137.14c-.03,9.84-5.3,18.92-13.84,23.81l-118.96,68.24c-1.13.65-2.3,1.21-3.49,1.69-2.43.97-3.97,3.33-3.89,5.94,0,.31.01.62.01.94l-.3,106.27c-.01,4.25,4.25,7.19,8.21,5.67,2.26-.86,4.46-1.91,6.59-3.13l203.8-116.91c14.62-8.39,23.66-23.94,23.71-40.8l.65-234.95c.05-16.86-8.9-32.46-23.48-40.93l-203.15-118.04c-14.58-8.47-32.56-8.52-47.19-.13l-203.8,116.91c-14.62,8.39-23.66,23.94-23.71,40.8l-.65,234.95c0,1.52.07,3.04.21,4.53.41,4.37,5.23,6.83,9.04,4.65l90.23-51.76Z"/>
    <path class="cls-1" d="m2916.15,179.04l1.65,211.04c.17,22.12-11.47,42.65-30.53,53.86l-181.94,106.95c-19.07,11.21-42.67,11.39-61.91.48l-183.59-104.09c-19.24-10.91-31.2-31.25-31.37-53.37l-1.65-211.04c-.17-22.12,11.47-42.65,30.53-53.86l181.94-106.95c19.07-11.21,42.67-11.39,61.91-.48l183.59,104.09c19.24,10.91,31.2,31.25,31.37,53.37Z"/>
    <path class="cls-1" d="m3175.97,612.2l1.65,211.04c.17,22.12-11.47,42.65-30.53,53.86l-181.94,106.95c-19.07,11.21-42.67,11.39-61.91.48l-183.59-104.09c-19.24-10.91-31.2-31.25-31.37-53.37l-1.65-211.04c-.17-22.12,11.47-42.65,30.53-53.86l181.94-106.95c19.07-11.21,42.67-11.39,61.91-.48l183.59,104.09c19.24,10.91,31.2,31.25,31.37,53.37Z"/>
  </g>
  <g>
    <path class="cls-1" d="m1638.5,332.01c5.4,0,9.78,4.23,9.78,9.45v343.02c0,40.78,38.88,78.67,56.16,78.67s56.16-37.89,56.16-78.67v-257.31c0-31.07-6.91-50.49-26.79-50.49-1.21,0-3.18,0-5.28.1-4.19.2-8.07-2.15-9.63-5.92l-9.98-24.09c-2.31-5.58,1.27-11.79,7.4-12.82,10.4-1.73,23.86-3.88,27.86-3.88,40.61,0,61.35,25.25,61.35,95.15v259.25c0,56.32-63.08,171.86-101.09,171.86s-101.09-115.54-101.09-171.86v-343.02c0-5.22,4.38-9.45,9.78-9.45h25.36Z"/>
    <path class="cls-1" d="m1493.62,574.56c28.52-14.57,41.48-33.98,41.48-72.82v-68.94c0-67.97-43.2-110.69-101.09-110.69s-101.09,42.72-101.09,110.69v312.66c0,67.97,43.2,110.69,101.09,110.69s101.09-42.72,101.09-110.69v-99.03c0-5.74-4.82-10.39-10.76-10.39h-23.4c-5.94,0-10.76,4.65-10.76,10.39v99.03c0,38.84-23.33,64.09-56.16,64.09s-56.16-25.25-56.16-64.09v-106.92c0-2.32,1.32-4.46,3.44-5.56l112.34-58.41Zm-115.78-141.76c0-38.84,23.33-64.09,56.16-64.09s56.16,25.25,56.16,64.09v68.94c0,17.3-6.78,28.89-20.33,35.72-.27.14-.53.29-.78.47l-80.74,58.83c-4.31,3.14-10.48.17-10.48-5.04v-158.92Z"/>
    <path class="cls-1" d="m1974.9,330.07c-57.89,0-101.09,42.09-101.09,109.04v307.99c0,66.96,43.2,109.04,101.09,109.04s101.09-42.08,101.09-109.04v-307.99c0-66.95-43.2-109.04-101.09-109.04Zm56.16,417.03c0,38.26-23.33,63.13-56.16,63.13s-56.16-24.87-56.16-63.13v-307.99c0-38.26,23.33-63.13,56.16-63.13s56.16,24.87,56.16,63.13v307.99Zm-7.36-371.12c-7.2,0-13.04-5.72-13.04-12.78s5.84-12.78,13.04-12.78,13.04,5.72,13.04,12.78-5.84,12.78-13.04,12.78Z"/>
    <ellipse class="cls-1" cx="778.53" cy="350.96" rx="30.28" ry="28.85"/>
    <path class="cls-1" d="m1069.91,856.4c-10.77,0-21.79-.69-33.04-2.12-51.44-6.5-94.47-27.55-124.44-60.9-32.94-36.64-48-86.78-43.57-144.99,0-68.22,2-70.19,69.17-70.19,54.14,0,56.24,2.12,56.27,56.68,0,2.49-.01,4.95-.02,7.4-.04,7.57-.07,15.4.29,23.01,2.03,42.62,25.62,66.45,68.22,68.92,42.3,2.47,68.42-17.65,77.66-59.73,11.16-50.81-3.67-94.15-45.34-132.48-42.48-39.09-86.05-78.45-128.18-116.51l-7.85-7.09c-74.41-67.24-102.13-142.74-84.74-230.83,16.98-85.99,67.21-134.1,153.58-147.07,101.76-15.28,176.33,16.06,215.67,90.62,22.38,42.42,22.32,88.35,22.27,132.76,0,4.27-.01,8.54,0,12.81.02,5.57-1.36,9.62-4.22,12.36-4.18,4.01-10.01,3.75-14.7,3.54-1.08-.05-2.14-.11-3.19-.09-9.94.07-19.88,0-29.82-.06-17.38-.11-35.35-.23-52.94.45-7.94.3-13.3-1.18-16.88-4.67-4.64-4.53-5.18-11.38-5.07-18.1l.08-4.71c.3-17.38.62-35.36-2.78-52.01-8.52-41.78-33.85-59.46-79.69-55.64-36.2,3.02-59.55,29.76-60.95,69.79-.89,25.43,6.55,47.35,22.73,67.02,36,43.75,79.73,80.99,122.02,117.01,12.58,10.71,25.58,21.78,38.2,32.87,80.68,70.9,106.56,160.54,79.11,274.04-20.6,85.2-94.16,137.87-187.87,137.88Zm-131.88-268.17c-29.68,0-46.02,0-52.57,6.67-6.59,6.71-6.59,23.4-6.59,53.69v.38c-9.85,127.98,75.81,184.84,159.25,195.38,103.86,13.11,188.22-38.4,209.93-128.18,26.49-109.54,1.63-195.95-75.99-264.17-12.56-11.03-25.53-22.08-38.08-32.77-42.62-36.3-86.7-73.83-123.26-118.27-17.56-21.34-25.97-46.14-25-73.73,1.59-45.52,28.46-75.95,70.12-79.42,50.47-4.21,80.86,17.19,90.34,63.62,3.62,17.73,3.29,36.26,2.98,54.19l-.08,4.69c-.09,5.97.54,9.29,2.06,10.78,1.43,1.4,4.62,2.02,9.49,1.83,17.81-.69,35.9-.57,53.39-.45,9.89.06,19.79.13,29.68.06,1.21,0,2.46.05,3.71.1,2.78.13,6.23.28,7.32-.76.35-.33,1.15-1.5,1.14-5.1-.01-4.29,0-8.57,0-12.86.06-45.18.11-87.86-21.11-128.08-46.96-89-137.58-95.56-205.33-85.39-81.68,12.26-129.19,57.76-145.25,139.1-16.65,84.34,10.05,156.78,81.63,221.46l7.85,7.09c42.15,38.08,85.73,77.45,128.24,116.57,44.52,40.96,60.33,87.41,48.34,142-10.31,46.95-40.73,70.36-88.02,67.58-47.8-2.77-75.37-30.63-77.64-78.44-.37-7.88-.34-15.84-.3-23.53.01-2.44.02-4.88.02-7.32-.01-23.7-.02-36.73-4.97-41.73-4.94-4.98-17.85-4.98-41.28-4.98Z"/>
    <path class="cls-1" d="m758.03,422.76v51.35h-155.21v-70.99c0-31.1,15.87-46.29,46.73-46.29,1.96,0,3.91.1,5.87.21v-34.41c-3.31-.33-6.72-.52-10.28-.52-56.43,0-88.17,30.38-88.17,81.01v70.99h-136.79v-70.99c0-31.1,15.87-46.29,46.73-46.29,1.96,0,3.91.1,5.87.21v-34.41c-3.31-.33-6.72-.52-10.28-.52-56.43,0-88.18,30.38-88.18,81.01v70.99h-87.16c-16.53,0-28.79-3.31-36.89-9.83v-51.64c0-55.66-47.64-90.54-115.82-90.54s-115.83,34.88-115.83,90.54v352.52c0,56.4,47.64,91.28,115.83,91.28s115.82-34.88,115.82-91.28v-258.55c10.76,3.37,23.11,5.12,36.89,5.12h87.16v343.48h45.85v-343.48h136.79v343.48h45.85v-343.48h155.21v343.48h45.37v-432.45h-45.37ZM201.7,765.16c0,34.88-27.09,55.66-67.25,55.66s-67.25-20.78-67.25-55.66v-352.52c0-34.88,27.09-54.92,67.25-54.92s67.25,20.04,67.25,54.92v352.52Z"/>
  </g>
</svg>