<?xml version="1.0" encoding="UTF-8"?>
<svg id="Livello_1" data-name="Livello 1" xmlns="http://www.w3.org/2000/svg" viewBox="0 0 1080 1080">
  <defs>
    <style>
      .cls-1 {
        fill: #18626e;
      }

      .cls-1, .cls-2 {
        stroke-width: 0px;
      }

      .cls-3 {
        opacity: .11;
      }

      .cls-2 {
        fill: #00293e;
      }

      .cls-4 {
        fill: #f6f6f6;
        stroke: #1e1e1c;
        stroke-miterlimit: 10;
      }
    </style>
  </defs>
  <path class="cls-2" d="m771.56,1000.2h-467.58c-21.17,0-40.72-11.29-51.31-29.62L18.89,565.65c-10.58-18.33-10.58-40.91,0-59.24L252.67,101.47c10.58-18.33,30.14-29.62,51.31-29.62h467.58c21.17,0,40.72,11.29,51.31,29.62l233.79,404.93c10.58,18.33,10.58,40.91,0,59.24l-233.79,404.94c-10.58,18.33-30.14,29.62-51.31,29.62Z"/>
  <g class="cls-3">
    <path class="cls-1" d="m268.94,735.99c.76-.43,1.53-.81,2.33-1.13,1.62-.65,2.65-2.22,2.6-3.97,0-.21,0-.42,0-.63l.25-91.6c.02-6.57,3.54-12.64,9.24-15.91l79.45-45.58c5.7-3.27,12.71-3.25,18.4.05l79.2,46.02c5.68,3.3,9.17,9.38,9.15,15.96l-.25,91.6c-.02,6.57-3.54,12.64-9.24,15.91l-79.45,45.58c-.76.43-1.53.81-2.33,1.13-1.62.65-2.65,2.22-2.6,3.97,0,.21,0,.42,0,.63l-.2,70.98c0,2.84,2.84,4.8,5.49,3.79,1.51-.58,2.98-1.27,4.4-2.09l136.12-78.08c9.77-5.6,15.8-15.99,15.83-27.25l.44-156.93c.03-11.26-5.95-21.68-15.68-27.34l-135.68-78.84c-9.74-5.66-21.75-5.69-31.52-.09l-136.12,78.09c-9.77,5.6-15.8,15.99-15.83,27.25l-.44,156.93c0,1.02.04,2.03.14,3.03.27,2.92,3.49,4.56,6.04,3.11l60.27-34.57Z"/>
    <path class="cls-1" d="m702.86,317.49l1.1,140.95c.12,14.77-7.66,28.48-20.39,35.97l-121.52,71.43c-12.74,7.49-28.5,7.61-41.35.32l-122.62-69.52c-12.85-7.29-20.84-20.87-20.95-35.65l-1.1-140.95c-.12-14.77,7.66-28.48,20.39-35.97l121.52-71.43c12.74-7.49,28.5-7.61,41.35-.32l122.62,69.52c12.85,7.29,20.84,20.87,20.95,35.65Z"/>
    <path class="cls-1" d="m876.39,606.8l1.1,140.95c.12,14.77-7.66,28.48-20.39,35.97l-121.52,71.43c-12.74,7.49-28.5,7.61-41.35.32l-122.62-69.52c-12.85-7.29-20.84-20.87-20.95-35.65l-1.1-140.95c-.12-14.77,7.66-28.48,20.39-35.97l121.52-71.43c12.74-7.49,28.5-7.61,41.35-.32l122.62,69.52c12.85,7.29,20.84,20.87,20.95,35.65Z"/>
  </g>
  <g>
    <path class="cls-4" d="m146.43,400.55c3.65-1.92,7.81-2.88,12.49-2.88,5.45,0,10.38,1.34,14.8,4.03,4.41,2.69,7.91,6.51,10.48,11.46,2.57,4.95,3.86,10.69,3.86,17.21s-1.29,12.3-3.86,17.33c-2.57,5.03-6.06,8.92-10.48,11.69-4.42,2.76-9.35,4.15-14.8,4.15-4.76,0-8.92-.94-12.49-2.82-3.57-1.88-6.43-4.32-8.58-7.31v9.1h-16.12v-85.21h16.12v30.75c2.07-3.07,4.93-5.57,8.58-7.49Zm22.8,19.86c-1.57-2.8-3.65-4.93-6.22-6.39-2.57-1.46-5.35-2.19-8.35-2.19s-5.66.75-8.23,2.25c-2.57,1.5-4.65,3.67-6.22,6.51-1.57,2.84-2.36,6.18-2.36,10.02s.79,7.18,2.36,10.02c1.57,2.84,3.65,5.01,6.22,6.51,2.57,1.5,5.32,2.25,8.23,2.25s5.78-.77,8.35-2.3c2.57-1.54,4.64-3.72,6.22-6.56,1.57-2.84,2.36-6.22,2.36-10.13s-.79-7.16-2.36-9.96Z"/>
    <path class="cls-4" d="m200.89,388.4c-1.88-1.8-2.82-4.05-2.82-6.74s.94-4.93,2.82-6.74c1.88-1.8,4.24-2.71,7.08-2.71s5.2.9,7.08,2.71c1.88,1.8,2.82,4.05,2.82,6.74s-.94,4.93-2.82,6.74c-1.88,1.8-4.24,2.71-7.08,2.71s-5.2-.9-7.08-2.71Zm15.03,10.31v63.79h-16.12v-63.79h16.12Z"/>
    <path class="cls-4" d="m242.17,460.71c-4.15-1.88-7.43-4.43-9.84-7.66-2.42-3.22-3.74-6.79-3.97-10.71h16.24c.31,2.46,1.51,4.49,3.63,6.1,2.11,1.61,4.74,2.42,7.89,2.42s5.47-.61,7.2-1.84c1.73-1.23,2.59-2.8,2.59-4.72,0-2.07-1.06-3.63-3.17-4.66-2.11-1.04-5.47-2.17-10.08-3.4-4.76-1.15-8.66-2.34-11.69-3.57-3.03-1.23-5.64-3.11-7.83-5.64s-3.28-5.95-3.28-10.25c0-3.53,1.02-6.75,3.05-9.67,2.03-2.92,4.95-5.22,8.75-6.91,3.8-1.69,8.27-2.53,13.42-2.53,7.6,0,13.66,1.9,18.19,5.7,4.53,3.8,7.02,8.92,7.49,15.37h-15.43c-.23-2.53-1.29-4.55-3.17-6.04-1.88-1.5-4.4-2.25-7.54-2.25-2.92,0-5.16.54-6.74,1.61-1.57,1.08-2.36,2.57-2.36,4.49,0,2.15,1.07,3.78,3.22,4.89,2.15,1.11,5.49,2.25,10.02,3.4,4.61,1.15,8.41,2.34,11.4,3.57,2.99,1.23,5.58,3.13,7.77,5.7,2.19,2.57,3.32,5.97,3.4,10.19,0,3.68-1.02,6.99-3.05,9.9-2.04,2.92-4.95,5.2-8.75,6.85-3.8,1.65-8.23,2.48-13.3,2.48s-9.9-.94-14.05-2.82Z"/>
    <path class="cls-4" d="m313.33,411.95v30.86c0,2.15.52,3.7,1.55,4.66,1.04.96,2.78,1.44,5.24,1.44h7.49v13.59h-10.13c-13.59,0-20.38-6.6-20.38-19.81v-30.74h-7.6v-13.24h7.6v-15.78h16.24v15.78h14.28v13.24h-14.28Z"/>
    <path class="cls-4" d="m363.48,400.67c3.34-1.92,7.16-2.88,11.46-2.88v16.93h-4.26c-5.07,0-8.89,1.19-11.46,3.57-2.57,2.38-3.86,6.53-3.86,12.44v31.78h-16.12v-63.79h16.12v9.9c2.07-3.38,4.78-6.03,8.12-7.95Z"/>
    <path class="cls-4" d="m397.51,459.45c-4.91-2.72-8.77-6.58-11.57-11.57-2.8-4.99-4.2-10.75-4.2-17.27s1.44-12.28,4.32-17.27c2.88-4.99,6.81-8.85,11.8-11.57,4.99-2.72,10.55-4.09,16.7-4.09s11.71,1.36,16.7,4.09c4.99,2.73,8.92,6.58,11.8,11.57,2.88,4.99,4.32,10.75,4.32,17.27s-1.48,12.28-4.43,17.27c-2.96,4.99-6.95,8.85-11.98,11.57-5.03,2.73-10.65,4.09-16.87,4.09s-11.67-1.36-16.58-4.09Zm24.81-12.09c2.57-1.42,4.62-3.55,6.16-6.39,1.54-2.84,2.3-6.29,2.3-10.36,0-6.06-1.59-10.73-4.78-13.99-3.19-3.26-7.08-4.89-11.69-4.89s-8.46,1.63-11.57,4.89c-3.11,3.26-4.66,7.93-4.66,13.99s1.51,10.73,4.55,13.99c3.03,3.26,6.85,4.89,11.46,4.89,2.92,0,5.66-.71,8.23-2.13Zm5.47-65.46v11.52l-26.48-12.09v-13.13l26.48,13.7Z"/>
    <path class="cls-4" d="m476.84,445.57l-13.47,32.36h-10.36l7.48-32.36h16.35Z"/>
    <path class="cls-4" d="m614.04,404.98c4.8,4.8,7.2,11.5,7.2,20.09v37.42h-16.12v-35.24c0-4.99-1.27-8.81-3.8-11.46s-5.99-3.97-10.36-3.97-7.85,1.32-10.42,3.97c-2.57,2.65-3.86,6.47-3.86,11.46v35.24h-16.12v-35.24c0-4.99-1.27-8.81-3.8-11.46s-5.99-3.97-10.36-3.97-7.97,1.32-10.54,3.97c-2.57,2.65-3.86,6.47-3.86,11.46v35.24h-16.12v-63.79h16.12v7.71c2.07-2.69,4.74-4.8,8-6.33,3.26-1.54,6.85-2.3,10.77-2.3,4.99,0,9.44,1.06,13.36,3.17,3.92,2.11,6.95,5.12,9.1,9.04,2.07-3.68,5.08-6.64,9.04-8.87,3.95-2.23,8.23-3.34,12.84-3.34,7.83,0,14.14,2.4,18.94,7.2Z"/>
    <path class="cls-4" d="m695.39,435.44h-46.63c.38,4.61,2,8.21,4.84,10.82,2.84,2.61,6.33,3.92,10.48,3.92,5.99,0,10.25-2.57,12.78-7.71h17.39c-1.84,6.14-5.37,11.19-10.59,15.14-5.22,3.95-11.63,5.93-19.23,5.93-6.14,0-11.65-1.36-16.52-4.09-4.88-2.72-8.68-6.58-11.4-11.57-2.73-4.99-4.09-10.75-4.09-17.27s1.34-12.4,4.03-17.39c2.69-4.99,6.45-8.83,11.28-11.52,4.84-2.69,10.4-4.03,16.7-4.03s11.5,1.31,16.29,3.92c4.8,2.61,8.52,6.32,11.17,11.11,2.65,4.8,3.97,10.31,3.97,16.52,0,2.3-.16,4.38-.46,6.22Zm-16.24-10.82c-.08-4.15-1.57-7.46-4.49-9.96-2.92-2.49-6.49-3.74-10.71-3.74-3.99,0-7.35,1.21-10.08,3.63-2.73,2.42-4.4,5.78-5.01,10.08h30.28Z"/>
    <path class="cls-4" d="m761.37,404.98c4.68,4.8,7.02,11.5,7.02,20.09v37.42h-16.12v-35.24c0-5.07-1.27-8.96-3.8-11.69-2.53-2.72-5.99-4.09-10.36-4.09s-7.97,1.36-10.54,4.09c-2.57,2.73-3.86,6.62-3.86,11.69v35.24h-16.12v-63.79h16.12v7.95c2.15-2.76,4.89-4.93,8.23-6.51,3.34-1.57,7-2.36,11-2.36,7.6,0,13.74,2.4,18.42,7.2Z"/>
    <path class="cls-4" d="m794.07,460.71c-4.15-1.88-7.43-4.43-9.84-7.66-2.42-3.22-3.74-6.79-3.97-10.71h16.24c.31,2.46,1.51,4.49,3.63,6.1,2.11,1.61,4.74,2.42,7.89,2.42s5.47-.61,7.2-1.84c1.73-1.23,2.59-2.8,2.59-4.72,0-2.07-1.06-3.63-3.17-4.66-2.11-1.04-5.47-2.17-10.08-3.4-4.76-1.15-8.66-2.34-11.69-3.57-3.03-1.23-5.64-3.11-7.83-5.64s-3.28-5.95-3.28-10.25c0-3.53,1.02-6.75,3.05-9.67,2.03-2.92,4.95-5.22,8.75-6.91,3.8-1.69,8.27-2.53,13.42-2.53,7.6,0,13.66,1.9,18.19,5.7,4.53,3.8,7.02,8.92,7.49,15.37h-15.43c-.23-2.53-1.29-4.55-3.17-6.04-1.88-1.5-4.4-2.25-7.54-2.25-2.92,0-5.16.54-6.74,1.61-1.57,1.08-2.36,2.57-2.36,4.49,0,2.15,1.07,3.78,3.22,4.89,2.15,1.11,5.49,2.25,10.02,3.4,4.61,1.15,8.41,2.34,11.4,3.57,2.99,1.23,5.58,3.13,7.77,5.7,2.19,2.57,3.32,5.97,3.4,10.19,0,3.68-1.02,6.99-3.05,9.9-2.04,2.92-4.95,5.2-8.75,6.85-3.8,1.65-8.23,2.48-13.3,2.48s-9.9-.94-14.05-2.82Z"/>
    <path class="cls-4" d="m905.31,435.44h-46.63c.38,4.61,2,8.21,4.84,10.82,2.84,2.61,6.33,3.92,10.48,3.92,5.99,0,10.25-2.57,12.78-7.71h17.39c-1.84,6.14-5.37,11.19-10.59,15.14-5.22,3.95-11.63,5.93-19.23,5.93-6.14,0-11.65-1.36-16.52-4.09-4.88-2.72-8.68-6.58-11.4-11.57-2.73-4.99-4.09-10.75-4.09-17.27s1.34-12.4,4.03-17.39c2.69-4.99,6.45-8.83,11.28-11.52,4.84-2.69,10.4-4.03,16.7-4.03s11.5,1.31,16.29,3.92c4.8,2.61,8.52,6.32,11.17,11.11,2.65,4.8,3.97,10.31,3.97,16.52,0,2.3-.16,4.38-.46,6.22Zm-16.24-10.82c-.08-4.15-1.57-7.46-4.49-9.96-2.92-2.49-6.49-3.74-10.71-3.74-3.99,0-7.35,1.21-10.08,3.63-2.73,2.42-4.4,5.78-5.01,10.08h30.28Z"/>
    <path class="cls-4" d="m935.13,445.57l-13.47,32.36h-10.36l7.48-32.36h16.35Z"/>
    <path class="cls-4" d="m171.3,550.13v30.86c0,2.15.52,3.7,1.55,4.66,1.04.96,2.78,1.44,5.24,1.44h7.49v13.59h-10.13c-13.59,0-20.38-6.6-20.38-19.81v-30.74h-7.6v-13.24h7.6v-15.78h16.24v15.78h14.28v13.24h-14.28Z"/>
    <path class="cls-4" d="m196.92,551.39c2.57-4.99,6.06-8.83,10.48-11.52,4.41-2.69,9.34-4.03,14.8-4.03,4.76,0,8.92.96,12.49,2.88,3.57,1.92,6.43,4.34,8.58,7.25v-9.1h16.24v63.79h-16.24v-9.33c-2.07,2.99-4.93,5.47-8.58,7.43-3.65,1.96-7.85,2.94-12.61,2.94-5.37,0-10.27-1.38-14.68-4.15-4.42-2.76-7.91-6.66-10.48-11.69-2.57-5.03-3.86-10.8-3.86-17.33s1.29-12.17,3.86-17.16Zm44.04,7.31c-1.54-2.8-3.61-4.95-6.22-6.45-2.61-1.5-5.41-2.25-8.41-2.25s-5.76.73-8.29,2.19c-2.53,1.46-4.59,3.59-6.16,6.39-1.57,2.8-2.36,6.12-2.36,9.96s.79,7.2,2.36,10.08c1.57,2.88,3.64,5.09,6.22,6.62,2.57,1.54,5.31,2.3,8.23,2.3s5.79-.75,8.41-2.25c2.61-1.5,4.68-3.65,6.22-6.45,1.53-2.8,2.3-6.16,2.3-10.08s-.77-7.27-2.3-10.08Z"/>
    <path class="cls-4" d="m301.88,585.82l16.12-48.94h17.16l-23.61,63.79h-19.58l-23.49-63.79h17.27l16.12,48.94Z"/>
    <path class="cls-4" d="m356,597.63c-4.91-2.72-8.77-6.58-11.57-11.57-2.8-4.99-4.2-10.75-4.2-17.27s1.44-12.28,4.32-17.27c2.88-4.99,6.81-8.85,11.8-11.57,4.99-2.72,10.55-4.09,16.7-4.09s11.71,1.36,16.7,4.09c4.99,2.73,8.92,6.58,11.8,11.57,2.88,4.99,4.32,10.75,4.32,17.27s-1.48,12.28-4.43,17.27c-2.96,4.99-6.95,8.85-11.98,11.57-5.03,2.73-10.65,4.09-16.87,4.09s-11.67-1.36-16.58-4.09Zm24.81-12.09c2.57-1.42,4.62-3.55,6.16-6.39,1.54-2.84,2.3-6.29,2.3-10.36,0-6.06-1.59-10.73-4.78-13.99-3.19-3.26-7.08-4.89-11.69-4.89s-8.46,1.63-11.57,4.89c-3.11,3.26-4.66,7.93-4.66,13.99s1.51,10.73,4.55,13.99c3.03,3.26,6.85,4.89,11.46,4.89,2.92,0,5.66-.71,8.23-2.13Z"/>
    <path class="cls-4" d="m433.83,515.47v85.21h-16.12v-85.21h16.12Z"/>
    <path class="cls-4" d="m450.82,526.58c-1.88-1.8-2.82-4.05-2.82-6.74s.94-4.93,2.82-6.74c1.88-1.8,4.24-2.71,7.08-2.71s5.2.9,7.08,2.71c1.88,1.8,2.82,4.05,2.82,6.74s-.94,4.93-2.82,6.74c-1.88,1.8-4.24,2.71-7.08,2.71s-5.2-.9-7.08-2.71Zm15.03,10.31v63.79h-16.12v-63.79h16.12Z"/>
    <path class="cls-4" d="m525.26,515.47v85.21h-16.12v-85.21h16.12Z"/>
    <path class="cls-4" d="m552.9,597.63c-4.91-2.72-8.77-6.58-11.57-11.57-2.8-4.99-4.2-10.75-4.2-17.27s1.44-12.28,4.32-17.27c2.88-4.99,6.81-8.85,11.8-11.57,4.99-2.72,10.55-4.09,16.7-4.09s11.71,1.36,16.7,4.09c4.99,2.73,8.92,6.58,11.8,11.57,2.88,4.99,4.32,10.75,4.32,17.27s-1.48,12.28-4.43,17.27c-2.96,4.99-6.95,8.85-11.98,11.57-5.03,2.73-10.65,4.09-16.87,4.09s-11.67-1.36-16.58-4.09Zm24.81-12.09c2.57-1.42,4.62-3.55,6.16-6.39,1.54-2.84,2.3-6.29,2.3-10.36,0-6.06-1.59-10.73-4.78-13.99-3.19-3.26-7.08-4.89-11.69-4.89s-8.46,1.63-11.57,4.89c-3.11,3.26-4.66,7.93-4.66,13.99s1.51,10.73,4.55,13.99c3.03,3.26,6.85,4.89,11.46,4.89,2.92,0,5.66-.71,8.23-2.13Z"/>
    <path class="cls-4" d="m674.84,536.89v63.79h-16.24v-8.06c-2.07,2.76-4.78,4.93-8.12,6.51-3.34,1.57-6.97,2.36-10.88,2.36-4.99,0-9.4-1.05-13.24-3.17-3.84-2.11-6.85-5.22-9.04-9.33-2.19-4.11-3.28-9-3.28-14.68v-37.42h16.12v35.12c0,5.07,1.27,8.96,3.8,11.69,2.53,2.73,5.99,4.09,10.36,4.09s7.95-1.36,10.48-4.09c2.53-2.72,3.8-6.62,3.8-11.69v-35.12h16.24Z"/>
    <path class="cls-4" d="m744.5,543.16c4.68,4.8,7.02,11.5,7.02,20.09v37.42h-16.12v-35.24c0-5.07-1.27-8.96-3.8-11.69-2.53-2.72-5.99-4.09-10.36-4.09s-7.97,1.36-10.54,4.09c-2.57,2.73-3.86,6.62-3.86,11.69v35.24h-16.12v-63.79h16.12v7.95c2.15-2.76,4.89-4.93,8.23-6.51,3.34-1.57,7-2.36,11-2.36,7.6,0,13.74,2.4,18.42,7.2Z"/>
    <path class="cls-4" d="m804.38,538.67c3.61,1.88,6.45,4.32,8.52,7.31v-9.1h16.24v64.25c0,5.91-1.19,11.19-3.57,15.83-2.38,4.64-5.95,8.33-10.71,11.05-4.76,2.72-10.52,4.09-17.27,4.09-9.06,0-16.49-2.11-22.28-6.33-5.8-4.22-9.08-9.98-9.84-17.27h16.01c.84,2.92,2.67,5.24,5.47,6.97,2.8,1.73,6.2,2.59,10.19,2.59,4.68,0,8.48-1.4,11.4-4.2,2.92-2.8,4.38-7.04,4.38-12.72v-9.9c-2.07,2.99-4.93,5.49-8.58,7.48-3.65,2-7.81,2.99-12.49,2.99-5.37,0-10.29-1.38-14.74-4.15-4.45-2.76-7.96-6.66-10.54-11.69-2.57-5.03-3.86-10.8-3.86-17.33s1.29-12.17,3.86-17.16c2.57-4.99,6.06-8.83,10.48-11.52,4.41-2.69,9.34-4.03,14.8-4.03,4.76,0,8.94.94,12.55,2.82Zm6.22,20.04c-1.54-2.8-3.61-4.95-6.22-6.45-2.61-1.5-5.41-2.25-8.41-2.25s-5.76.73-8.29,2.19c-2.53,1.46-4.59,3.59-6.16,6.39-1.57,2.8-2.36,6.12-2.36,9.96s.79,7.2,2.36,10.08c1.57,2.88,3.64,5.09,6.22,6.62,2.57,1.54,5.31,2.3,8.23,2.3s5.79-.75,8.41-2.25c2.61-1.5,4.68-3.65,6.22-6.45,1.53-2.8,2.3-6.16,2.3-10.08s-.77-7.27-2.3-10.08Z"/>
    <path class="cls-4" d="m903.75,573.62h-46.63c.38,4.61,2,8.21,4.84,10.82,2.84,2.61,6.33,3.92,10.48,3.92,5.99,0,10.25-2.57,12.78-7.71h17.39c-1.84,6.14-5.37,11.19-10.59,15.14-5.22,3.95-11.63,5.93-19.23,5.93-6.14,0-11.65-1.36-16.52-4.09-4.88-2.72-8.68-6.58-11.4-11.57-2.73-4.99-4.09-10.75-4.09-17.27s1.34-12.4,4.03-17.39c2.69-4.99,6.45-8.83,11.28-11.52,4.84-2.69,10.4-4.03,16.7-4.03s11.5,1.31,16.29,3.92c4.8,2.61,8.52,6.32,11.17,11.11,2.65,4.8,3.97,10.31,3.97,16.52,0,2.3-.16,4.38-.46,6.22Zm-16.24-10.82c-.08-4.15-1.57-7.46-4.49-9.96-2.92-2.49-6.49-3.74-10.71-3.74-3.99,0-7.35,1.21-10.08,3.63-2.73,2.42-4.4,5.78-5.01,10.08h30.28Z"/>
    <path class="cls-4" d="m338.9,711.8h-46.63c.38,4.61,2,8.21,4.84,10.82,2.84,2.61,6.33,3.92,10.48,3.92,5.99,0,10.25-2.57,12.78-7.71h17.39c-1.84,6.14-5.37,11.19-10.59,15.14-5.22,3.95-11.63,5.93-19.23,5.93-6.14,0-11.65-1.36-16.52-4.09-4.88-2.72-8.68-6.58-11.4-11.57-2.73-4.99-4.09-10.75-4.09-17.27s1.34-12.4,4.03-17.39c2.69-4.99,6.45-8.83,11.28-11.52,4.84-2.69,10.4-4.03,16.7-4.03s11.5,1.31,16.29,3.92c4.8,2.61,8.52,6.32,11.17,11.11,2.65,4.8,3.97,10.31,3.97,16.52,0,2.3-.16,4.38-.46,6.22Zm-16.24-10.82c-.08-4.15-1.57-7.46-4.49-9.96-2.92-2.49-6.49-3.74-10.71-3.74-3.99,0-7.35,1.21-10.08,3.63-2.73,2.42-4.4,5.78-5.01,10.08h30.28Z"/>
    <path class="cls-4" d="m397.28,688.31v30.86c0,2.15.52,3.7,1.55,4.66,1.04.96,2.78,1.44,5.24,1.44h7.49v13.59h-10.13c-13.59,0-20.38-6.6-20.38-19.81v-30.74h-7.6v-13.24h7.6v-15.78h16.24v15.78h14.28v13.24h-14.28Z"/>
    <path class="cls-4" d="m422.89,689.57c2.57-4.99,6.06-8.83,10.48-11.52,4.41-2.69,9.34-4.03,14.8-4.03,4.76,0,8.92.96,12.49,2.88,3.57,1.92,6.43,4.34,8.58,7.25v-9.1h16.24v63.79h-16.24v-9.33c-2.07,2.99-4.93,5.47-8.58,7.43-3.65,1.96-7.85,2.94-12.61,2.94-5.37,0-10.27-1.38-14.68-4.15-4.42-2.76-7.91-6.66-10.48-11.69-2.57-5.03-3.86-10.8-3.86-17.33s1.29-12.17,3.86-17.16Zm44.04,7.31c-1.54-2.8-3.61-4.95-6.22-6.45-2.61-1.5-5.41-2.25-8.41-2.25s-5.76.73-8.29,2.19c-2.53,1.46-4.59,3.59-6.16,6.39-1.57,2.8-2.36,6.12-2.36,9.96s.79,7.2,2.36,10.08c1.57,2.88,3.64,5.09,6.22,6.62,2.57,1.54,5.31,2.3,8.23,2.3s5.79-.75,8.41-2.25c2.61-1.5,4.68-3.65,6.22-6.45,1.53-2.8,2.3-6.16,2.3-10.08s-.77-7.27-2.3-10.08Z"/>
    <path class="cls-4" d="m527.85,724l16.12-48.94h17.16l-23.61,63.79h-19.58l-23.49-63.79h17.27l16.12,48.94Z"/>
    <path class="cls-4" d="m581.97,735.8c-4.91-2.72-8.77-6.58-11.57-11.57-2.8-4.99-4.2-10.75-4.2-17.27s1.44-12.28,4.32-17.27c2.88-4.99,6.81-8.85,11.8-11.57,4.99-2.72,10.55-4.09,16.7-4.09s11.71,1.36,16.7,4.09c4.99,2.73,8.92,6.58,11.8,11.57,2.88,4.99,4.32,10.75,4.32,17.27s-1.48,12.28-4.43,17.27c-2.96,4.99-6.95,8.85-11.98,11.57-5.03,2.73-10.65,4.09-16.87,4.09s-11.67-1.36-16.58-4.09Zm24.81-12.09c2.57-1.42,4.62-3.55,6.16-6.39,1.54-2.84,2.3-6.29,2.3-10.36,0-6.06-1.59-10.73-4.78-13.99-3.19-3.26-7.08-4.89-11.69-4.89s-8.46,1.63-11.57,4.89c-3.11,3.26-4.66,7.93-4.66,13.99s1.51,10.73,4.55,13.99c3.03,3.26,6.85,4.89,11.46,4.89,2.92,0,5.66-.71,8.23-2.13Z"/>
    <path class="cls-4" d="m659.81,653.65v85.21h-16.12v-85.21h16.12Z"/>
    <path class="cls-4" d="m676.79,664.76c-1.88-1.8-2.82-4.05-2.82-6.74s.94-4.93,2.82-6.74c1.88-1.8,4.24-2.71,7.08-2.71s5.2.9,7.08,2.71c1.88,1.8,2.82,4.05,2.82,6.74s-.94,4.93-2.82,6.74c-1.88,1.8-4.24,2.71-7.08,2.71s-5.2-.9-7.08-2.71Zm15.03,10.31v63.79h-16.12v-63.79h16.12Z"/>
    <path class="cls-4" d="m761.49,681.34c4.68,4.8,7.02,11.5,7.02,20.09v37.42h-16.12v-35.24c0-5.07-1.27-8.96-3.8-11.69-2.53-2.72-5.99-4.09-10.36-4.09s-7.97,1.36-10.54,4.09c-2.57,2.73-3.86,6.62-3.86,11.69v35.24h-16.12v-63.79h16.12v7.95c2.15-2.76,4.89-4.93,8.23-6.51,3.34-1.57,7-2.36,11-2.36,7.6,0,13.74,2.4,18.42,7.2Z"/>
    <path class="cls-4" d="m784.92,664.76c-1.88-1.8-2.82-4.05-2.82-6.74s.94-4.93,2.82-6.74c1.88-1.8,4.24-2.71,7.08-2.71s5.2.9,7.08,2.71c1.88,1.8,2.82,4.05,2.82,6.74s-.94,4.93-2.82,6.74c-1.88,1.8-4.24,2.71-7.08,2.71s-5.2-.9-7.08-2.71Zm15.03,10.31v63.79h-16.12v-63.79h16.12Z"/>
  </g>
</svg>