<?xml version="1.0" encoding="UTF-8"?>
<svg id="Livello_1" data-name="Livello 1" xmlns="http://www.w3.org/2000/svg" viewBox="0 0 1080 1080">
  <defs>
    <style>
      .cls-1 {
        fill: #d5cdc8;
      }

      .cls-1, .cls-2 {
        stroke-width: 0px;
      }

      .cls-3 {
        opacity: .08;
      }

      .cls-2 {
        fill: #0a1623;
      }

      .cls-4 {
        fill: #f6f6f6;
        stroke: #1e1e1c;
        stroke-miterlimit: 10;
      }
    </style>
  </defs>
  <path class="cls-2" d="m775.15,1002.9h-470.29c-21.29,0-40.96-11.36-51.6-29.79L18.1,565.82c-10.64-18.44-10.64-41.15,0-59.59L253.25,98.94c10.64-18.44,30.32-29.79,51.6-29.79h470.29c21.29,0,40.96,11.36,51.6,29.79l235.15,407.29c10.64,18.44,10.64,41.15,0,59.59l-235.15,407.29c-10.64,18.44-30.32,29.79-51.6,29.79Z"/>
  <g class="cls-3">
    <path class="cls-1" d="m288.02,751.28c.76-.44,1.55-.82,2.36-1.14,1.64-.66,2.68-2.25,2.63-4.02,0-.21,0-.42,0-.63l.26-92.71c.02-6.65,3.58-12.79,9.35-16.1l80.42-46.13c5.77-3.31,12.87-3.29,18.62.05l80.16,46.58c5.75,3.34,9.28,9.5,9.26,16.15l-.26,92.71c-.02,6.65-3.58,12.79-9.35,16.1l-80.42,46.13c-.77.44-1.55.82-2.36,1.14-1.64.66-2.68,2.25-2.63,4.02,0,.21,0,.42,0,.63l-.2,71.84c0,2.87,2.87,4.86,5.55,3.84,1.52-.58,3.01-1.29,4.46-2.12l137.77-79.03c9.88-5.67,15.99-16.18,16.03-27.58l.44-158.83c.03-11.4-6.02-21.94-15.87-27.67l-137.33-79.8c-9.85-5.73-22.01-5.76-31.9-.09l-137.77,79.03c-9.88,5.67-15.99,16.18-16.03,27.58l-.44,158.83c0,1.03.04,2.05.14,3.06.28,2.95,3.54,4.62,6.11,3.14l61-34.99Z"/>
    <path class="cls-1" d="m727.2,327.71l1.12,142.66c.12,14.95-7.75,28.83-20.64,36.41l-122.99,72.3c-12.89,7.58-28.84,7.7-41.85.33l-124.11-70.36c-13.01-7.37-21.09-21.13-21.21-36.08l-1.12-142.66c-.12-14.95,7.75-28.83,20.64-36.41l122.99-72.3c12.89-7.58,28.84-7.7,41.85-.33l124.11,70.36c13.01,7.37,21.09,21.13,21.21,36.08Z"/>
    <path class="cls-1" d="m902.84,620.53l1.12,142.66c.12,14.95-7.75,28.83-20.64,36.41l-122.99,72.3c-12.89,7.58-28.84,7.7-41.85.33l-124.11-70.36c-13.01-7.37-21.09-21.13-21.21-36.08l-1.12-142.66c-.12-14.95,7.75-28.83,20.64-36.41l122.99-72.3c12.89-7.58,28.84-7.7,41.85-.33l124.11,70.36c13.01,7.37,21.09,21.13,21.21,36.08Z"/>
  </g>
  <g>
    <path class="cls-4" d="m327.64,414.04l-17.73-31.32h-7.6v31.32h-16.12v-80.37h30.17c6.22,0,11.51,1.09,15.89,3.28s7.66,5.14,9.84,8.87c2.19,3.72,3.28,7.89,3.28,12.49,0,5.3-1.54,10.08-4.61,14.34-3.07,4.26-7.64,7.2-13.7,8.81l19.23,32.59h-18.65Zm-25.33-43.41h13.47c4.38,0,7.64-1.05,9.79-3.17,2.15-2.11,3.22-5.05,3.22-8.81s-1.08-6.54-3.22-8.58c-2.15-2.03-5.41-3.05-9.79-3.05h-13.47v23.61Z"/>
    <path class="cls-4" d="m376.12,333.67v80.37h-16.12v-80.37h16.12Z"/>
    <path class="cls-4" d="m407.9,333.67v49.74c0,5.45,1.42,9.61,4.26,12.49,2.84,2.88,6.83,4.32,11.98,4.32s9.25-1.44,12.09-4.32c2.84-2.88,4.26-7.04,4.26-12.49v-49.74h16.24v49.63c0,6.83-1.48,12.61-4.43,17.33-2.96,4.72-6.91,8.27-11.86,10.65-4.95,2.38-10.46,3.57-16.52,3.57s-11.42-1.19-16.29-3.57c-4.88-2.38-8.73-5.93-11.57-10.65-2.84-4.72-4.26-10.5-4.26-17.33v-49.63h16.12Z"/>
    <path class="cls-4" d="m541.01,414.04h-16.12l-36.5-55.16v55.16h-16.12v-80.49h16.12l36.5,55.27v-55.27h16.12v80.49Z"/>
    <path class="cls-4" d="m573.02,333.67v80.37h-16.12v-80.37h16.12Z"/>
    <path class="cls-4" d="m605.49,409.55c-6.3-3.53-11.29-8.42-14.97-14.68-3.68-6.26-5.53-13.34-5.53-21.24s1.84-14.87,5.53-21.13c3.68-6.26,8.67-11.15,14.97-14.68,6.29-3.53,13.2-5.3,20.73-5.3s14.53,1.77,20.78,5.3c6.26,3.53,11.21,8.43,14.85,14.68,3.65,6.26,5.47,13.3,5.47,21.13s-1.82,14.99-5.47,21.24c-3.65,6.26-8.62,11.15-14.91,14.68-6.3,3.53-13.21,5.3-20.73,5.3s-14.43-1.77-20.73-5.3Zm33.51-12.38c3.68-2.19,6.56-5.31,8.63-9.38,2.07-4.07,3.11-8.79,3.11-14.16s-1.04-10.08-3.11-14.11c-2.07-4.03-4.95-7.12-8.63-9.27-3.69-2.15-7.95-3.22-12.78-3.22s-9.12,1.08-12.84,3.22c-3.72,2.15-6.62,5.24-8.69,9.27-2.07,4.03-3.11,8.73-3.11,14.11s1.04,10.1,3.11,14.16c2.07,4.07,4.97,7.2,8.69,9.38,3.72,2.19,8,3.28,12.84,3.28s9.1-1.09,12.78-3.28Z"/>
    <path class="cls-4" d="m748.05,414.04h-16.12l-36.5-55.16v55.16h-16.12v-80.49h16.12l36.5,55.27v-55.27h16.12v80.49Z"/>
    <path class="cls-4" d="m780.06,333.67v80.37h-16.12v-80.37h16.12Z"/>
    <path class="cls-4" d="m270.07,550.15c-4.49-1.92-8.04-4.68-10.65-8.29-2.61-3.61-3.95-7.87-4.03-12.78h17.27c.23,3.3,1.4,5.91,3.51,7.83,2.11,1.92,5.01,2.88,8.69,2.88s6.72-.9,8.87-2.71c2.15-1.8,3.22-4.16,3.22-7.08,0-2.38-.73-4.34-2.19-5.87-1.46-1.53-3.28-2.74-5.47-3.63-2.19-.88-5.2-1.86-9.04-2.94-5.22-1.53-9.46-3.05-12.72-4.55-3.26-1.5-6.07-3.76-8.41-6.79-2.34-3.03-3.51-7.08-3.51-12.15,0-4.76,1.19-8.9,3.57-12.44,2.38-3.53,5.72-6.24,10.02-8.12,4.3-1.88,9.21-2.82,14.74-2.82,8.29,0,15.03,2.02,20.21,6.05s8.04,9.65,8.58,16.87h-17.73c-.15-2.76-1.32-5.05-3.51-6.85-2.19-1.8-5.09-2.71-8.69-2.71-3.15,0-5.66.81-7.54,2.42-1.88,1.61-2.82,3.95-2.82,7.02,0,2.15.71,3.93,2.13,5.35,1.42,1.42,3.18,2.57,5.3,3.45,2.11.88,5.08,1.9,8.92,3.05,5.22,1.54,9.48,3.07,12.78,4.61,3.3,1.54,6.14,3.84,8.52,6.91,2.38,3.07,3.57,7.1,3.57,12.09,0,4.3-1.11,8.29-3.34,11.98-2.23,3.69-5.49,6.62-9.79,8.81-4.3,2.19-9.4,3.28-15.31,3.28-5.6,0-10.65-.96-15.14-2.88Z"/>
    <path class="cls-4" d="m343.71,484.86v20.15h27.06v12.78h-27.06v21.3h30.51v13.13h-46.63v-80.49h46.63v13.13h-30.51Z"/>
    <path class="cls-4" d="m476.47,471.85v80.37h-16.12v-52.28l-21.53,52.28h-12.21l-21.65-52.28v52.28h-16.12v-80.37h18.31l25.56,59.76,25.56-59.76h18.19Z"/>
    <path class="cls-4" d="m508.48,471.85v80.37h-16.12v-80.37h16.12Z"/>
    <path class="cls-4" d="m593.12,552.22h-16.12l-36.5-55.16v55.16h-16.12v-80.49h16.12l36.5,55.27v-55.27h16.12v80.49Z"/>
    <path class="cls-4" d="m658.29,536.91h-32.01l-5.3,15.31h-16.93l28.9-80.49h18.77l28.9,80.49h-17.04l-5.3-15.31Zm-4.38-12.9l-11.63-33.62-11.63,33.62h23.26Z"/>
    <path class="cls-4" d="m732.9,552.22l-17.73-31.32h-7.6v31.32h-16.12v-80.37h30.17c6.22,0,11.51,1.09,15.89,3.28,4.38,2.19,7.66,5.14,9.84,8.87,2.19,3.72,3.28,7.89,3.28,12.49,0,5.3-1.54,10.08-4.61,14.34-3.07,4.26-7.64,7.2-13.7,8.81l19.23,32.59h-18.65Zm-25.33-43.41h13.47c4.38,0,7.64-1.05,9.79-3.17,2.15-2.11,3.22-5.05,3.22-8.81s-1.08-6.54-3.22-8.58c-2.15-2.03-5.41-3.05-9.79-3.05h-13.47v23.61Z"/>
    <path class="cls-4" d="m781.38,471.85v80.37h-16.12v-80.37h16.12Z"/>
    <path class="cls-4" d="m175.99,628.85c3.57-6.26,8.44-11.13,14.62-14.62,6.18-3.49,13.11-5.24,20.79-5.24,8.98,0,16.85,2.3,23.61,6.91,6.75,4.61,11.47,10.98,14.16,19.11h-18.54c-1.84-3.84-4.43-6.72-7.77-8.64-3.34-1.92-7.2-2.88-11.57-2.88-4.68,0-8.85,1.09-12.49,3.28-3.65,2.19-6.49,5.28-8.52,9.27-2.04,3.99-3.05,8.68-3.05,14.05s1.02,9.96,3.05,13.99c2.03,4.03,4.87,7.14,8.52,9.33,3.65,2.19,7.81,3.28,12.49,3.28,4.38,0,8.23-.98,11.57-2.94,3.34-1.96,5.93-4.85,7.77-8.69h18.54c-2.69,8.22-7.39,14.61-14.11,19.17-6.72,4.57-14.61,6.85-23.66,6.85-7.68,0-14.61-1.75-20.79-5.24-6.18-3.49-11.05-8.35-14.62-14.57-3.57-6.22-5.35-13.28-5.35-21.19s1.78-14.99,5.35-21.25Z"/>
    <path class="cls-4" d="m279.57,685.91c-6.3-3.53-11.29-8.42-14.97-14.68-3.68-6.26-5.53-13.34-5.53-21.25s1.84-14.87,5.53-21.13c3.68-6.26,8.67-11.15,14.97-14.68,6.29-3.53,13.2-5.3,20.73-5.3s14.53,1.77,20.78,5.3c6.26,3.53,11.21,8.43,14.85,14.68,3.64,6.26,5.47,13.3,5.47,21.13s-1.82,14.99-5.47,21.25c-3.65,6.26-8.62,11.15-14.91,14.68-6.3,3.53-13.2,5.3-20.73,5.3s-14.43-1.76-20.73-5.3Zm33.51-12.38c3.68-2.19,6.56-5.32,8.64-9.38,2.07-4.07,3.11-8.79,3.11-14.16s-1.04-10.08-3.11-14.11c-2.07-4.03-4.95-7.12-8.64-9.27-3.68-2.15-7.95-3.22-12.78-3.22s-9.12,1.08-12.84,3.22c-3.72,2.15-6.62,5.24-8.69,9.27-2.07,4.03-3.11,8.73-3.11,14.11s1.04,10.09,3.11,14.16c2.07,4.07,4.97,7.2,8.69,9.38,3.72,2.19,8,3.28,12.84,3.28s9.1-1.09,12.78-3.28Z"/>
    <path class="cls-4" d="m422.12,690.4h-16.12l-36.5-55.16v55.16h-16.12v-80.49h16.12l36.5,55.27v-55.27h16.12v80.49Z"/>
    <path class="cls-4" d="m487.64,610.03v13.01h-33.51v20.61h25.68v12.78h-25.68v33.97h-16.12v-80.37h49.63Z"/>
    <path class="cls-4" d="m515.16,623.04v20.15h27.06v12.78h-27.06v21.3h30.51v13.13h-46.64v-80.49h46.64v13.13h-30.51Z"/>
    <path class="cls-4" d="m601.75,690.4l-17.73-31.32h-7.6v31.32h-16.12v-80.37h30.17c6.22,0,11.51,1.09,15.89,3.28,4.38,2.19,7.66,5.14,9.85,8.87,2.19,3.72,3.28,7.89,3.28,12.49,0,5.3-1.54,10.08-4.61,14.34-3.07,4.26-7.64,7.2-13.7,8.81l19.23,32.59h-18.65Zm-25.33-43.41h13.47c4.38,0,7.64-1.05,9.79-3.17,2.15-2.11,3.22-5.05,3.22-8.81s-1.08-6.54-3.22-8.58c-2.15-2.03-5.41-3.05-9.79-3.05h-13.47v23.61Z"/>
    <path class="cls-4" d="m650.23,623.04v20.15h27.06v12.78h-27.06v21.3h30.51v13.13h-46.63v-80.49h46.63v13.13h-30.51Z"/>
    <path class="cls-4" d="m764.11,690.4h-16.12l-36.5-55.16v55.16h-16.12v-80.49h16.12l36.5,55.27v-55.27h16.12v80.49Z"/>
    <path class="cls-4" d="m796.46,676.81h36.16v13.59h-54.81v-12.44l35.93-54.35h-35.93v-13.59h54.81v12.44l-36.16,54.35Z"/>
    <path class="cls-4" d="m862.44,623.04v20.15h27.06v12.78h-27.06v21.3h30.51v13.13h-46.63v-80.49h46.63v13.13h-30.51Z"/>
  </g>
</svg>