<?xml version="1.0" encoding="UTF-8"?>
<svg id="Livello_1" data-name="Livello 1" xmlns="http://www.w3.org/2000/svg" viewBox="0 0 1080 1080">
  <defs>
    <style>
      .cls-1 {
        fill: #d5cdc8;
      }

      .cls-1, .cls-2 {
        stroke-width: 0px;
      }

      .cls-2 {
        fill: #082229;
      }

      .cls-3 {
        opacity: .14;
      }

      .cls-4 {
        fill: #f6f6f6;
        stroke: #1e1e1c;
        stroke-miterlimit: 10;
      }
    </style>
  </defs>
  <path class="cls-2" d="m777.09,1006.76h-474.18c-21.46,0-41.3-11.45-52.03-30.04L13.79,566.06c-10.73-18.59-10.73-41.49,0-60.08L250.88,95.33c10.73-18.59,30.57-30.04,52.03-30.04h474.18c21.46,0,41.3,11.45,52.03,30.04l237.09,410.65c10.73,18.59,10.73,41.49,0,60.08l-237.09,410.65c-10.73,18.59-30.57,30.04-52.03,30.04Z"/>
  <g class="cls-3">
    <path class="cls-1" d="m265.65,764.98c.76-.44,1.55-.82,2.36-1.14,1.64-.66,2.68-2.25,2.63-4.02,0-.21,0-.42,0-.63l.26-92.71c.02-6.65,3.58-12.79,9.35-16.1l80.42-46.13c5.77-3.31,12.87-3.29,18.62.05l80.16,46.58c5.75,3.34,9.28,9.5,9.26,16.15l-.26,92.71c-.02,6.65-3.58,12.79-9.35,16.1l-80.42,46.13c-.77.44-1.55.82-2.36,1.14-1.64.66-2.68,2.25-2.63,4.02,0,.21,0,.42,0,.63l-.2,71.84c0,2.87,2.87,4.86,5.55,3.84,1.52-.58,3.01-1.29,4.46-2.12l137.77-79.03c9.88-5.67,15.99-16.18,16.03-27.58l.44-158.83c.03-11.4-6.02-21.94-15.87-27.67l-137.33-79.8c-9.85-5.73-22.01-5.76-31.9-.09l-137.77,79.03c-9.88,5.67-15.99,16.18-16.03,27.58l-.44,158.83c0,1.03.04,2.05.14,3.06.28,2.95,3.54,4.62,6.11,3.14l61-34.99Z"/>
    <path class="cls-1" d="m704.83,341.42l1.12,142.66c.12,14.95-7.75,28.83-20.64,36.41l-122.99,72.3c-12.89,7.58-28.84,7.7-41.85.33l-124.11-70.36c-13.01-7.37-21.09-21.13-21.21-36.08l-1.12-142.66c-.12-14.95,7.75-28.83,20.64-36.41l122.99-72.3c12.89-7.58,28.84-7.7,41.85-.33l124.11,70.36c13.01,7.37,21.09,21.13,21.21,36.08Z"/>
    <path class="cls-1" d="m880.47,634.23l1.12,142.66c.12,14.95-7.75,28.83-20.64,36.41l-122.99,72.3c-12.89,7.58-28.84,7.7-41.85.33l-124.11-70.36c-13.01-7.37-21.09-21.13-21.21-36.08l-1.12-142.66c-.12-14.95,7.75-28.83,20.64-36.41l122.99-72.3c12.89-7.58,28.84-7.7,41.85-.33l124.11,70.36c13.01,7.37,21.09,21.13,21.21,36.08Z"/>
  </g>
  <g>
    <path class="cls-4" d="m199.53,613.8c-7-2.99-12.54-7.3-16.61-12.93-4.07-5.62-6.17-12.27-6.28-19.93h26.93c.36,5.15,2.18,9.22,5.48,12.21,3.29,2.99,7.81,4.49,13.55,4.49s10.47-1.41,13.82-4.22c3.35-2.81,5.03-6.49,5.03-11.04,0-3.71-1.14-6.76-3.41-9.16-2.28-2.39-5.12-4.28-8.53-5.66-3.41-1.37-8.11-2.9-14.09-4.58-8.14-2.39-14.75-4.76-19.84-7.09-5.09-2.33-9.46-5.86-13.11-10.59-3.65-4.73-5.48-11.04-5.48-18.94,0-7.42,1.85-13.88,5.57-19.39,3.71-5.5,8.92-9.72,15.62-12.66,6.7-2.93,14.36-4.4,22.98-4.4,12.93,0,23.43,3.14,31.51,9.43,8.08,6.28,12.54,15.05,13.38,26.3h-27.65c-.24-4.31-2.06-7.87-5.48-10.68-3.41-2.81-7.93-4.22-13.55-4.22-4.91,0-8.83,1.26-11.76,3.77-2.93,2.51-4.4,6.17-4.4,10.95,0,3.35,1.11,6.13,3.32,8.35,2.21,2.22,4.97,4.01,8.26,5.39,3.29,1.38,7.93,2.96,13.91,4.76,8.14,2.4,14.78,4.79,19.93,7.18,5.14,2.4,9.57,5.99,13.29,10.77,3.71,4.79,5.57,11.07,5.57,18.85,0,6.7-1.74,12.93-5.21,18.67-3.47,5.75-8.56,10.32-15.26,13.73-6.71,3.41-14.66,5.12-23.88,5.12-8.74,0-16.61-1.5-23.61-4.49Z"/>
    <path class="cls-4" d="m314.34,491.72v125.31h-25.13v-125.31h25.13Z"/>
    <path class="cls-4" d="m446.29,617.04h-25.13l-56.91-85.99v85.99h-25.13v-125.49h25.13l56.91,86.17v-86.17h25.13v125.49Z"/>
    <path class="cls-4" d="m558.31,529.43c-2.87-5.27-6.82-9.27-11.85-12.03-5.03-2.75-10.89-4.13-17.59-4.13-7.42,0-14,1.68-19.75,5.03-5.75,3.35-10.23,8.14-13.46,14.36-3.23,6.22-4.85,13.41-4.85,21.54s1.64,15.68,4.94,21.9c3.29,6.22,7.87,11.01,13.73,14.36,5.86,3.35,12.68,5.03,20.47,5.03,9.57,0,17.41-2.54,23.52-7.63,6.1-5.09,10.11-12.18,12.03-21.27h-43.09v-19.21h67.86v21.9c-1.68,8.74-5.27,16.82-10.77,24.24-5.51,7.42-12.6,13.38-21.27,17.86-8.68,4.49-18.4,6.73-29.17,6.73-12.09,0-23.01-2.72-32.76-8.17-9.76-5.44-17.41-13.02-22.98-22.71s-8.35-20.7-8.35-33.03,2.78-23.37,8.35-33.12c5.57-9.75,13.22-17.35,22.98-22.8,9.75-5.44,20.61-8.17,32.58-8.17,14.12,0,26.39,3.44,36.8,10.32,10.41,6.88,17.59,16.55,21.54,28.99h-28.9Z"/>
    <path class="cls-4" d="m634.79,610.03c-9.81-5.5-17.59-13.13-23.34-22.89-5.74-9.75-8.62-20.79-8.62-33.12s2.87-23.19,8.62-32.94c5.75-9.75,13.52-17.38,23.34-22.89,9.81-5.5,20.58-8.26,32.32-8.26s22.65,2.75,32.4,8.26c9.75,5.51,17.47,13.14,23.16,22.89,5.68,9.76,8.53,20.74,8.53,32.94s-2.84,23.37-8.53,33.12c-5.69,9.76-13.44,17.39-23.25,22.89-9.81,5.51-20.59,8.26-32.31,8.26s-22.5-2.75-32.32-8.26Zm52.24-19.3c5.74-3.41,10.23-8.29,13.46-14.63,3.23-6.34,4.85-13.7,4.85-22.08s-1.62-15.71-4.85-21.99c-3.23-6.28-7.72-11.1-13.46-14.45-5.75-3.35-12.39-5.03-19.93-5.03s-14.21,1.68-20.02,5.03c-5.81,3.35-10.32,8.17-13.55,14.45-3.23,6.28-4.85,13.62-4.85,21.99s1.62,15.74,4.85,22.08c3.23,6.35,7.75,11.22,13.55,14.63,5.8,3.41,12.48,5.12,20.02,5.12s14.18-1.71,19.93-5.12Z"/>
    <path class="cls-4" d="m775,597.11h41.29v19.93h-66.42v-125.31h25.13v105.38Z"/>
    <path class="cls-4" d="m857.4,491.72v125.31h-25.13v-125.31h25.13Z"/>
  </g>
</svg>