<?xml version="1.0" encoding="UTF-8"?>
<svg id="Livello_1" data-name="Livello 1" xmlns="http://www.w3.org/2000/svg" viewBox="0 0 1080 1080">
  <defs>
    <style>
      .cls-1 {
        fill: #18626e;
      }

      .cls-1, .cls-2 {
        stroke-width: 0px;
      }

      .cls-3 {
        opacity: .19;
      }

      .cls-2 {
        fill: #00293e;
      }

      .cls-4 {
        fill: #f6f6f6;
        stroke: #1e1e1c;
        stroke-miterlimit: 10;
      }
    </style>
  </defs>
  <path class="cls-1" d="m776.72,1006.02h-473.44c-21.43,0-41.23-11.43-51.95-29.99L14.61,566.02c-10.72-18.56-10.72-41.43,0-59.98L251.33,96.02c10.72-18.56,30.52-29.99,51.95-29.99h473.44c21.43,0,41.23,11.43,51.95,29.99l236.72,410.01c10.72,18.56,10.72,41.43,0,59.98l-236.72,410.01c-10.72,18.56-30.52,29.99-51.95,29.99Z"/>
  <g class="cls-3">
    <path class="cls-2" d="m265.65,751.28c.76-.44,1.55-.82,2.36-1.14,1.64-.66,2.68-2.25,2.63-4.02,0-.21,0-.42,0-.63l.26-92.71c.02-6.65,3.58-12.79,9.35-16.1l80.42-46.13c5.77-3.31,12.87-3.29,18.62.05l80.16,46.58c5.75,3.34,9.28,9.5,9.26,16.15l-.26,92.71c-.02,6.65-3.58,12.79-9.35,16.1l-80.42,46.13c-.77.44-1.55.82-2.36,1.14-1.64.66-2.68,2.25-2.63,4.02,0,.21,0,.42,0,.63l-.2,71.84c0,2.87,2.87,4.86,5.55,3.84,1.52-.58,3.01-1.29,4.46-2.12l137.77-79.03c9.88-5.67,15.99-16.18,16.03-27.58l.44-158.83c.03-11.4-6.02-21.94-15.87-27.67l-137.33-79.8c-9.85-5.73-22.01-5.76-31.9-.09l-137.77,79.03c-9.88,5.67-15.99,16.18-16.03,27.58l-.44,158.83c0,1.03.04,2.05.14,3.06.28,2.95,3.54,4.62,6.11,3.14l61-34.99Z"/>
    <path class="cls-2" d="m704.83,327.71l1.12,142.66c.12,14.95-7.75,28.83-20.64,36.41l-122.99,72.3c-12.89,7.58-28.84,7.7-41.85.33l-124.11-70.36c-13.01-7.37-21.09-21.13-21.21-36.08l-1.12-142.66c-.12-14.95,7.75-28.83,20.64-36.41l122.99-72.3c12.89-7.58,28.84-7.7,41.85-.33l124.11,70.36c13.01,7.37,21.09,21.13,21.21,36.08Z"/>
    <path class="cls-2" d="m880.47,620.53l1.12,142.66c.12,14.95-7.75,28.83-20.64,36.41l-122.99,72.3c-12.89,7.58-28.84,7.7-41.85.33l-124.11-70.36c-13.01-7.37-21.09-21.13-21.21-36.08l-1.12-142.66c-.12-14.95,7.75-28.83,20.64-36.41l122.99-72.3c12.89-7.58,28.84-7.7,41.85-.33l124.11,70.36c13.01,7.37,21.09,21.13,21.21,36.08Z"/>
  </g>
  <g>
    <path class="cls-4" d="m389.36,491.01v24.6h-33.39v101.43h-30.7v-101.43h-33.39v-24.6h97.48Z"/>
    <path class="cls-4" d="m435.5,515.6v25.49h41.11v23.7h-41.11v27.65h46.5v24.6h-77.2v-126.03h77.2v24.6h-46.5Z"/>
    <path class="cls-4" d="m580.38,594.77h-47.04l-7.54,22.26h-32.14l45.6-126.03h35.55l45.6,126.03h-32.49l-7.54-22.26Zm-7.9-23.7l-15.62-46.14-15.44,46.14h31.06Z"/>
    <path class="cls-4" d="m776.96,491.01v126.03h-30.7v-75.58l-28.19,75.58h-24.78l-28.37-75.76v75.76h-30.7v-126.03h36.26l35.37,87.25,35.01-87.25h36.08Z"/>
  </g>
</svg>